{"glyphs":{"0":{"ha":883,"x_min":138,"x_max":762,"o":"m 366 935 l 366 212 l 534 212 l 534 935 l 366 935 m 593 1147 q 712 1102 663 1147 q 762 991 762 1056 l 762 157 q 712 45 762 92 q 593 0 663 0 l 306 0 q 188 45 237 0 q 138 157 138 92 l 138 991 q 188 1102 138 1056 q 306 1147 237 1147 l 593 1147 z "},"1":{"ha":883,"x_min":146,"x_max":771,"o":"m 572 212 l 771 212 l 771 0 l 146 0 l 146 212 l 345 212 l 345 935 l 146 935 l 146 1147 l 404 1147 q 522 1102 473 1147 q 572 991 572 1056 l 572 212 z "},"2":{"ha":883,"x_min":130,"x_max":754,"o":"m 357 212 l 754 212 l 754 0 l 130 0 l 130 393 q 217 604 130 526 q 442 680 302 680 q 506 695 488 680 q 526 754 526 711 l 526 935 l 357 935 l 357 760 l 130 760 l 130 991 q 180 1102 130 1056 q 298 1147 229 1147 l 585 1147 q 704 1102 654 1147 q 754 991 754 1056 l 754 754 q 667 544 754 622 q 442 467 582 467 q 378 452 396 467 q 357 393 357 436 l 357 212 z "},"3":{"ha":883,"x_min":118,"x_max":743,"o":"m 515 935 l 346 935 l 346 760 l 118 760 l 118 991 q 168 1102 118 1056 q 286 1147 218 1147 l 574 1147 q 692 1102 643 1147 q 743 991 743 1056 l 743 754 q 677 574 743 642 q 743 393 743 505 l 743 157 q 692 45 743 92 q 574 0 643 0 l 286 0 q 168 45 218 0 q 118 157 118 92 l 118 388 l 346 388 l 346 212 l 515 212 l 515 393 q 494 452 515 436 q 431 467 476 467 l 319 467 l 319 680 l 431 680 q 494 695 476 680 q 515 754 515 711 l 515 935 z "},"4":{"ha":883,"x_min":71,"x_max":806,"o":"m 488 472 l 488 1147 l 715 1147 l 715 472 l 806 472 l 806 260 l 715 260 l 715 0 l 488 0 l 488 260 l 239 260 q 121 304 171 260 q 71 416 71 351 l 176 1147 l 386 1147 l 300 472 l 488 472 z "},"5":{"ha":883,"x_min":142,"x_max":767,"o":"m 370 935 l 370 722 q 568 781 483 781 q 668 755 624 781 q 767 534 767 696 l 767 157 q 717 45 767 92 q 598 0 667 0 l 311 0 q 193 45 242 0 q 142 157 142 92 l 142 357 l 370 357 l 370 212 l 539 212 l 539 534 q 524 593 539 577 q 465 608 510 608 q 396 593 419 608 q 370 534 370 576 l 370 490 l 142 490 l 142 1147 l 767 1147 l 767 935 l 370 935 z "},"6":{"ha":883,"x_min":138,"x_max":762,"o":"m 366 212 l 534 212 l 534 419 q 514 478 534 461 q 450 493 496 493 q 386 478 404 493 q 366 419 366 461 l 366 212 m 366 637 q 528 685 453 685 q 650 649 594 685 q 762 419 762 577 l 762 157 q 712 45 762 92 q 593 0 663 0 l 306 0 q 188 45 237 0 q 138 157 138 92 l 138 991 q 188 1102 138 1056 q 306 1147 237 1147 l 593 1147 q 712 1102 663 1147 q 762 991 762 1056 l 762 760 l 534 760 l 534 935 l 366 935 l 366 637 z "},"7":{"ha":883,"x_min":113,"x_max":737,"o":"m 340 935 l 340 760 l 113 760 l 113 991 q 163 1102 113 1056 q 281 1147 212 1147 l 568 1147 q 687 1102 637 1147 q 737 991 737 1056 q 694 703 737 835 q 575 438 664 613 q 468 47 468 229 l 468 0 l 240 0 l 240 47 q 281 315 240 189 q 391 564 311 406 q 508 935 499 776 l 340 935 z "},"8":{"ha":883,"x_min":130,"x_max":754,"o":"m 526 935 l 357 935 l 357 754 q 377 695 357 711 q 442 680 396 680 q 506 695 488 680 q 526 754 526 711 l 526 935 m 357 212 l 526 212 l 526 393 q 506 452 526 436 q 442 467 488 467 q 377 452 396 467 q 357 393 357 436 l 357 212 m 195 574 q 130 754 130 642 l 130 991 q 180 1102 130 1056 q 298 1147 229 1147 l 585 1147 q 704 1102 654 1147 q 754 991 754 1056 l 754 754 q 688 574 754 642 q 754 393 754 505 l 754 157 q 704 45 754 92 q 585 0 654 0 l 298 0 q 180 45 229 0 q 130 157 130 92 l 130 393 q 195 574 130 505 z "},"9":{"ha":883,"x_min":129,"x_max":753,"o":"m 526 935 l 357 935 l 357 728 q 376 669 357 686 q 441 654 395 654 q 505 669 486 654 q 526 728 526 686 l 526 935 m 526 510 q 363 463 438 463 q 241 498 297 463 q 129 728 129 571 l 129 991 q 179 1102 129 1056 q 297 1147 229 1147 l 585 1147 q 703 1102 654 1147 q 753 991 753 1056 l 753 157 q 703 45 753 92 q 585 0 654 0 l 297 0 q 179 45 229 0 q 129 157 129 92 l 129 388 l 357 388 l 357 212 l 526 212 l 526 510 z "},"\u0000":{"ha":0,"x_min":0,"x_max":0,"o":""}," ":{"ha":345,"x_min":0,"x_max":0,"o":""},"!":{"ha":600,"x_min":148,"x_max":388,"o":"m 154 358 l 154 1147 l 382 1147 l 382 358 l 154 358 m 388 213 l 388 1 l 148 1 l 148 213 l 388 213 z "},"\"":{"ha":726,"x_min":87,"x_max":604,"o":"m 138 774 l 87 1225 l 315 1225 l 263 774 l 138 774 m 426 774 l 376 1225 l 604 1225 l 551 774 l 426 774 z "},"#":{"ha":951,"x_min":37,"x_max":871,"o":"m 754 696 l 724 518 l 871 518 l 871 326 l 690 326 l 633 1 l 429 1 l 485 326 l 327 326 l 271 0 l 65 0 l 122 326 l 37 326 l 37 518 l 155 518 l 186 696 l 37 696 l 37 888 l 219 888 l 264 1147 l 469 1147 l 425 888 l 583 888 l 627 1148 l 833 1148 l 787 888 l 871 888 l 871 696 l 754 696 m 518 518 l 549 696 l 391 696 l 360 518 l 518 518 z "},"$":{"ha":851,"x_min":64,"x_max":735,"o":"m 286 1136 l 286 1242 l 513 1242 l 513 1136 l 567 1136 q 685 1090 635 1136 q 735 979 735 1044 l 735 748 l 507 748 l 507 924 l 292 924 l 292 743 q 399 668 292 668 q 635 593 541 668 q 735 381 735 513 l 735 145 q 685 33 735 80 q 567 -12 635 -12 l 513 -12 l 513 -117 l 286 -117 l 286 -12 l 232 -12 q 114 33 163 -12 q 64 145 64 80 l 64 376 l 292 376 l 292 201 l 507 201 l 507 381 q 399 456 507 456 q 164 531 258 456 q 64 743 64 611 l 64 979 q 114 1090 64 1044 q 232 1136 163 1136 l 286 1136 z "},"%":{"ha":1409,"x_min":138,"x_max":1288,"o":"m 297 1057 l 297 677 l 416 677 l 416 1057 l 297 1057 m 456 1168 q 540 1144 505 1168 q 575 1086 575 1120 l 575 648 q 540 589 575 614 q 456 566 505 566 l 256 566 q 173 589 208 566 q 138 648 138 614 l 138 1086 q 173 1144 138 1120 q 256 1168 208 1168 l 456 1168 m 418 0 l 841 1147 l 1019 1147 l 595 0 l 418 0 m 1010 471 l 1010 91 l 1128 91 l 1128 471 l 1010 471 m 1170 582 q 1253 558 1218 582 q 1288 500 1288 534 l 1288 62 q 1253 3 1288 28 q 1170 -20 1218 -20 l 968 -20 q 886 3 920 -20 q 850 62 850 28 l 850 500 q 886 558 850 534 q 968 582 920 582 l 1170 582 z "},"&":{"ha":916,"x_min":56,"x_max":849,"o":"m 849 367 l 811 367 q 747 352 765 367 q 727 293 727 336 l 727 157 q 677 45 727 92 q 559 0 627 0 l 224 0 q 106 45 155 0 q 56 157 56 92 l 56 428 q 128 614 56 540 q 84 755 84 673 l 84 991 q 134 1102 84 1056 q 252 1147 184 1147 l 559 1147 q 677 1102 627 1147 q 727 991 727 1056 l 727 789 q 627 577 727 657 q 391 502 532 502 q 283 428 283 502 l 283 212 l 499 212 l 499 293 q 811 580 499 578 l 849 580 l 849 367 m 320 709 q 391 715 354 715 q 499 789 499 715 l 499 935 l 312 935 l 312 747 q 320 709 314 726 z "},"'":{"ha":444,"x_min":87,"x_max":315,"o":"m 138 774 l 87 1225 l 315 1225 l 263 774 l 138 774 z "},"(":{"ha":636,"x_min":168,"x_max":517,"o":"m 168 1029 q 261 1225 168 1151 q 479 1295 348 1295 l 517 1295 l 517 1148 l 479 1148 q 379 1068 379 1137 l 379 36 q 479 -44 379 -33 l 517 -44 l 517 -191 l 479 -191 q 261 -121 348 -191 q 168 75 168 -47 l 168 1029 z "},")":{"ha":639,"x_min":62,"x_max":410,"o":"m 410 75 q 317 -121 410 -47 q 100 -191 231 -191 l 62 -191 l 62 -44 l 100 -44 q 199 36 199 -33 l 199 1068 q 100 1148 199 1137 l 62 1148 l 62 1295 l 100 1295 q 317 1225 231 1295 q 410 1029 410 1151 l 410 75 z "},"*":{"ha":831,"x_min":71,"x_max":732,"o":"m 505 767 q 496 759 505 767 q 463 540 488 751 l 337 540 q 298 767 314 751 q 71 807 281 784 l 71 932 q 298 974 281 957 q 337 1202 314 991 l 463 1202 q 505 974 488 991 q 732 932 522 957 l 732 807 q 505 767 522 784 z "},"+":{"ha":810,"x_min":63,"x_max":698,"o":"m 476 723 l 698 723 l 698 531 l 476 531 l 476 309 l 285 309 l 285 531 l 63 531 l 63 723 l 285 723 l 285 944 l 476 944 l 476 723 z "},",":{"ha":456,"x_min":88,"x_max":328,"o":"m 328 214 l 328 1 l 159 -239 l 159 1 l 88 1 l 88 214 l 328 214 z "},"-":{"ha":705,"x_min":75,"x_max":585,"o":"m 585 449 l 75 449 l 75 641 l 585 641 l 585 449 z "},".":{"ha":454,"x_min":88,"x_max":328,"o":"m 328 213 l 328 1 l 88 1 l 88 213 l 328 213 z "},"/":{"ha":641,"x_min":101,"x_max":505,"o":"m 101 0 l 300 1147 l 505 1147 l 306 0 l 101 0 z "},":":{"ha":356,"x_min":41,"x_max":281,"o":"m 281 213 l 281 1 l 41 1 l 41 213 l 281 213 m 281 879 l 281 667 l 41 667 l 41 879 l 281 879 z "},";":{"ha":356,"x_min":41,"x_max":281,"o":"m 281 214 l 281 1 l 112 -239 l 112 1 l 41 1 l 41 214 l 281 214 m 281 880 l 281 667 l 41 667 l 41 880 l 281 880 z "},"<":{"ha":776,"x_min":71,"x_max":705,"o":"m 264 607 l 705 477 l 705 285 l 71 509 l 71 705 l 705 929 l 705 737 l 264 607 z "},"=":{"ha":781,"x_min":73,"x_max":708,"o":"m 708 326 l 73 326 l 73 518 l 708 518 l 708 326 m 708 696 l 73 696 l 73 888 l 708 888 l 708 696 z "},">":{"ha":776,"x_min":71,"x_max":705,"o":"m 71 737 l 71 929 l 705 705 l 705 509 l 71 285 l 71 477 l 512 607 l 71 737 z "},"?":{"ha":709,"x_min":23,"x_max":648,"o":"m 206 357 q 301 564 238 439 q 418 935 410 776 l 251 935 l 251 760 l 23 760 l 23 991 q 73 1103 23 1056 q 191 1147 123 1147 l 479 1147 q 597 1103 548 1147 q 648 991 648 1056 q 604 703 648 835 q 486 438 574 613 q 448 357 465 397 l 206 357 m 447 213 l 447 1 l 207 1 l 207 213 l 447 213 z "},"@":{"ha":1345,"x_min":73,"x_max":1220,"o":"m 724 360 l 724 601 l 639 601 q 553 542 553 601 l 553 264 l 1034 264 l 1034 913 l 258 913 l 258 -37 l 739 -37 l 739 -211 l 210 -211 q 113 -174 153 -211 q 73 -83 73 -136 l 73 959 q 113 1050 73 1012 q 210 1086 153 1086 l 1082 1086 q 1179 1050 1139 1086 q 1220 959 1220 1012 l 1220 224 q 1179 133 1220 170 q 1082 96 1139 96 l 506 96 q 412 132 451 96 q 372 220 372 168 l 372 542 q 452 710 372 646 q 639 769 527 769 l 905 769 l 905 360 l 724 360 z "},"A":{"ha":777,"x_min":-8,"x_max":739,"o":"m 310 445 l 421 445 l 366 934 l 310 445 m 269 233 l 222 0 l -8 0 l 214 1147 l 517 1147 l 739 0 l 508 0 l 463 233 l 269 233 z "},"B":{"ha":827,"x_min":57,"x_max":728,"o":"m 285 212 l 393 212 q 500 287 500 212 l 500 393 q 476 446 500 425 q 419 467 452 467 l 285 467 l 285 212 m 285 935 l 285 680 l 390 680 q 448 701 423 680 q 473 754 473 724 l 473 935 l 285 935 m 57 1147 l 531 1147 q 650 1102 600 1147 q 701 991 701 1056 l 701 754 q 626 585 701 650 q 728 393 728 517 l 728 287 q 628 75 728 155 q 393 0 534 0 l 57 0 l 57 1147 z "},"C":{"ha":794,"x_min":46,"x_max":718,"o":"m 490 935 l 274 935 l 274 212 l 490 212 l 490 388 l 718 388 l 718 157 q 667 45 718 92 q 549 0 618 0 l 214 0 q 96 45 146 0 q 46 157 46 92 l 46 991 q 96 1102 46 1056 q 214 1147 146 1147 l 549 1147 q 667 1102 618 1147 q 718 991 718 1056 l 718 760 l 490 760 l 490 935 z "},"D":{"ha":841,"x_min":57,"x_max":728,"o":"m 285 935 l 285 212 l 393 212 q 500 287 500 212 l 500 935 l 285 935 m 57 1147 l 560 1147 q 678 1102 629 1147 q 728 991 728 1056 l 728 287 q 628 75 728 155 q 393 0 534 0 l 57 0 l 57 1147 z "},"E":{"ha":724,"x_min":57,"x_max":665,"o":"m 285 212 l 665 212 l 665 0 l 57 0 l 57 1147 l 665 1147 l 665 935 l 285 935 l 285 680 l 601 680 l 601 467 l 285 467 l 285 212 z "},"F":{"ha":699,"x_min":57,"x_max":665,"o":"m 57 1147 l 665 1147 l 665 935 l 285 935 l 285 680 l 601 680 l 601 467 l 285 467 l 285 0 l 57 0 l 57 1147 z "},"G":{"ha":814,"x_min":46,"x_max":718,"o":"m 490 409 l 382 409 l 382 621 l 718 621 l 718 157 q 667 45 718 92 q 549 0 618 0 l 214 0 q 96 45 146 0 q 46 157 46 92 l 46 991 q 96 1102 46 1056 q 214 1147 146 1147 l 549 1147 q 667 1102 618 1147 q 718 991 718 1056 l 718 760 l 490 760 l 490 935 l 274 935 l 274 212 l 490 212 l 490 409 z "},"H":{"ha":853,"x_min":57,"x_max":728,"o":"m 285 467 l 285 0 l 57 0 l 57 1147 l 285 1147 l 285 680 l 500 680 l 500 1147 l 728 1147 l 728 0 l 500 0 l 500 467 l 285 467 z "},"I":{"ha":410,"x_min":57,"x_max":285,"o":"m 57 0 l 57 1147 l 285 1147 l 285 0 l 57 0 z "},"J":{"ha":557,"x_min":-16,"x_max":442,"o":"m 106 212 q 214 287 214 212 l 214 1147 l 442 1147 l 442 287 q 342 75 442 155 q 106 0 247 0 l -16 0 l -16 212 l 106 212 z "},"K":{"ha":785,"x_min":57,"x_max":745,"o":"m 285 467 l 285 0 l 57 0 l 57 1147 l 285 1147 l 285 680 l 372 680 l 513 1147 l 745 1147 l 572 574 l 745 0 l 513 0 l 372 467 l 285 467 z "},"L":{"ha":638,"x_min":57,"x_max":601,"o":"m 57 0 l 57 1147 l 285 1147 l 285 212 l 601 212 l 601 0 l 57 0 z "},"M":{"ha":1233,"x_min":57,"x_max":1108,"o":"m 1108 1147 l 1108 0 l 880 0 l 880 756 l 722 0 l 445 0 l 285 756 l 285 0 l 57 0 l 57 1147 l 373 1147 l 583 215 l 792 1147 l 1108 1147 z "},"N":{"ha":912,"x_min":57,"x_max":787,"o":"m 285 739 l 285 0 l 57 0 l 57 1147 l 373 1147 l 559 405 l 559 1147 l 787 1147 l 787 0 l 472 0 l 285 739 z "},"O":{"ha":838,"x_min":46,"x_max":718,"o":"m 274 935 l 274 212 l 490 212 l 490 935 l 274 935 m 549 1147 q 667 1102 618 1147 q 718 991 718 1056 l 718 157 q 667 45 718 92 q 549 0 618 0 l 214 0 q 96 45 146 0 q 46 157 46 92 l 46 991 q 96 1102 46 1056 q 214 1147 146 1147 l 549 1147 z "},"P":{"ha":797,"x_min":57,"x_max":728,"o":"m 285 935 l 285 621 l 393 621 q 500 695 500 621 l 500 935 l 285 935 m 57 1147 l 560 1147 q 678 1102 629 1147 q 728 991 728 1056 l 728 695 q 628 484 728 564 q 393 409 534 409 l 285 409 l 285 0 l 57 0 l 57 1147 z "},"Q":{"ha":835,"x_min":45,"x_max":717,"o":"m 489 937 l 273 937 l 273 214 l 428 214 q 481 230 470 214 q 489 288 489 242 l 489 937 m 660 120 q 717 -33 717 56 l 717 -101 l 489 -101 l 489 -33 q 480 1 489 -14 l 214 1 q 96 47 145 1 q 45 159 45 93 l 45 992 q 96 1104 45 1057 q 214 1149 145 1149 l 549 1149 q 667 1104 617 1149 q 717 992 717 1057 l 717 288 q 660 120 717 191 z "},"R":{"ha":835,"x_min":57,"x_max":728,"o":"m 419 621 q 476 643 452 621 q 500 695 500 664 l 500 935 l 285 935 l 285 621 l 419 621 m 285 409 l 285 0 l 57 0 l 57 1147 l 560 1147 q 678 1102 629 1147 q 728 991 728 1056 l 728 695 q 641 515 728 583 q 728 334 728 448 l 728 0 l 500 0 l 500 334 q 476 388 500 366 q 419 409 452 409 l 285 409 z "},"S":{"ha":801,"x_min":38,"x_max":709,"o":"m 481 935 l 266 935 l 266 754 q 374 680 266 680 q 609 605 515 680 q 709 393 709 525 l 709 157 q 659 45 709 92 q 541 0 610 0 l 206 0 q 88 45 138 0 q 38 157 38 92 l 38 388 l 266 388 l 266 212 l 481 212 l 481 393 q 374 467 481 467 q 138 543 233 467 q 38 754 38 623 l 38 991 q 88 1102 38 1056 q 206 1147 138 1147 l 541 1147 q 659 1102 610 1147 q 709 991 709 1056 l 709 760 l 481 760 l 481 935 z "},"T":{"ha":674,"x_min":-15,"x_max":656,"o":"m 208 935 l -15 935 l -15 1147 l 656 1147 l 656 935 l 435 935 l 435 0 l 208 0 l 208 935 z "},"U":{"ha":842,"x_min":49,"x_max":720,"o":"m 277 212 l 492 212 l 492 1147 l 720 1147 l 720 157 q 670 45 720 92 q 552 0 621 0 l 217 0 q 99 45 149 0 q 49 157 49 92 l 49 1147 l 277 1147 l 277 212 z "},"V":{"ha":769,"x_min":-9,"x_max":739,"o":"m 365 218 q 507 1147 446 832 l 739 1147 l 517 0 l 214 0 l -9 1147 l 222 1147 q 365 218 284 831 z "},"W":{"ha":1307,"x_min":-3,"x_max":1270,"o":"m 488 1147 l 778 1147 l 917 214 q 1039 1147 985 833 l 1270 1147 l 1074 0 l 769 0 l 633 826 l 498 0 l 193 0 l -3 1147 l 227 1147 q 349 214 281 833 l 488 1147 z "},"X":{"ha":744,"x_min":-8,"x_max":696,"o":"m 344 467 q 223 0 271 158 l -8 0 l 165 574 l -8 1147 l 223 1147 q 344 680 271 990 q 465 1147 417 990 l 696 1147 l 524 574 l 696 0 l 465 0 q 344 467 416 158 z "},"Y":{"ha":686,"x_min":-27,"x_max":679,"o":"m 440 393 l 440 0 l 212 0 l 212 392 l -27 1147 l 205 1147 q 326 598 256 980 q 446 1147 397 980 l 679 1147 l 440 393 z "},"Z":{"ha":614,"x_min":-3,"x_max":574,"o":"m 277 935 l 13 935 l 13 1147 l 574 1147 l 292 212 l 557 212 l 557 0 l -3 0 l 277 935 z "},"[":{"ha":552,"x_min":102,"x_max":450,"o":"m 102 1295 l 450 1295 l 450 1148 l 313 1148 l 313 -44 l 450 -44 l 450 -191 l 102 -191 l 102 1295 z "},"\\":{"ha":608,"x_min":102,"x_max":506,"o":"m 301 0 l 102 1147 l 307 1147 l 506 0 l 301 0 z "},"]":{"ha":552,"x_min":102,"x_max":450,"o":"m 450 -191 l 102 -191 l 102 -44 l 239 -44 l 239 1148 l 102 1148 l 102 1295 l 450 1295 l 450 -191 z "},"^":{"ha":848,"x_min":102,"x_max":746,"o":"m 424 978 l 294 592 l 102 592 l 326 1147 l 522 1147 l 746 592 l 554 592 l 424 978 z "},"_":{"ha":975,"x_min":102,"x_max":873,"o":"m 873 -174 l 102 -174 l 102 -29 l 873 -29 l 873 -174 z "},"`":{"ha":496,"x_min":102,"x_max":394,"o":"m 244 1135 l 102 1345 l 318 1345 l 394 1135 l 244 1135 z "},"a":{"ha":768,"x_min":26,"x_max":736,"o":"m 329 422 l 434 422 l 381 887 l 329 422 m 290 221 l 245 0 l 26 0 l 238 1090 l 526 1090 l 736 0 l 517 0 l 474 221 l 290 221 z "},"b":{"ha":824,"x_min":94,"x_max":732,"o":"m 311 201 l 413 201 q 515 273 515 201 l 515 374 q 492 424 515 404 q 438 444 469 444 l 311 444 l 311 201 m 311 888 l 311 646 l 410 646 q 465 666 442 646 q 489 716 489 688 l 489 888 l 311 888 m 94 1090 l 545 1090 q 658 1047 610 1090 q 706 941 706 1003 l 706 716 q 635 555 706 618 q 732 374 732 491 l 732 273 q 637 71 732 148 q 413 0 547 0 l 94 0 l 94 1090 z "},"c":{"ha":800,"x_min":84,"x_max":722,"o":"m 505 888 l 300 888 l 300 201 l 505 201 l 505 368 l 722 368 l 722 149 q 674 43 722 87 q 562 0 627 0 l 244 0 q 132 43 179 0 q 84 149 84 87 l 84 941 q 132 1047 84 1003 q 244 1090 179 1090 l 562 1090 q 674 1047 627 1090 q 722 941 722 1003 l 722 722 l 505 722 l 505 888 z "},"d":{"ha":840,"x_min":94,"x_max":732,"o":"m 311 888 l 311 201 l 413 201 q 515 273 515 201 l 515 888 l 311 888 m 94 1090 l 572 1090 q 684 1047 637 1090 q 732 941 732 1003 l 732 273 q 637 71 732 148 q 413 0 547 0 l 94 0 l 94 1090 z "},"e":{"ha":735,"x_min":94,"x_max":671,"o":"m 311 201 l 671 201 l 671 0 l 94 0 l 94 1090 l 671 1090 l 671 888 l 311 888 l 311 646 l 611 646 l 611 444 l 311 444 l 311 201 z "},"f":{"ha":701,"x_min":95,"x_max":672,"o":"m 95 1090 l 672 1090 l 672 888 l 311 888 l 311 646 l 612 646 l 612 444 l 311 444 l 311 0 l 95 0 l 95 1090 z "},"g":{"ha":820,"x_min":84,"x_max":722,"o":"m 505 389 l 403 389 l 403 590 l 722 590 l 722 149 q 674 43 722 87 q 562 0 627 0 l 244 0 q 132 43 179 0 q 84 149 84 87 l 84 941 q 132 1047 84 1003 q 244 1090 179 1090 l 562 1090 q 674 1047 627 1090 q 722 941 722 1003 l 722 722 l 505 722 l 505 888 l 300 888 l 300 201 l 505 201 l 505 389 z "},"h":{"ha":853,"x_min":95,"x_max":733,"o":"m 311 444 l 311 0 l 95 0 l 95 1090 l 311 1090 l 311 646 l 516 646 l 516 1090 l 733 1090 l 733 0 l 516 0 l 516 444 l 311 444 z "},"i":{"ha":431,"x_min":95,"x_max":311,"o":"m 95 0 l 95 1090 l 311 1090 l 311 0 l 95 0 z "},"j":{"ha":562,"x_min":16,"x_max":451,"o":"m 132 201 q 235 273 235 201 l 235 1090 l 451 1090 l 451 273 q 356 71 451 148 q 132 0 266 0 l 16 0 l 16 201 l 132 201 z "},"k":{"ha":801,"x_min":95,"x_max":748,"o":"m 311 444 l 311 0 l 95 0 l 95 1090 l 311 1090 l 311 646 l 395 646 l 528 1090 l 748 1090 l 585 545 l 748 0 l 528 0 l 395 444 l 311 444 z "},"l":{"ha":642,"x_min":94,"x_max":611,"o":"m 94 0 l 94 1090 l 311 1090 l 311 201 l 611 201 l 611 0 l 94 0 z "},"m":{"ha":1213,"x_min":95,"x_max":1094,"o":"m 1094 1090 l 1094 0 l 877 0 l 877 718 l 726 0 l 463 0 l 311 718 l 311 0 l 95 0 l 95 1090 l 395 1090 l 595 204 l 793 1090 l 1094 1090 z "},"n":{"ha":909,"x_min":95,"x_max":789,"o":"m 311 702 l 311 0 l 95 0 l 95 1090 l 395 1090 l 572 385 l 572 1090 l 789 1090 l 789 0 l 489 0 l 311 702 z "},"o":{"ha":836,"x_min":84,"x_max":722,"o":"m 300 888 l 300 201 l 505 201 l 505 888 l 300 888 m 562 1090 q 674 1047 627 1090 q 722 941 722 1003 l 722 149 q 674 43 722 87 q 562 0 627 0 l 244 0 q 132 43 179 0 q 84 149 84 87 l 84 941 q 132 1047 84 1003 q 244 1090 179 1090 l 562 1090 z "},"p":{"ha":788,"x_min":95,"x_max":733,"o":"m 311 888 l 311 590 l 414 590 q 516 661 516 590 l 516 888 l 311 888 m 95 1090 l 573 1090 q 685 1047 638 1090 q 733 941 733 1003 l 733 661 q 637 460 733 536 q 414 389 548 389 l 311 389 l 311 0 l 95 0 l 95 1090 z "},"q":{"ha":836,"x_min":85,"x_max":724,"o":"m 507 890 l 302 890 l 302 203 l 449 203 q 500 218 489 203 q 507 273 507 230 l 507 890 m 669 114 q 724 -31 724 53 l 724 -96 l 507 -96 l 507 -31 q 498 1 507 -14 l 245 1 q 133 44 180 1 q 85 151 85 88 l 85 942 q 133 1048 85 1004 q 245 1091 180 1091 l 564 1091 q 675 1048 629 1091 q 724 942 724 1004 l 724 273 q 669 114 724 181 z "},"r":{"ha":844,"x_min":95,"x_max":733,"o":"m 439 590 q 493 611 470 590 q 516 661 516 631 l 516 888 l 311 888 l 311 590 l 439 590 m 311 389 l 311 0 l 95 0 l 95 1090 l 573 1090 q 685 1047 638 1090 q 733 941 733 1003 l 733 661 q 650 490 733 553 q 733 317 733 426 l 733 0 l 516 0 l 516 317 q 493 368 516 347 q 439 389 470 389 l 311 389 z "},"s":{"ha":810,"x_min":79,"x_max":717,"o":"m 500 888 l 295 888 l 295 716 q 397 646 295 646 q 621 574 532 646 q 717 374 717 498 l 717 149 q 669 43 717 87 q 557 0 622 0 l 239 0 q 126 43 174 0 q 79 149 79 87 l 79 368 l 295 368 l 295 201 l 500 201 l 500 374 q 397 444 500 444 q 174 515 264 444 q 79 716 79 591 l 79 941 q 126 1047 79 1003 q 239 1090 174 1090 l 557 1090 q 669 1047 622 1090 q 717 941 717 1003 l 717 722 l 500 722 l 500 888 z "},"t":{"ha":662,"x_min":15,"x_max":653,"o":"m 227 888 l 15 888 l 15 1090 l 653 1090 l 653 888 l 442 888 l 442 0 l 227 0 l 227 888 z "},"u":{"ha":845,"x_min":90,"x_max":728,"o":"m 306 201 l 511 201 l 511 1090 l 728 1090 l 728 149 q 680 43 728 87 q 568 0 633 0 l 250 0 q 137 43 184 0 q 90 149 90 87 l 90 1090 l 306 1090 l 306 201 z "},"v":{"ha":763,"x_min":25,"x_max":735,"o":"m 380 208 q 515 1090 457 791 l 735 1090 l 524 0 l 237 0 l 25 1090 l 244 1090 q 380 208 303 790 z "},"w":{"ha":1276,"x_min":30,"x_max":1239,"o":"m 497 1090 l 772 1090 l 904 203 q 1020 1090 969 792 l 1239 1090 l 1053 0 l 764 0 l 635 785 l 506 0 l 217 0 l 30 1090 l 249 1090 q 365 203 300 792 l 497 1090 z "},"x":{"ha":766,"x_min":37,"x_max":706,"o":"m 371 444 q 256 0 301 150 l 37 0 l 201 545 l 37 1090 l 256 1090 q 371 646 301 941 q 486 1090 441 941 l 706 1090 l 542 545 l 706 0 l 486 0 q 371 444 440 150 z "},"y":{"ha":687,"x_min":5,"x_max":676,"o":"m 450 373 l 450 0 l 233 0 l 233 372 l 5 1090 l 227 1090 q 340 568 274 931 q 455 1090 408 931 l 676 1090 l 450 373 z "},"z":{"ha":640,"x_min":33,"x_max":581,"o":"m 300 888 l 49 888 l 49 1090 l 581 1090 l 314 201 l 566 201 l 566 0 l 33 0 l 300 888 z "},"{":{"ha":690,"x_min":102,"x_max":588,"o":"m 361 573 q 450 381 450 500 l 450 36 q 550 -44 450 -33 l 588 -44 l 588 -191 l 550 -191 q 332 -121 419 -191 q 239 75 239 -47 l 239 420 q 140 500 239 489 l 102 500 l 102 646 l 140 646 q 239 726 239 657 l 239 1029 q 332 1225 239 1151 q 550 1295 419 1295 l 588 1295 l 588 1148 l 550 1148 q 450 1068 450 1137 l 450 765 q 361 573 450 646 z "},"|":{"ha":405,"x_min":102,"x_max":303,"o":"m 102 -280 l 102 1303 l 303 1303 l 303 -280 l 102 -280 z "},"}":{"ha":690,"x_min":102,"x_max":588,"o":"m 328 573 q 239 765 239 646 l 239 1068 q 140 1148 239 1137 l 102 1148 l 102 1295 l 140 1295 q 357 1225 271 1295 q 450 1029 450 1151 l 450 726 q 550 646 450 657 l 588 646 l 588 500 l 550 500 q 450 420 450 489 l 450 75 q 357 -121 450 -47 q 140 -191 271 -191 l 102 -191 l 102 -44 l 140 -44 q 239 36 239 -33 l 239 381 q 328 573 239 500 z "},"~":{"ha":888,"x_min":102,"x_max":787,"o":"m 329 584 q 300 591 315 591 q 229 539 263 591 l 214 510 l 102 568 l 117 597 q 256 736 168 697 q 343 755 299 755 q 441 730 392 755 l 559 669 q 588 662 574 662 q 660 715 625 662 l 675 743 l 787 686 l 772 657 q 633 517 720 557 q 546 498 589 498 q 447 524 496 498 l 329 584 z "},"¡":{"ha":600,"x_min":148,"x_max":388,"o":"m 382 732 l 382 -57 l 154 -57 l 154 732 l 382 732 m 148 878 l 148 1090 l 388 1090 l 388 878 l 148 878 z "},"¢":{"ha":800,"x_min":84,"x_max":722,"o":"m 425 1090 l 441 1191 l 599 1191 l 583 1088 q 674 1047 635 1083 q 722 941 722 1003 l 722 722 l 505 722 l 505 888 l 300 888 l 300 201 l 505 201 l 505 368 l 722 368 l 722 149 q 674 43 722 87 q 562 0 627 0 l 457 0 l 442 -93 l 285 -93 l 300 0 l 244 0 q 132 43 179 0 q 84 149 84 87 l 84 941 q 132 1047 84 1003 q 244 1090 179 1090 l 425 1090 z "},"£":{"ha":922,"x_min":102,"x_max":820,"o":"m 440 456 l 440 353 q 403 212 440 273 l 820 212 l 820 0 l 106 0 l 106 212 q 214 287 214 212 l 214 456 l 102 456 l 102 648 l 212 648 l 212 861 q 313 1072 212 992 q 548 1147 407 1147 l 789 1147 l 789 935 l 548 935 q 440 861 440 935 l 440 648 l 736 648 l 736 456 l 440 456 z "},"¥":{"ha":909,"x_min":102,"x_max":808,"o":"m 569 96 l 569 0 l 341 0 l 341 96 l 134 96 l 134 288 l 341 288 l 341 390 l 134 390 l 134 581 l 281 581 l 102 1147 l 334 1147 q 454 598 385 980 q 575 1147 526 980 l 808 1147 l 629 581 l 768 581 l 768 390 l 569 390 l 569 288 l 768 288 l 768 96 l 569 96 z "},"¦":{"ha":405,"x_min":102,"x_max":303,"o":"m 102 -280 l 102 469 l 303 469 l 303 -280 l 102 -280 m 102 583 l 102 1303 l 303 1303 l 303 583 l 102 583 z "},"§":{"ha":842,"x_min":102,"x_max":740,"o":"m 696 243 q 740 98 740 182 l 740 -63 q 692 -169 740 -125 q 580 -212 645 -212 l 262 -212 q 150 -169 197 -212 q 102 -63 102 -125 l 102 92 l 319 92 l 319 -10 l 524 -10 l 524 98 q 421 168 524 168 q 197 239 287 168 q 102 440 102 315 l 102 598 q 145 699 102 656 q 102 845 102 761 l 102 1006 q 149 1112 102 1067 q 262 1154 197 1154 l 580 1154 q 692 1112 645 1154 q 740 1006 740 1067 l 740 851 l 523 851 l 523 953 l 318 953 l 318 845 q 420 775 318 775 q 644 703 555 775 q 740 503 740 627 l 740 345 q 696 243 740 286 m 523 358 l 523 503 q 420 573 523 573 q 319 585 366 573 l 319 440 q 421 370 319 370 q 523 358 475 370 z "},"¨":{"ha":711,"x_min":102,"x_max":610,"o":"m 292 1322 l 292 1154 l 102 1154 l 102 1322 l 292 1322 m 610 1322 l 610 1154 l 419 1154 l 419 1322 l 610 1322 z "},"©":{"ha":1322,"x_min":162,"x_max":1099,"o":"m 313 1000 l 313 146 l 947 146 l 947 1000 l 313 1000 m 986 1147 q 1065 1116 1032 1147 q 1099 1039 1099 1084 l 1099 108 q 1065 31 1099 63 q 986 0 1032 0 l 275 0 q 195 31 229 0 q 162 108 162 63 l 162 1039 q 195 1116 162 1084 q 275 1147 229 1147 l 986 1147 m 698 784 l 568 784 l 568 347 l 698 347 l 698 453 l 836 453 l 836 313 q 805 247 836 274 q 734 219 775 219 l 532 219 q 460 247 490 219 q 430 313 430 274 l 430 817 q 460 884 430 857 q 532 911 490 911 l 734 911 q 805 884 775 911 q 836 817 836 857 l 836 678 l 698 678 l 698 784 z "},"«":{"ha":825,"x_min":102,"x_max":723,"o":"m 102 642 l 432 866 l 432 707 l 254 544 l 432 381 l 432 222 l 102 446 l 102 642 m 393 642 l 723 866 l 723 707 l 545 544 l 723 381 l 723 222 l 393 446 l 393 642 z "},"®":{"ha":1140,"x_min":102,"x_max":1038,"o":"m 253 1000 l 253 146 l 886 146 l 886 1000 l 253 1000 m 926 1147 q 1005 1116 972 1147 q 1038 1039 1038 1084 l 1038 108 q 1005 31 1038 63 q 926 0 972 0 l 214 0 q 135 31 168 0 q 102 108 102 63 l 102 1039 q 135 1116 102 1084 q 214 1147 168 1147 l 926 1147 m 583 593 q 617 606 602 593 q 632 638 632 619 l 632 783 l 501 783 l 501 593 l 583 593 m 501 465 l 501 216 l 363 216 l 363 911 l 668 911 q 739 884 709 911 q 770 817 770 857 l 770 638 q 717 529 770 570 q 770 419 770 488 l 770 216 l 632 216 l 632 419 q 617 452 632 438 q 583 465 602 465 l 501 465 z "},"¯":{"ha":844,"x_min":102,"x_max":742,"o":"m 742 1319 l 742 1173 l 102 1173 l 102 1319 l 742 1319 z "},"°":{"ha":711,"x_min":102,"x_max":609,"o":"m 355 1153 q 535 1079 460 1153 q 609 899 609 1004 q 535 720 609 794 q 355 646 460 646 q 176 720 250 646 q 102 899 102 794 q 176 1079 102 1004 q 355 1153 250 1153 m 355 996 q 287 967 315 996 q 259 899 259 939 q 287 831 259 859 q 355 803 315 803 q 424 831 395 803 q 452 899 452 859 q 424 967 452 939 q 355 996 395 996 z "},"±":{"ha":810,"x_min":63,"x_max":698,"o":"m 698 0 l 63 0 l 63 192 l 698 192 l 698 0 m 476 723 l 698 723 l 698 531 l 476 531 l 476 309 l 285 309 l 285 531 l 63 531 l 63 723 l 285 723 l 285 944 l 476 944 l 476 723 z "},"´":{"ha":496,"x_min":102,"x_max":394,"o":"m 102 1135 l 178 1345 l 394 1345 l 252 1135 l 102 1135 z "},"¶":{"ha":985,"x_min":102,"x_max":883,"o":"m 683 0 l 683 1147 l 883 1147 l 883 0 l 683 0 m 568 1147 l 568 0 l 368 0 l 368 640 l 355 640 q 176 714 250 640 q 102 894 102 789 q 176 1073 102 999 q 355 1147 250 1147 l 568 1147 z "},"·":{"ha":345,"x_min":88,"x_max":292,"o":"m 293 664 l 293 483 l 88 483 l 88 664 l 293 664 z "},"¸":{"ha":503,"x_min":102,"x_max":401,"o":"m 147 -161 q 226 -188 201 -188 q 275 -171 254 -188 q 296 -129 296 -153 q 275 -86 296 -104 q 212 -56 261 -75 l 258 18 q 350 -23 310 10 q 401 -129 401 -67 q 350 -234 401 -190 q 226 -277 298 -277 q 102 -233 153 -277 l 147 -161 z "},"»":{"ha":825,"x_min":102,"x_max":723,"o":"m 432 446 l 102 222 l 102 381 l 279 544 l 102 707 l 102 866 l 432 642 l 432 446 m 723 446 l 393 222 l 393 381 l 570 544 l 393 707 l 393 866 l 723 642 l 723 446 z "},"¿":{"ha":709,"x_min":23,"x_max":648,"o":"m 465 733 q 370 527 433 651 q 252 155 261 315 l 420 155 l 420 330 l 648 330 l 648 100 q 597 -12 648 35 q 479 -57 548 -57 l 192 -57 q 73 -12 123 -57 q 23 100 23 35 q 66 387 23 256 q 185 652 96 477 q 223 733 205 693 l 465 733 m 224 878 l 224 1090 l 464 1090 l 464 878 l 224 878 z "},"À":{"ha":777,"x_min":-8,"x_max":739,"o":"m 310 445 l 421 445 l 366 934 l 310 445 m 269 233 l 222 0 l -8 0 l 214 1147 l 517 1147 l 739 0 l 508 0 l 463 233 l 269 233 m 313 1192 l 171 1402 l 387 1402 l 463 1192 l 313 1192 z "},"Á":{"ha":777,"x_min":-8,"x_max":739,"o":"m 310 445 l 421 445 l 366 934 l 310 445 m 269 233 l 222 0 l -8 0 l 214 1147 l 517 1147 l 739 0 l 508 0 l 463 233 l 269 233 m 268 1192 l 344 1402 l 560 1402 l 418 1192 l 268 1192 z "},"Â":{"ha":777,"x_min":-8,"x_max":739,"o":"m 310 445 l 421 445 l 366 934 l 310 445 m 269 233 l 222 0 l -8 0 l 214 1147 l 517 1147 l 739 0 l 508 0 l 463 233 l 269 233 m 430 1207 l 366 1305 l 303 1207 l 159 1207 l 233 1407 l 500 1407 l 572 1207 l 430 1207 z "},"Ã":{"ha":777,"x_min":-8,"x_max":739,"o":"m 310 445 l 421 445 l 366 934 l 310 445 m 269 233 l 222 0 l -8 0 l 214 1147 l 517 1147 l 739 0 l 508 0 l 463 233 l 269 233 m 283 1254 q 263 1261 273 1261 q 212 1213 237 1261 l 201 1187 l 122 1239 l 133 1265 q 231 1392 170 1356 q 294 1409 262 1409 q 363 1387 328 1409 l 448 1331 q 468 1324 458 1324 q 519 1373 494 1324 l 530 1398 l 609 1346 l 598 1320 q 500 1194 562 1230 q 438 1176 469 1176 q 368 1200 403 1176 l 283 1254 z "},"Ä":{"ha":777,"x_min":-8,"x_max":739,"o":"m 310 445 l 421 445 l 366 934 l 310 445 m 269 233 l 222 0 l -8 0 l 214 1147 l 517 1147 l 739 0 l 508 0 l 463 233 l 269 233 m 302 1379 l 302 1211 l 112 1211 l 112 1379 l 302 1379 m 620 1379 l 620 1211 l 429 1211 l 429 1379 l 620 1379 z "},"Å":{"ha":777,"x_min":-8,"x_max":739,"o":"m 310 445 l 421 445 l 366 934 l 310 445 m 366 1361 q 322 1343 340 1361 q 304 1299 304 1325 q 322 1256 304 1274 q 366 1238 340 1238 q 409 1256 391 1238 q 427 1299 427 1274 q 409 1343 427 1325 q 366 1361 391 1361 m 387 1147 l 517 1147 l 739 0 l 508 0 l 463 233 l 269 233 l 222 0 l -8 0 l 214 1147 l 344 1147 q 257 1192 294 1154 q 212 1299 212 1236 q 257 1408 212 1363 q 366 1453 302 1453 q 474 1408 429 1453 q 519 1299 519 1363 q 474 1192 519 1236 q 387 1147 437 1154 z "},"Æ":{"ha":1103,"x_min":-8,"x_max":1043,"o":"m 310 445 l 443 445 l 443 959 l 310 445 m 435 233 l 269 233 l 222 0 l -8 0 l 268 1147 l 1043 1147 l 1043 935 l 663 935 l 663 680 l 979 680 l 979 467 l 663 467 l 664 212 l 1043 212 l 1043 0 l 435 0 l 435 233 z "},"Ç":{"ha":794,"x_min":46,"x_max":718,"o":"m 378 0 l 214 0 q 96 45 146 0 q 46 157 46 92 l 46 991 q 96 1102 46 1056 q 214 1147 146 1147 l 549 1147 q 667 1102 618 1147 q 718 991 718 1056 l 718 760 l 490 760 l 490 935 l 274 935 l 274 212 l 490 212 l 490 388 l 718 388 l 718 157 q 667 45 718 92 q 549 0 618 0 l 446 0 q 480 -23 464 -9 q 532 -129 532 -67 q 480 -234 532 -190 q 356 -277 429 -277 q 233 -233 283 -277 l 277 -161 q 356 -188 332 -188 q 406 -171 385 -188 q 426 -129 426 -153 q 406 -86 426 -104 q 342 -56 392 -75 l 378 0 z "},"È":{"ha":724,"x_min":57,"x_max":665,"o":"m 285 212 l 665 212 l 665 0 l 57 0 l 57 1147 l 665 1147 l 665 935 l 285 935 l 285 680 l 601 680 l 601 467 l 285 467 l 285 212 m 309 1192 l 166 1402 l 382 1402 l 458 1192 l 309 1192 z "},"É":{"ha":724,"x_min":57,"x_max":665,"o":"m 285 212 l 665 212 l 665 0 l 57 0 l 57 1147 l 665 1147 l 665 935 l 285 935 l 285 680 l 601 680 l 601 467 l 285 467 l 285 212 m 263 1192 l 339 1402 l 555 1402 l 413 1192 l 263 1192 z "},"Ê":{"ha":724,"x_min":57,"x_max":665,"o":"m 285 212 l 665 212 l 665 0 l 57 0 l 57 1147 l 665 1147 l 665 935 l 285 935 l 285 680 l 601 680 l 601 467 l 285 467 l 285 212 m 425 1207 l 361 1305 l 298 1207 l 155 1207 l 228 1407 l 496 1407 l 568 1207 l 425 1207 z "},"Ë":{"ha":724,"x_min":57,"x_max":665,"o":"m 285 212 l 665 212 l 665 0 l 57 0 l 57 1147 l 665 1147 l 665 935 l 285 935 l 285 680 l 601 680 l 601 467 l 285 467 l 285 212 m 298 1379 l 298 1211 l 107 1211 l 107 1379 l 298 1379 m 615 1379 l 615 1211 l 425 1211 l 425 1379 l 615 1379 z "},"Ì":{"ha":410,"x_min":-24,"x_max":285,"o":"m 57 0 l 57 1147 l 285 1147 l 285 0 l 57 0 m 119 1192 l -24 1402 l 193 1402 l 269 1192 l 119 1192 z "},"Í":{"ha":410,"x_min":57,"x_max":366,"o":"m 57 0 l 57 1147 l 285 1147 l 285 0 l 57 0 m 73 1192 l 149 1402 l 366 1402 l 223 1192 l 73 1192 z "},"Î":{"ha":410,"x_min":-35,"x_max":378,"o":"m 57 0 l 57 1147 l 285 1147 l 285 0 l 57 0 m 235 1207 l 172 1305 l 109 1207 l -35 1207 l 38 1407 l 306 1407 l 378 1207 l 235 1207 z "},"Ï":{"ha":410,"x_min":-83,"x_max":425,"o":"m 57 0 l 57 1147 l 285 1147 l 285 0 l 57 0 m 108 1379 l 108 1211 l -83 1211 l -83 1379 l 108 1379 m 425 1379 l 425 1211 l 235 1211 l 235 1379 l 425 1379 z "},"Ð":{"ha":836,"x_min":-4,"x_max":728,"o":"m 57 646 l 57 1147 l 560 1147 q 678 1102 629 1147 q 728 991 728 1056 l 728 287 q 628 75 728 155 q 393 0 534 0 l 57 0 l 57 502 l -4 502 l -4 646 l 57 646 m 285 646 l 404 646 l 404 502 l 285 502 l 285 212 l 393 212 q 500 287 500 212 l 500 935 l 285 935 l 285 646 z "},"Ñ":{"ha":912,"x_min":57,"x_max":787,"o":"m 285 739 l 285 0 l 57 0 l 57 1147 l 373 1147 l 559 405 l 559 1147 l 787 1147 l 787 0 l 472 0 l 285 739 m 340 1254 q 320 1261 330 1261 q 269 1213 294 1261 l 258 1187 l 179 1239 l 190 1265 q 288 1392 227 1356 q 351 1409 319 1409 q 420 1387 385 1409 l 505 1331 q 525 1324 515 1324 q 576 1373 551 1324 l 587 1398 l 666 1346 l 655 1320 q 557 1194 618 1230 q 495 1176 526 1176 q 425 1200 460 1176 l 340 1254 z "},"Ò":{"ha":838,"x_min":46,"x_max":718,"o":"m 274 935 l 274 212 l 490 212 l 490 935 l 274 935 m 549 1147 q 667 1102 618 1147 q 718 991 718 1056 l 718 157 q 667 45 718 92 q 549 0 618 0 l 214 0 q 96 45 146 0 q 46 157 46 92 l 46 991 q 96 1102 46 1056 q 214 1147 146 1147 l 549 1147 m 330 1192 l 187 1402 l 404 1402 l 479 1192 l 330 1192 z "},"Ó":{"ha":838,"x_min":46,"x_max":718,"o":"m 274 935 l 274 212 l 490 212 l 490 935 l 274 935 m 549 1147 q 667 1102 618 1147 q 718 991 718 1056 l 718 157 q 667 45 718 92 q 549 0 618 0 l 214 0 q 96 45 146 0 q 46 157 46 92 l 46 991 q 96 1102 46 1056 q 214 1147 146 1147 l 549 1147 m 284 1192 l 360 1402 l 576 1402 l 434 1192 l 284 1192 z "},"Ô":{"ha":838,"x_min":46,"x_max":718,"o":"m 274 935 l 274 212 l 490 212 l 490 935 l 274 935 m 549 1147 q 667 1102 618 1147 q 718 991 718 1056 l 718 157 q 667 45 718 92 q 549 0 618 0 l 214 0 q 96 45 146 0 q 46 157 46 92 l 46 991 q 96 1102 46 1056 q 214 1147 146 1147 l 549 1147 m 446 1207 l 382 1305 l 319 1207 l 176 1207 l 249 1407 l 517 1407 l 589 1207 l 446 1207 z "},"Õ":{"ha":838,"x_min":46,"x_max":718,"o":"m 274 935 l 274 212 l 490 212 l 490 935 l 274 935 m 549 1147 q 667 1102 618 1147 q 718 991 718 1056 l 718 157 q 667 45 718 92 q 549 0 618 0 l 214 0 q 96 45 146 0 q 46 157 46 92 l 46 991 q 96 1102 46 1056 q 214 1147 146 1147 l 549 1147 m 300 1254 q 279 1261 290 1261 q 229 1213 253 1261 l 218 1187 l 138 1239 l 149 1265 q 248 1392 186 1356 q 310 1409 279 1409 q 380 1387 345 1409 l 464 1331 q 484 1324 474 1324 q 535 1373 511 1324 l 546 1398 l 625 1346 l 614 1320 q 516 1194 578 1230 q 454 1176 485 1176 q 384 1200 419 1176 l 300 1254 z "},"Ö":{"ha":838,"x_min":46,"x_max":718,"o":"m 274 935 l 274 212 l 490 212 l 490 935 l 274 935 m 549 1147 q 667 1102 618 1147 q 718 991 718 1056 l 718 157 q 667 45 718 92 q 549 0 618 0 l 214 0 q 96 45 146 0 q 46 157 46 92 l 46 991 q 96 1102 46 1056 q 214 1147 146 1147 l 549 1147 m 319 1379 l 319 1211 l 128 1211 l 128 1379 l 319 1379 m 636 1379 l 636 1211 l 446 1211 l 446 1379 l 636 1379 z "},"×":{"ha":761,"x_min":88,"x_max":673,"o":"m 380 762 l 537 919 l 673 783 l 516 627 l 673 470 l 538 334 l 380 492 l 224 334 l 88 470 l 245 627 l 89 783 l 224 919 l 380 762 z "},"Ù":{"ha":842,"x_min":49,"x_max":720,"o":"m 277 212 l 492 212 l 492 1147 l 720 1147 l 720 157 q 670 45 720 92 q 552 0 621 0 l 217 0 q 99 45 149 0 q 49 157 49 92 l 49 1147 l 277 1147 l 277 212 m 332 1192 l 190 1402 l 406 1402 l 482 1192 l 332 1192 z "},"Ú":{"ha":842,"x_min":49,"x_max":720,"o":"m 277 212 l 492 212 l 492 1147 l 720 1147 l 720 157 q 670 45 720 92 q 552 0 621 0 l 217 0 q 99 45 149 0 q 49 157 49 92 l 49 1147 l 277 1147 l 277 212 m 287 1192 l 363 1402 l 579 1402 l 437 1192 l 287 1192 z "},"Û":{"ha":842,"x_min":49,"x_max":720,"o":"m 277 212 l 492 212 l 492 1147 l 720 1147 l 720 157 q 670 45 720 92 q 552 0 621 0 l 217 0 q 99 45 149 0 q 49 157 49 92 l 49 1147 l 277 1147 l 277 212 m 449 1207 l 385 1305 l 322 1207 l 178 1207 l 252 1407 l 519 1407 l 591 1207 l 449 1207 z "},"Ü":{"ha":842,"x_min":49,"x_max":720,"o":"m 277 212 l 492 212 l 492 1147 l 720 1147 l 720 157 q 670 45 720 92 q 552 0 621 0 l 217 0 q 99 45 149 0 q 49 157 49 92 l 49 1147 l 277 1147 l 277 212 m 321 1379 l 321 1211 l 131 1211 l 131 1379 l 321 1379 m 639 1379 l 639 1211 l 448 1211 l 448 1379 l 639 1379 z "},"Ý":{"ha":686,"x_min":-27,"x_max":679,"o":"m 440 393 l 440 0 l 212 0 l 212 392 l -27 1147 l 205 1147 q 326 598 256 980 q 446 1147 397 980 l 679 1147 l 440 393 m 229 1192 l 304 1402 l 521 1402 l 378 1192 l 229 1192 z "},"Þ":{"ha":788,"x_min":94,"x_max":733,"o":"m 311 888 l 311 590 l 414 590 q 516 661 516 590 l 516 888 l 311 888 m 311 1090 l 573 1090 q 685 1047 638 1090 q 733 941 733 1003 l 733 661 q 637 460 733 536 q 414 389 548 389 l 311 389 l 311 -157 l 95 -157 l 94 1237 l 311 1237 l 311 1090 z "},"à":{"ha":768,"x_min":26,"x_max":736,"o":"m 329 422 l 434 422 l 381 887 l 329 422 m 290 221 l 245 0 l 26 0 l 238 1090 l 526 1090 l 736 0 l 517 0 l 474 221 l 290 221 m 329 1135 l 186 1345 l 403 1345 l 479 1135 l 329 1135 z "},"á":{"ha":768,"x_min":26,"x_max":736,"o":"m 329 422 l 434 422 l 381 887 l 329 422 m 290 221 l 245 0 l 26 0 l 238 1090 l 526 1090 l 736 0 l 517 0 l 474 221 l 290 221 m 284 1135 l 360 1345 l 576 1345 l 434 1135 l 284 1135 z "},"â":{"ha":768,"x_min":26,"x_max":736,"o":"m 329 422 l 434 422 l 381 887 l 329 422 m 290 221 l 245 0 l 26 0 l 238 1090 l 526 1090 l 736 0 l 517 0 l 474 221 l 290 221 m 446 1149 l 382 1248 l 319 1149 l 175 1149 l 248 1350 l 516 1350 l 588 1149 l 446 1149 z "},"ã":{"ha":768,"x_min":26,"x_max":736,"o":"m 329 422 l 434 422 l 381 887 l 329 422 m 290 221 l 245 0 l 26 0 l 238 1090 l 526 1090 l 736 0 l 517 0 l 474 221 l 290 221 m 300 1196 q 279 1203 290 1203 q 229 1156 253 1203 l 218 1129 l 138 1181 l 149 1208 q 248 1334 186 1299 q 310 1352 279 1352 q 380 1329 345 1352 l 464 1274 q 484 1267 474 1267 q 535 1315 511 1267 l 546 1341 l 625 1289 l 614 1263 q 516 1136 578 1172 q 454 1118 485 1118 q 384 1142 419 1118 l 300 1196 z "},"ä":{"ha":768,"x_min":26,"x_max":736,"o":"m 329 422 l 434 422 l 381 887 l 329 422 m 290 221 l 245 0 l 26 0 l 238 1090 l 526 1090 l 736 0 l 517 0 l 474 221 l 290 221 m 318 1322 l 318 1154 l 127 1154 l 127 1322 l 318 1322 m 635 1322 l 635 1154 l 445 1154 l 445 1322 l 635 1322 z "},"å":{"ha":768,"x_min":26,"x_max":736,"o":"m 329 422 l 434 422 l 381 887 l 329 422 m 382 1303 q 338 1285 356 1303 q 320 1242 320 1267 q 338 1199 320 1217 q 382 1181 356 1181 q 425 1199 407 1181 q 443 1242 443 1217 q 425 1285 443 1267 q 382 1303 407 1303 m 404 1090 l 526 1090 l 736 0 l 517 0 l 474 221 l 290 221 l 245 0 l 26 0 l 238 1090 l 360 1090 q 273 1134 311 1097 q 229 1242 229 1179 q 273 1351 229 1305 q 382 1396 318 1396 q 490 1351 446 1396 q 535 1242 535 1305 q 490 1134 535 1179 q 404 1090 453 1097 z "},"æ":{"ha":1050,"x_min":-8,"x_max":991,"o":"m 294 422 l 420 422 l 420 911 l 294 422 m 413 221 l 255 221 l 211 0 l -8 0 l 254 1090 l 991 1090 l 991 888 l 630 888 l 630 646 l 930 646 l 930 444 l 630 444 l 630 201 l 991 201 l 991 0 l 413 0 l 413 221 z "},"ç":{"ha":800,"x_min":84,"x_max":722,"o":"m 399 0 l 244 0 q 132 43 179 0 q 84 149 84 87 l 84 941 q 132 1047 84 1003 q 244 1090 179 1090 l 562 1090 q 674 1047 627 1090 q 722 941 722 1003 l 722 722 l 505 722 l 505 888 l 300 888 l 300 201 l 505 201 l 505 368 l 722 368 l 722 149 q 674 43 722 87 q 562 0 627 0 l 467 0 q 502 -23 486 -9 q 553 -129 553 -67 q 502 -234 553 -190 q 378 -277 450 -277 q 254 -233 304 -277 l 299 -161 q 378 -188 353 -188 q 427 -171 406 -188 q 448 -129 448 -153 q 427 -86 448 -104 q 363 -56 413 -75 l 399 0 z "},"è":{"ha":735,"x_min":94,"x_max":671,"o":"m 311 201 l 671 201 l 671 0 l 94 0 l 94 1090 l 671 1090 l 671 888 l 311 888 l 311 646 l 611 646 l 611 444 l 311 444 l 311 201 m 330 1135 l 188 1345 l 404 1345 l 480 1135 l 330 1135 z "},"é":{"ha":735,"x_min":94,"x_max":671,"o":"m 311 201 l 671 201 l 671 0 l 94 0 l 94 1090 l 671 1090 l 671 888 l 311 888 l 311 646 l 611 646 l 611 444 l 311 444 l 311 201 m 286 1135 l 361 1345 l 578 1345 l 435 1135 l 286 1135 z "},"ê":{"ha":735,"x_min":94,"x_max":671,"o":"m 311 201 l 671 201 l 671 0 l 94 0 l 94 1090 l 671 1090 l 671 888 l 311 888 l 311 646 l 611 646 l 611 444 l 311 444 l 311 201 m 447 1149 l 383 1248 l 320 1149 l 176 1149 l 250 1350 l 517 1350 l 589 1149 l 447 1149 z "},"ë":{"ha":735,"x_min":94,"x_max":671,"o":"m 311 201 l 671 201 l 671 0 l 94 0 l 94 1090 l 671 1090 l 671 888 l 311 888 l 311 646 l 611 646 l 611 444 l 311 444 l 311 201 m 319 1322 l 319 1154 l 129 1154 l 129 1322 l 319 1322 m 637 1322 l 637 1154 l 446 1154 l 446 1322 l 637 1322 z "},"ì":{"ha":431,"x_min":8,"x_max":311,"o":"m 95 0 l 95 1090 l 311 1090 l 311 0 l 95 0 m 151 1135 l 8 1345 l 224 1345 l 300 1135 l 151 1135 z "},"í":{"ha":431,"x_min":95,"x_max":398,"o":"m 95 0 l 95 1090 l 311 1090 l 311 0 l 95 0 m 106 1135 l 182 1345 l 398 1345 l 256 1135 l 106 1135 z "},"î":{"ha":431,"x_min":-3,"x_max":410,"o":"m 95 0 l 95 1090 l 311 1090 l 311 0 l 95 0 m 267 1149 l 203 1248 l 140 1149 l -3 1149 l 70 1350 l 338 1350 l 410 1149 l 267 1149 z "},"ï":{"ha":431,"x_min":-51,"x_max":457,"o":"m 95 0 l 95 1090 l 311 1090 l 311 0 l 95 0 m 140 1322 l 140 1154 l -51 1154 l -51 1322 l 140 1322 m 457 1322 l 457 1154 l 267 1154 l 267 1322 l 457 1322 z "},"ñ":{"ha":909,"x_min":95,"x_max":789,"o":"m 311 702 l 311 0 l 95 0 l 95 1090 l 395 1090 l 572 385 l 572 1090 l 789 1090 l 789 0 l 489 0 l 311 702 m 360 1196 q 340 1203 350 1203 q 289 1156 313 1203 l 278 1129 l 199 1181 l 210 1208 q 308 1334 246 1299 q 370 1352 339 1352 q 440 1329 405 1352 l 524 1274 q 545 1267 534 1267 q 595 1315 571 1267 l 606 1341 l 686 1289 l 675 1263 q 576 1136 638 1172 q 515 1118 545 1118 q 444 1142 479 1118 l 360 1196 z "},"ò":{"ha":836,"x_min":84,"x_max":722,"o":"m 300 888 l 300 201 l 505 201 l 505 888 l 300 888 m 562 1090 q 674 1047 627 1090 q 722 941 722 1003 l 722 149 q 674 43 722 87 q 562 0 627 0 l 244 0 q 132 43 179 0 q 84 149 84 87 l 84 941 q 132 1047 84 1003 q 244 1090 179 1090 l 562 1090 m 351 1135 l 208 1345 l 425 1345 l 500 1135 l 351 1135 z "},"ó":{"ha":836,"x_min":84,"x_max":722,"o":"m 300 888 l 300 201 l 505 201 l 505 888 l 300 888 m 562 1090 q 674 1047 627 1090 q 722 941 722 1003 l 722 149 q 674 43 722 87 q 562 0 627 0 l 244 0 q 132 43 179 0 q 84 149 84 87 l 84 941 q 132 1047 84 1003 q 244 1090 179 1090 l 562 1090 m 306 1135 l 382 1345 l 598 1345 l 456 1135 l 306 1135 z "},"ô":{"ha":836,"x_min":84,"x_max":722,"o":"m 300 888 l 300 201 l 505 201 l 505 888 l 300 888 m 562 1090 q 674 1047 627 1090 q 722 941 722 1003 l 722 149 q 674 43 722 87 q 562 0 627 0 l 244 0 q 132 43 179 0 q 84 149 84 87 l 84 941 q 132 1047 84 1003 q 244 1090 179 1090 l 562 1090 m 467 1149 l 404 1248 l 340 1149 l 197 1149 l 270 1350 l 538 1350 l 610 1149 l 467 1149 z "},"õ":{"ha":836,"x_min":84,"x_max":722,"o":"m 300 888 l 300 201 l 505 201 l 505 888 l 300 888 m 562 1090 q 674 1047 627 1090 q 722 941 722 1003 l 722 149 q 674 43 722 87 q 562 0 627 0 l 244 0 q 132 43 179 0 q 84 149 84 87 l 84 941 q 132 1047 84 1003 q 244 1090 179 1090 l 562 1090 m 321 1196 q 301 1203 311 1203 q 250 1156 275 1203 l 239 1129 l 160 1181 l 171 1208 q 269 1334 208 1299 q 332 1352 300 1352 q 401 1329 366 1352 l 486 1274 q 506 1267 496 1267 q 557 1315 532 1267 l 568 1341 l 647 1289 l 636 1263 q 538 1136 600 1172 q 476 1118 507 1118 q 406 1142 441 1118 l 321 1196 z "},"ö":{"ha":836,"x_min":84,"x_max":722,"o":"m 300 888 l 300 201 l 505 201 l 505 888 l 300 888 m 562 1090 q 674 1047 627 1090 q 722 941 722 1003 l 722 149 q 674 43 722 87 q 562 0 627 0 l 244 0 q 132 43 179 0 q 84 149 84 87 l 84 941 q 132 1047 84 1003 q 244 1090 179 1090 l 562 1090 m 340 1322 l 340 1154 l 149 1154 l 149 1322 l 340 1322 m 657 1322 l 657 1154 l 467 1154 l 467 1322 l 657 1322 z "},"÷":{"ha":838,"x_min":102,"x_max":736,"o":"m 736 531 l 102 531 l 102 723 l 736 723 l 736 531 m 539 400 l 539 188 l 299 188 l 299 400 l 539 400 m 539 1066 l 539 854 l 299 854 l 299 1066 l 539 1066 z "},"ø":{"ha":836,"x_min":84,"x_max":722,"o":"m 300 888 l 300 201 l 505 201 l 505 888 l 300 888 m 366 1090 l 378 1174 l 561 1174 l 549 1090 l 562 1090 q 674 1047 627 1090 q 722 941 722 1003 l 722 149 q 674 43 722 87 q 562 0 627 0 l 425 0 l 414 -81 l 232 -81 l 243 0 q 132 43 178 1 q 84 149 84 87 l 84 941 q 132 1047 84 1003 q 244 1090 179 1090 l 366 1090 z "},"ù":{"ha":845,"x_min":90,"x_max":728,"o":"m 306 201 l 511 201 l 511 1090 l 728 1090 l 728 149 q 680 43 728 87 q 568 0 633 0 l 250 0 q 137 43 184 0 q 90 149 90 87 l 90 1090 l 306 1090 l 306 201 m 356 1135 l 214 1345 l 430 1345 l 506 1135 l 356 1135 z "},"ú":{"ha":845,"x_min":90,"x_max":728,"o":"m 306 201 l 511 201 l 511 1090 l 728 1090 l 728 149 q 680 43 728 87 q 568 0 633 0 l 250 0 q 137 43 184 0 q 90 149 90 87 l 90 1090 l 306 1090 l 306 201 m 311 1135 l 387 1345 l 604 1345 l 461 1135 l 311 1135 z "},"û":{"ha":845,"x_min":90,"x_max":728,"o":"m 306 201 l 511 201 l 511 1090 l 728 1090 l 728 149 q 680 43 728 87 q 568 0 633 0 l 250 0 q 137 43 184 0 q 90 149 90 87 l 90 1090 l 306 1090 l 306 201 m 473 1149 l 409 1248 l 346 1149 l 202 1149 l 275 1350 l 543 1350 l 615 1149 l 473 1149 z "},"ü":{"ha":845,"x_min":90,"x_max":728,"o":"m 306 201 l 511 201 l 511 1090 l 728 1090 l 728 149 q 680 43 728 87 q 568 0 633 0 l 250 0 q 137 43 184 0 q 90 149 90 87 l 90 1090 l 306 1090 l 306 201 m 345 1322 l 345 1154 l 155 1154 l 155 1322 l 345 1322 m 663 1322 l 663 1154 l 472 1154 l 472 1322 l 663 1322 z "},"ý":{"ha":687,"x_min":5,"x_max":676,"o":"m 450 373 l 450 0 l 233 0 l 233 372 l 5 1090 l 227 1090 q 340 568 274 931 q 455 1090 408 931 l 676 1090 l 450 373 m 243 1135 l 319 1345 l 536 1345 l 393 1135 l 243 1135 z "},"þ":{"ha":788,"x_min":94,"x_max":733,"o":"m 311 888 l 311 590 l 414 590 q 516 661 516 590 l 516 888 l 311 888 m 311 1090 l 573 1090 q 685 1047 638 1090 q 733 941 733 1003 l 733 661 q 637 460 733 536 q 414 389 548 389 l 311 389 l 311 -157 l 95 -157 l 94 1237 l 311 1237 l 311 1090 z "},"ÿ":{"ha":687,"x_min":5,"x_max":676,"o":"m 450 373 l 450 0 l 233 0 l 233 372 l 5 1090 l 227 1090 q 340 568 274 931 q 455 1090 408 931 l 676 1090 l 450 373 m 277 1322 l 277 1154 l 87 1154 l 87 1322 l 277 1322 m 595 1322 l 595 1154 l 404 1154 l 404 1322 l 595 1322 z "},"ı":{"ha":431,"x_min":95,"x_max":311,"o":"m 95 0 l 95 1090 l 311 1090 l 311 0 l 95 0 z "},"ˆ":{"ha":616,"x_min":102,"x_max":515,"o":"m 372 1149 l 309 1248 l 245 1149 l 102 1149 l 175 1350 l 443 1350 l 515 1149 l 372 1149 z "},"ˇ":{"ha":616,"x_min":102,"x_max":515,"o":"m 515 1350 l 443 1149 l 175 1149 l 102 1350 l 245 1350 l 309 1251 l 372 1350 l 515 1350 z "},"ˉ":{"ha":554,"x_min":102,"x_max":452,"o":"m 452 1319 l 452 1173 l 102 1173 l 102 1319 l 452 1319 z "},"˘":{"ha":616,"x_min":102,"x_max":515,"o":"m 515 1350 q 309 1149 443 1149 q 102 1350 175 1149 l 245 1350 q 309 1289 277 1289 q 372 1350 340 1289 l 515 1350 z "},"˙":{"ha":394,"x_min":102,"x_max":292,"o":"m 292 1322 l 292 1173 l 102 1173 l 102 1322 l 292 1322 z "},"˚":{"ha":510,"x_min":102,"x_max":408,"o":"m 255 1396 q 363 1351 319 1396 q 408 1242 408 1305 q 363 1134 408 1179 q 255 1088 319 1088 q 146 1134 191 1088 q 102 1242 102 1179 q 146 1351 102 1305 q 255 1396 191 1396 m 255 1303 q 211 1285 229 1303 q 193 1242 193 1267 q 211 1199 193 1217 q 255 1181 229 1181 q 298 1199 280 1181 q 316 1242 316 1217 q 298 1285 316 1267 q 255 1303 280 1303 z "},"˛":{"ha":450,"x_min":107,"x_max":349,"o":"m 304 -52 q 229 -85 247 -68 q 205 -128 208 -103 q 205 -135 205 -132 q 220 -170 205 -155 q 260 -184 236 -184 l 264 -184 q 331 -164 282 -183 l 349 -243 q 254 -275 306 -272 l 244 -275 q 144 -237 184 -275 q 107 -151 107 -202 q 109 -134 107 -142 q 167 -25 115 -72 q 286 26 219 22 l 304 -52 z "},"˜":{"ha":690,"x_min":102,"x_max":589,"o":"m 263 1196 q 243 1203 253 1203 q 192 1156 216 1203 l 181 1129 l 102 1181 l 113 1208 q 211 1334 149 1299 q 273 1352 242 1352 q 343 1329 308 1352 l 427 1274 q 448 1267 437 1267 q 498 1315 474 1267 l 509 1341 l 589 1289 l 578 1263 q 479 1136 541 1172 q 418 1118 448 1118 q 347 1142 382 1118 l 263 1196 z "},"˝":{"ha":694,"x_min":-45,"x_max":540,"o":"m -45 1135 l 31 1345 l 248 1345 l 105 1135 l -45 1135 m 248 1135 l 323 1345 l 540 1345 l 397 1135 l 248 1135 z "},"–":{"ha":932,"x_min":0,"x_max":932,"o":"m 932 449 l 0 449 l 0 641 l 932 641 l 932 449 z "},"—":{"ha":1436,"x_min":0,"x_max":1436,"o":"m 1436 449 l 0 449 l 0 641 l 1436 641 l 1436 449 z "},"‘":{"ha":444,"x_min":102,"x_max":342,"o":"m 102 803 l 102 1015 l 271 1255 l 271 1015 l 342 1015 l 342 803 l 102 803 z "},"’":{"ha":444,"x_min":102,"x_max":342,"o":"m 342 1154 l 342 942 l 172 702 l 172 942 l 102 942 l 102 1154 l 342 1154 z "},"‚":{"ha":444,"x_min":102,"x_max":342,"o":"m 342 214 l 342 1 l 172 -239 l 172 1 l 102 1 l 102 214 l 342 214 z "},"“":{"ha":780,"x_min":102,"x_max":678,"o":"m 102 803 l 102 1015 l 271 1255 l 271 1015 l 342 1015 l 342 803 l 102 803 m 438 803 l 438 1015 l 608 1255 l 608 1015 l 678 1015 l 678 803 l 438 803 z "},"”":{"ha":780,"x_min":102,"x_max":678,"o":"m 342 1154 l 342 942 l 172 702 l 172 942 l 102 942 l 102 1154 l 342 1154 m 678 1154 l 678 942 l 509 702 l 509 942 l 438 942 l 438 1154 l 678 1154 z "},"„":{"ha":780,"x_min":102,"x_max":678,"o":"m 342 226 l 342 14 l 172 -227 l 172 14 l 102 14 l 102 226 l 342 226 m 678 226 l 678 14 l 509 -227 l 509 14 l 438 14 l 438 226 l 678 226 z "},"†":{"ha":896,"x_min":102,"x_max":794,"o":"m 562 690 l 562 0 l 334 0 l 334 690 l 102 690 l 102 918 l 334 918 l 334 1147 l 562 1147 l 562 918 l 794 918 l 794 690 l 562 690 z "},"‡":{"ha":896,"x_min":102,"x_max":794,"o":"m 334 918 l 334 1147 l 562 1147 l 562 918 l 794 918 l 794 690 l 562 690 l 562 437 l 794 437 l 794 209 l 562 209 l 562 0 l 334 0 l 334 209 l 102 209 l 102 437 l 334 437 l 334 690 l 102 690 l 102 918 l 334 918 z "},"•":{"ha":537,"x_min":36,"x_max":491,"o":"m 263 772 q 424 705 357 772 q 491 544 491 638 q 424 383 491 450 q 263 316 357 316 q 102 383 169 316 q 36 544 36 450 q 102 705 36 638 q 263 772 169 772 z "},"…":{"ha":1389,"x_min":88,"x_max":1255,"o":"m 328 213 l 328 1 l 88 1 l 88 213 l 328 213 m 791 213 l 791 1 l 551 1 l 551 213 l 791 213 m 1255 213 l 1255 1 l 1015 1 l 1015 213 l 1255 213 z "},"‹":{"ha":534,"x_min":102,"x_max":432,"o":"m 102 642 l 432 866 l 432 707 l 254 544 l 432 381 l 432 222 l 102 446 l 102 642 z "},"›":{"ha":534,"x_min":102,"x_max":432,"o":"m 432 446 l 102 222 l 102 381 l 279 544 l 102 707 l 102 866 l 432 642 l 432 446 z "},"₤":{"ha":922,"x_min":102,"x_max":820,"o":"m 212 770 l 212 861 q 313 1072 212 992 q 548 1147 407 1147 l 789 1147 l 789 935 l 548 935 q 440 861 440 935 l 440 770 l 653 770 l 653 615 l 440 615 l 440 503 l 653 503 l 653 349 l 440 349 q 403 212 439 271 l 820 212 l 820 0 l 106 0 l 106 212 q 214 287 214 212 l 214 349 l 102 349 l 102 503 l 214 503 l 214 518 l 212 518 l 212 615 l 102 615 l 102 770 l 212 770 z "},"₧":{"ha":1711,"x_min":57,"x_max":1618,"o":"m 262 935 l 262 621 l 359 621 q 456 695 456 621 l 456 935 l 262 935 m 661 888 l 661 695 q 570 484 661 564 q 359 409 486 409 l 262 409 l 262 0 l 57 0 l 57 1147 l 509 1147 q 616 1102 571 1147 q 627 1090 622 1096 l 1458 1090 q 1570 1047 1523 1090 q 1618 941 1618 1003 l 1618 722 l 1401 722 l 1401 888 l 1196 888 l 1196 716 q 1299 646 1196 646 q 1522 574 1433 646 q 1618 374 1618 498 l 1618 149 q 1570 43 1618 87 q 1458 0 1523 0 l 1140 0 q 1027 43 1075 0 q 980 149 980 87 l 980 368 l 1196 368 l 1196 201 l 1401 201 l 1401 374 q 1299 444 1401 444 q 1076 515 1165 444 q 980 716 980 591 l 980 888 l 928 888 l 928 0 l 713 0 l 713 888 l 661 888 z "},"€":{"ha":793,"x_min":46,"x_max":717,"o":"m 340 386 l 340 212 l 524 212 l 524 388 l 717 388 l 717 157 q 674 45 717 92 q 574 0 632 0 l 290 0 q 189 45 231 0 q 146 157 146 92 l 146 386 l 46 386 l 46 530 l 146 530 l 146 631 l 46 631 l 46 776 l 146 776 l 146 991 q 189 1102 146 1056 q 290 1147 231 1147 l 574 1147 q 674 1102 632 1147 q 717 991 717 1056 l 717 760 l 524 760 l 524 935 l 340 935 l 340 776 l 467 776 l 467 631 l 340 631 l 340 530 l 467 530 l 467 386 l 340 386 z "},"™":{"ha":885,"x_min":-15,"x_max":760,"o":"m 288 1005 l 187 1005 l 187 631 l 85 631 l 85 1005 l -15 1005 l -15 1090 l 430 1090 l 524 717 l 618 1090 l 760 1090 l 760 631 l 658 631 l 658 933 l 587 631 l 462 631 l 390 933 l 390 631 l 288 631 l 288 1005 z "},"−":{"ha":776,"x_min":71,"x_max":705,"o":"m 705 531 l 71 531 l 71 723 l 705 723 l 705 531 z "},"≈":{"ha":888,"x_min":102,"x_max":787,"o":"m 329 631 q 300 639 315 639 q 229 587 263 639 l 214 557 l 102 615 l 117 644 q 256 783 168 745 q 343 803 299 803 q 441 778 392 803 l 559 717 q 588 709 574 709 q 660 762 625 709 l 675 791 l 787 733 l 772 705 q 633 565 720 604 q 546 545 589 545 q 447 571 496 545 l 329 631 m 329 374 q 300 381 315 381 q 229 329 263 381 l 214 300 l 102 357 l 117 387 q 256 526 168 487 q 343 545 299 545 q 441 520 392 545 l 559 459 q 588 452 574 452 q 660 505 625 452 l 675 533 l 787 475 l 772 447 q 633 307 720 347 q 546 288 589 288 q 447 313 496 288 l 329 374 z "},"≤":{"ha":776,"x_min":71,"x_max":705,"o":"m 264 610 l 705 480 l 705 288 l 71 513 l 71 708 l 705 932 l 705 741 l 264 610 m 705 0 l 71 0 l 71 192 l 705 192 l 705 0 z "},"≥":{"ha":776,"x_min":71,"x_max":705,"o":"m 71 741 l 71 932 l 705 708 l 705 513 l 71 288 l 71 480 l 512 610 l 71 741 m 705 0 l 71 0 l 71 192 l 705 192 l 705 0 z "},"ȷ":{"ha":562,"x_min":16,"x_max":451,"o":"m 132 201 q 235 273 235 201 l 235 1090 l 451 1090 l 451 273 q 356 71 451 148 q 132 0 266 0 l 16 0 l 16 201 l 132 201 z "},"ʻ":{"ha":372,"x_min":102,"x_max":270,"o":"m 102 1232 l 102 1380 l 220 1548 l 220 1380 l 270 1380 l 270 1232 l 102 1232 z "},"ʼ":{"ha":372,"x_min":102,"x_max":270,"o":"m 270 1548 l 270 1400 l 151 1232 l 151 1400 l 102 1400 l 102 1548 l 270 1548 z "},"ˊ":{"ha":496,"x_min":102,"x_max":394,"o":"m 102 1135 l 178 1345 l 394 1345 l 252 1135 l 102 1135 z "},"ˋ":{"ha":496,"x_min":102,"x_max":394,"o":"m 244 1135 l 102 1345 l 318 1345 l 394 1135 l 244 1135 z "},"ˍ":{"ha":844,"x_min":102,"x_max":742,"o":"m 742 -44 l 742 -190 l 102 -190 l 102 -44 l 742 -44 z "},"˷":{"ha":690,"x_min":102,"x_max":589,"o":"m 263 -39 q 243 -32 253 -32 q 192 -79 216 -32 l 181 -106 l 102 -54 l 113 -27 q 211 99 149 64 q 273 117 242 117 q 343 94 308 117 l 427 39 q 448 32 437 32 q 498 80 474 32 l 509 106 l 589 54 l 578 28 q 479 -99 541 -63 q 418 -117 448 -117 q 347 -93 382 -117 l 263 -39 z "},"̀":{"ha":0,"x_min":-475,"x_max":-182,"o":"m -332 1135 l -475 1345 l -258 1345 l -182 1135 l -332 1135 z "},"́":{"ha":0,"x_min":-454,"x_max":-162,"o":"m -454 1135 l -378 1345 l -162 1345 l -304 1135 l -454 1135 z "},"̂":{"ha":0,"x_min":-536,"x_max":-123,"o":"m -265 1149 l -329 1248 l -392 1149 l -536 1149 l -463 1350 l -195 1350 l -123 1149 l -265 1149 z "},"̃":{"ha":0,"x_min":-515,"x_max":-28,"o":"m -354 1196 q -374 1203 -364 1203 q -425 1156 -401 1203 l -436 1129 l -515 1181 l -505 1208 q -406 1334 -468 1299 q -344 1352 -375 1352 q -274 1329 -309 1352 l -190 1274 q -170 1267 -180 1267 q -119 1315 -143 1267 l -108 1341 l -28 1289 l -39 1263 q -138 1136 -76 1172 q -199 1118 -169 1118 q -270 1142 -235 1118 l -354 1196 z "},"̄":{"ha":0,"x_min":-502,"x_max":-151,"o":"m -151 1319 l -151 1173 l -502 1173 l -502 1319 l -151 1319 z "},"̅":{"ha":0,"x_min":975,"x_max":1746,"o":"m 1746 1234 l 975 1234 l 975 1379 l 1746 1379 l 1746 1234 z "},"̆":{"ha":0,"x_min":-515,"x_max":-102,"o":"m -102 1350 q -308 1149 -174 1149 q -515 1350 -442 1149 l -372 1350 q -309 1289 -340 1289 q -245 1350 -277 1289 l -102 1350 z "},"̇":{"ha":0,"x_min":-414,"x_max":-223,"o":"m -223 1322 l -223 1173 l -414 1173 l -414 1322 l -223 1322 z "},"̈":{"ha":0,"x_min":-522,"x_max":-14,"o":"m -332 1322 l -332 1154 l -522 1154 l -522 1322 l -332 1322 m -14 1322 l -14 1154 l -205 1154 l -205 1322 l -14 1322 z "},"̐":{"ha":0,"x_min":-724,"x_max":-311,"o":"m -311 1350 q -516 1149 -382 1149 q -724 1350 -650 1149 l -580 1350 q -517 1289 -548 1289 q -453 1350 -485 1289 l -311 1350 m -431 1483 l -431 1357 l -591 1357 l -591 1483 l -431 1483 z "},"̕":{"ha":372,"x_min":34,"x_max":202,"o":"m 202 1090 l 202 941 l 83 773 l 83 941 l 34 941 l 34 1090 l 202 1090 z "},"̣":{"ha":0,"x_min":-380,"x_max":-176,"o":"m -176 -35 l -176 -215 l -380 -215 l -380 -35 l -176 -35 z "},"̤":{"ha":0,"x_min":-475,"x_max":33,"o":"m -284 -55 l -284 -223 l -475 -223 l -475 -55 l -284 -55 m 33 -55 l 33 -223 l -157 -223 l -157 -55 l 33 -55 z "},"̥":{"ha":0,"x_min":-407,"x_max":-100,"o":"m -254 27 q -145 -18 -190 27 q -100 -127 -100 -63 q -145 -235 -100 -190 q -254 -280 -190 -280 q -362 -235 -317 -280 q -407 -127 -407 -190 q -362 -18 -407 -63 q -254 27 -317 27 m -254 -65 q -297 -83 -279 -65 q -315 -127 -315 -101 q -297 -170 -315 -152 q -254 -188 -279 -188 q -211 -170 -229 -188 q -193 -127 -193 -152 q -211 -83 -193 -101 q -254 -65 -229 -65 z "},"̦":{"ha":0,"x_min":-359,"x_max":-168,"o":"m -168 -9 l -168 -136 l -303 -280 l -303 -136 l -359 -136 l -359 -9 l -168 -9 z "},"ª":{"ha":526,"x_min":26,"x_max":495,"o":"m 226 747 l 295 747 l 260 1026 l 226 747 m 200 626 l 171 494 l 26 494 l 166 1148 l 356 1148 l 495 494 l 350 494 l 322 626 l 200 626 m 453 205 l 68 205 l 68 349 l 453 349 l 453 205 z "},"¬":{"ha":776,"x_min":71,"x_max":705,"o":"m 513 531 l 71 531 l 71 723 l 705 723 l 705 344 l 513 344 l 513 531 z "},"²":{"ha":696,"x_min":130,"x_max":567,"o":"m 289 493 l 567 493 l 567 345 l 130 345 l 130 620 q 191 767 130 712 q 349 821 251 821 q 393 831 380 821 q 408 872 408 842 l 408 999 l 289 999 l 289 876 l 130 876 l 130 1038 q 165 1116 130 1084 q 248 1147 199 1147 l 448 1147 q 532 1116 497 1147 q 567 1038 567 1084 l 567 872 q 506 725 567 780 q 349 671 446 671 q 303 661 316 671 q 289 620 289 650 l 289 493 z "},"³":{"ha":696,"x_min":118,"x_max":555,"o":"m 396 999 l 277 999 l 277 876 l 118 876 l 118 1038 q 153 1116 118 1084 q 236 1147 188 1147 l 437 1147 q 520 1116 486 1147 q 555 1038 555 1084 l 555 872 q 509 746 555 794 q 555 620 555 698 l 555 454 q 520 376 555 408 q 437 345 486 345 l 236 345 q 153 376 188 345 q 118 454 118 408 l 118 616 l 277 616 l 277 493 l 396 493 l 396 620 q 382 661 396 650 q 337 671 369 671 l 258 671 l 258 821 l 337 821 q 382 831 369 821 q 396 872 396 842 l 396 999 z "},"µ":{"ha":845,"x_min":90,"x_max":728,"o":"m 90 1090 l 306 1090 l 306 201 l 511 201 l 511 1090 l 728 1090 l 728 149 q 680 43 728 87 q 568 0 633 0 l 306 0 l 306 -172 l 90 -172 l 90 1090 z "},"¹":{"ha":696,"x_min":146,"x_max":584,"o":"m 445 493 l 584 493 l 584 345 l 146 345 l 146 493 l 286 493 l 286 999 l 146 999 l 146 1147 l 327 1147 q 410 1116 375 1147 q 445 1038 445 1084 l 445 493 z "},"º":{"ha":619,"x_min":84,"x_max":505,"o":"m 227 1027 l 227 615 l 362 615 l 362 1027 l 227 1027 m 400 1148 q 473 1122 442 1148 q 505 1058 505 1095 l 505 583 q 473 520 505 546 q 400 494 442 494 l 190 494 q 115 520 147 494 q 84 583 84 546 l 84 1058 q 115 1122 84 1095 q 190 1148 147 1148 l 400 1148 m 487 205 l 102 205 l 102 349 l 487 349 l 487 205 z "},"¼":{"ha":1796,"x_min":146,"x_max":1719,"o":"m 445 493 l 584 493 l 584 345 l 146 345 l 146 493 l 286 493 l 286 999 l 146 999 l 146 1147 l 327 1147 q 410 1116 375 1147 q 445 1038 445 1084 l 445 493 m 614 0 l 1038 1147 l 1215 1147 l 791 0 l 614 0 m 1497 330 l 1497 803 l 1656 803 l 1656 330 l 1719 330 l 1719 182 l 1656 182 l 1656 0 l 1497 0 l 1497 182 l 1323 182 q 1240 213 1275 182 q 1205 291 1205 245 l 1278 803 l 1426 803 l 1366 330 l 1497 330 z "},"½":{"ha":1830,"x_min":146,"x_max":1701,"o":"m 445 493 l 584 493 l 584 345 l 146 345 l 146 493 l 286 493 l 286 999 l 146 999 l 146 1147 l 327 1147 q 410 1116 375 1147 q 445 1038 445 1084 l 445 493 m 614 0 l 1038 1147 l 1215 1147 l 791 0 l 614 0 m 1423 149 l 1701 149 l 1701 0 l 1263 0 l 1263 275 q 1324 422 1263 368 q 1482 476 1385 476 q 1527 486 1514 476 q 1541 528 1541 498 l 1541 654 l 1423 654 l 1423 532 l 1263 532 l 1263 693 q 1299 771 1263 739 q 1381 803 1333 803 l 1582 803 q 1666 771 1631 803 q 1701 693 1701 739 l 1701 528 q 1640 380 1701 435 q 1482 327 1580 327 q 1437 317 1450 327 q 1423 275 1423 305 l 1423 149 z "},"¾":{"ha":1796,"x_min":118,"x_max":1719,"o":"m 396 999 l 277 999 l 277 876 l 118 876 l 118 1038 q 153 1116 118 1084 q 236 1147 188 1147 l 437 1147 q 520 1116 486 1147 q 555 1038 555 1084 l 555 872 q 509 746 555 794 q 555 620 555 698 l 555 454 q 520 376 555 408 q 437 345 486 345 l 236 345 q 153 376 188 345 q 118 454 118 408 l 118 616 l 277 616 l 277 493 l 396 493 l 396 620 q 382 661 396 650 q 337 671 369 671 l 258 671 l 258 821 l 337 821 q 382 831 369 821 q 396 872 396 842 l 396 999 m 614 0 l 1038 1147 l 1215 1147 l 791 0 l 614 0 m 1497 330 l 1497 803 l 1656 803 l 1656 330 l 1719 330 l 1719 182 l 1656 182 l 1656 0 l 1497 0 l 1497 182 l 1323 182 q 1240 213 1275 182 q 1205 291 1205 245 l 1278 803 l 1426 803 l 1366 330 l 1497 330 z "},"Ø":{"ha":838,"x_min":46,"x_max":718,"o":"m 410 212 l 490 212 l 490 935 l 483 935 l 410 212 m 274 350 l 334 935 l 274 935 l 274 350 m 388 0 l 372 -159 l 222 -159 l 239 0 l 214 0 q 96 45 146 0 q 46 157 46 92 l 46 991 q 96 1102 46 1056 q 214 1147 146 1147 l 355 1147 l 367 1266 l 517 1266 l 505 1147 l 549 1147 q 667 1102 618 1147 q 718 991 718 1056 l 718 157 q 667 45 718 92 q 549 0 618 0 l 388 0 z "},"ß":{"ha":827,"x_min":57,"x_max":728,"o":"m 728 225 q 628 14 728 94 q 491 -31 573 -31 q 360 -8 432 -31 l 360 204 q 453 182 419 182 q 500 225 500 182 l 500 393 q 418 459 500 451 q 334 566 335 467 l 334 569 q 403 673 334 664 q 473 754 473 682 l 473 861 q 378 935 473 930 q 285 861 285 930 l 285 0 l 57 0 l 57 861 q 157 1072 57 992 q 380 1146 269 1146 q 600 1072 491 1146 q 701 861 701 992 l 701 754 q 626 585 701 650 q 728 393 728 517 l 728 225 z "},"ð":{"ha":883,"x_min":138,"x_max":817,"o":"m 534 374 q 514 433 534 416 q 450 448 496 448 q 386 433 404 448 q 366 374 366 416 l 366 212 l 534 212 l 534 374 m 427 920 q 283 994 370 973 l 334 1147 q 631 976 526 1107 l 777 1016 l 817 871 l 709 842 q 762 515 762 707 l 762 224 q 712 45 762 92 q 594 0 663 0 l 307 0 q 188 45 237 0 q 138 157 138 92 l 138 374 q 250 604 138 532 q 372 640 306 640 q 534 592 447 640 q 507 787 534 705 l 307 732 l 267 876 l 427 920 z "},"Ā":{"ha":777,"x_min":-8,"x_max":739,"o":"m 310 445 l 421 445 l 366 934 l 310 445 m 269 233 l 222 0 l -8 0 l 214 1147 l 517 1147 l 739 0 l 508 0 l 463 233 l 269 233 m 541 1377 l 541 1231 l 191 1231 l 191 1377 l 541 1377 z "},"ā":{"ha":768,"x_min":26,"x_max":736,"o":"m 329 422 l 434 422 l 381 887 l 329 422 m 290 221 l 245 0 l 26 0 l 238 1090 l 526 1090 l 736 0 l 517 0 l 474 221 l 290 221 m 557 1319 l 557 1173 l 206 1173 l 206 1319 l 557 1319 z "},"Ă":{"ha":777,"x_min":-8,"x_max":739,"o":"m 310 445 l 421 445 l 366 934 l 310 445 m 269 233 l 222 0 l -8 0 l 214 1147 l 517 1147 l 739 0 l 508 0 l 463 233 l 269 233 m 572 1407 q 367 1207 500 1207 q 159 1407 233 1207 l 303 1407 q 366 1347 335 1347 q 430 1407 398 1347 l 572 1407 z "},"ă":{"ha":768,"x_min":26,"x_max":736,"o":"m 329 422 l 434 422 l 381 887 l 329 422 m 290 221 l 245 0 l 26 0 l 238 1090 l 526 1090 l 736 0 l 517 0 l 474 221 l 290 221 m 588 1350 q 382 1149 516 1149 q 175 1350 248 1149 l 319 1350 q 382 1289 351 1289 q 446 1350 414 1289 l 588 1350 z "},"Ą":{"ha":777,"x_min":-8,"x_max":795,"o":"m 310 445 l 421 445 l 366 934 l 310 445 m 648 0 l 508 0 l 463 233 l 269 233 l 222 0 l -8 0 l 214 1147 l 517 1147 l 739 0 l 751 -52 q 675 -85 694 -68 q 652 -128 655 -103 q 652 -135 652 -132 q 667 -170 652 -155 q 707 -184 683 -184 l 711 -184 q 778 -164 729 -183 l 795 -243 q 701 -275 753 -272 l 691 -275 q 591 -237 631 -275 q 554 -151 554 -202 q 555 -134 554 -142 q 614 -25 562 -72 q 648 0 630 -10 z "},"ą":{"ha":768,"x_min":26,"x_max":793,"o":"m 329 422 l 434 422 l 381 887 l 329 422 m 646 0 l 517 0 l 474 221 l 290 221 l 245 0 l 26 0 l 238 1090 l 526 1090 l 734 16 l 749 -52 q 673 -85 692 -68 q 650 -128 653 -103 q 650 -135 650 -132 q 665 -170 650 -155 q 705 -184 681 -184 l 709 -184 q 776 -164 727 -183 l 793 -243 q 699 -275 751 -272 l 689 -275 q 589 -237 629 -275 q 552 -151 552 -202 q 553 -134 552 -142 q 612 -25 559 -72 q 646 0 628 -10 z "},"Ć":{"ha":794,"x_min":46,"x_max":718,"o":"m 490 935 l 274 935 l 274 212 l 490 212 l 490 388 l 718 388 l 718 157 q 667 45 718 92 q 549 0 618 0 l 214 0 q 96 45 146 0 q 46 157 46 92 l 46 991 q 96 1102 46 1056 q 214 1147 146 1147 l 549 1147 q 667 1102 618 1147 q 718 991 718 1056 l 718 760 l 490 760 l 490 935 m 284 1192 l 360 1402 l 576 1402 l 434 1192 l 284 1192 z "},"ć":{"ha":800,"x_min":84,"x_max":722,"o":"m 505 888 l 300 888 l 300 201 l 505 201 l 505 368 l 722 368 l 722 149 q 674 43 722 87 q 562 0 627 0 l 244 0 q 132 43 179 0 q 84 149 84 87 l 84 941 q 132 1047 84 1003 q 244 1090 179 1090 l 562 1090 q 674 1047 627 1090 q 722 941 722 1003 l 722 722 l 505 722 l 505 888 m 306 1135 l 382 1345 l 598 1345 l 456 1135 l 306 1135 z "},"Ĉ":{"ha":794,"x_min":46,"x_max":718,"o":"m 490 935 l 274 935 l 274 212 l 490 212 l 490 388 l 718 388 l 718 157 q 667 45 718 92 q 549 0 618 0 l 214 0 q 96 45 146 0 q 46 157 46 92 l 46 991 q 96 1102 46 1056 q 214 1147 146 1147 l 549 1147 q 667 1102 618 1147 q 718 991 718 1056 l 718 760 l 490 760 l 490 935 m 446 1207 l 382 1305 l 319 1207 l 176 1207 l 249 1407 l 517 1407 l 589 1207 l 446 1207 z "},"ĉ":{"ha":800,"x_min":84,"x_max":722,"o":"m 505 888 l 300 888 l 300 201 l 505 201 l 505 368 l 722 368 l 722 149 q 674 43 722 87 q 562 0 627 0 l 244 0 q 132 43 179 0 q 84 149 84 87 l 84 941 q 132 1047 84 1003 q 244 1090 179 1090 l 562 1090 q 674 1047 627 1090 q 722 941 722 1003 l 722 722 l 505 722 l 505 888 m 467 1149 l 404 1248 l 340 1149 l 197 1149 l 270 1350 l 538 1350 l 610 1149 l 467 1149 z "},"Ċ":{"ha":794,"x_min":46,"x_max":718,"o":"m 490 935 l 274 935 l 274 212 l 490 212 l 490 388 l 718 388 l 718 157 q 667 45 718 92 q 549 0 618 0 l 214 0 q 96 45 146 0 q 46 157 46 92 l 46 991 q 96 1102 46 1056 q 214 1147 146 1147 l 549 1147 q 667 1102 618 1147 q 718 991 718 1056 l 718 760 l 490 760 l 490 935 m 477 1379 l 477 1230 l 287 1230 l 287 1379 l 477 1379 z "},"ċ":{"ha":800,"x_min":84,"x_max":722,"o":"m 505 888 l 300 888 l 300 201 l 505 201 l 505 368 l 722 368 l 722 149 q 674 43 722 87 q 562 0 627 0 l 244 0 q 132 43 179 0 q 84 149 84 87 l 84 941 q 132 1047 84 1003 q 244 1090 179 1090 l 562 1090 q 674 1047 627 1090 q 722 941 722 1003 l 722 722 l 505 722 l 505 888 m 498 1322 l 498 1173 l 308 1173 l 308 1322 l 498 1322 z "},"Č":{"ha":794,"x_min":46,"x_max":718,"o":"m 490 935 l 274 935 l 274 212 l 490 212 l 490 388 l 718 388 l 718 157 q 667 45 718 92 q 549 0 618 0 l 214 0 q 96 45 146 0 q 46 157 46 92 l 46 991 q 96 1102 46 1056 q 214 1147 146 1147 l 549 1147 q 667 1102 618 1147 q 718 991 718 1056 l 718 760 l 490 760 l 490 935 m 589 1407 l 517 1207 l 249 1207 l 176 1407 l 319 1407 l 382 1309 l 446 1407 l 589 1407 z "},"č":{"ha":800,"x_min":84,"x_max":722,"o":"m 505 888 l 300 888 l 300 201 l 505 201 l 505 368 l 722 368 l 722 149 q 674 43 722 87 q 562 0 627 0 l 244 0 q 132 43 179 0 q 84 149 84 87 l 84 941 q 132 1047 84 1003 q 244 1090 179 1090 l 562 1090 q 674 1047 627 1090 q 722 941 722 1003 l 722 722 l 505 722 l 505 888 m 610 1350 l 538 1149 l 270 1149 l 197 1350 l 340 1350 l 404 1251 l 467 1350 l 610 1350 z "},"Ď":{"ha":841,"x_min":57,"x_max":728,"o":"m 285 935 l 285 212 l 393 212 q 500 287 500 212 l 500 935 l 285 935 m 57 1147 l 560 1147 q 678 1102 629 1147 q 728 991 728 1056 l 728 287 q 628 75 728 155 q 393 0 534 0 l 57 0 l 57 1147 m 600 1407 l 528 1207 l 260 1207 l 186 1407 l 330 1407 l 393 1309 l 457 1407 l 600 1407 z "},"ď":{"ha":1211,"x_min":94,"x_max":1042,"o":"m 311 888 l 311 201 l 413 201 q 515 273 515 201 l 515 888 l 311 888 m 94 1090 l 572 1090 q 684 1047 637 1090 q 732 941 732 1003 l 732 273 q 637 71 732 148 q 413 0 547 0 l 94 0 l 94 1090 m 1042 1090 l 1042 941 l 923 773 l 923 941 l 873 941 l 873 1090 l 1042 1090 z "},"Đ":{"ha":836,"x_min":-4,"x_max":728,"o":"m 57 646 l 57 1147 l 560 1147 q 678 1102 629 1147 q 728 991 728 1056 l 728 287 q 628 75 728 155 q 393 0 534 0 l 57 0 l 57 502 l -4 502 l -4 646 l 57 646 m 285 646 l 404 646 l 404 502 l 285 502 l 285 212 l 393 212 q 500 287 500 212 l 500 935 l 285 935 l 285 646 z "},"đ":{"ha":799,"x_min":-4,"x_max":692,"o":"m 54 614 l 54 1090 l 532 1090 q 644 1047 597 1090 q 692 941 692 1003 l 692 273 q 596 71 692 148 q 373 0 507 0 l 54 0 l 54 477 l -4 477 l -4 614 l 54 614 m 271 614 l 384 614 l 384 477 l 271 477 l 271 201 l 373 201 q 475 273 475 201 l 475 888 l 271 888 l 271 614 z "},"Ē":{"ha":724,"x_min":57,"x_max":665,"o":"m 285 212 l 665 212 l 665 0 l 57 0 l 57 1147 l 665 1147 l 665 935 l 285 935 l 285 680 l 601 680 l 601 467 l 285 467 l 285 212 m 536 1377 l 536 1231 l 186 1231 l 186 1377 l 536 1377 z "},"ē":{"ha":735,"x_min":94,"x_max":671,"o":"m 311 201 l 671 201 l 671 0 l 94 0 l 94 1090 l 671 1090 l 671 888 l 311 888 l 311 646 l 611 646 l 611 444 l 311 444 l 311 201 m 558 1319 l 558 1173 l 208 1173 l 208 1319 l 558 1319 z "},"Ĕ":{"ha":724,"x_min":57,"x_max":665,"o":"m 285 212 l 665 212 l 665 0 l 57 0 l 57 1147 l 665 1147 l 665 935 l 285 935 l 285 680 l 601 680 l 601 467 l 285 467 l 285 212 m 568 1407 q 362 1207 496 1207 q 155 1407 228 1207 l 298 1407 q 361 1347 330 1347 q 425 1407 393 1347 l 568 1407 z "},"ĕ":{"ha":735,"x_min":94,"x_max":671,"o":"m 311 201 l 671 201 l 671 0 l 94 0 l 94 1090 l 671 1090 l 671 888 l 311 888 l 311 646 l 611 646 l 611 444 l 311 444 l 311 201 m 589 1350 q 384 1149 517 1149 q 176 1350 250 1149 l 320 1350 q 383 1289 352 1289 q 447 1350 415 1289 l 589 1350 z "},"Ė":{"ha":724,"x_min":57,"x_max":665,"o":"m 285 212 l 665 212 l 665 0 l 57 0 l 57 1147 l 665 1147 l 665 935 l 285 935 l 285 680 l 601 680 l 601 467 l 285 467 l 285 212 m 456 1379 l 456 1230 l 266 1230 l 266 1379 l 456 1379 z "},"ė":{"ha":735,"x_min":94,"x_max":671,"o":"m 311 201 l 671 201 l 671 0 l 94 0 l 94 1090 l 671 1090 l 671 888 l 311 888 l 311 646 l 611 646 l 611 444 l 311 444 l 311 201 m 478 1322 l 478 1173 l 288 1173 l 288 1322 l 478 1322 z "},"Ę":{"ha":724,"x_min":57,"x_max":721,"o":"m 573 0 l 57 0 l 57 1147 l 665 1147 l 665 935 l 285 935 l 285 680 l 601 680 l 601 467 l 285 467 l 285 212 l 665 212 l 665 0 l 677 -52 q 601 -85 619 -68 q 578 -128 581 -103 q 577 -135 577 -132 q 592 -170 577 -155 q 632 -184 608 -184 l 636 -184 q 703 -164 654 -183 l 721 -243 q 627 -275 678 -272 l 616 -275 q 517 -237 556 -275 q 479 -151 479 -202 q 481 -134 479 -142 q 539 -25 487 -72 q 573 0 555 -10 z "},"ę":{"ha":735,"x_min":94,"x_max":715,"o":"m 508 0 l 94 0 l 94 1090 l 671 1090 l 671 888 l 311 888 l 311 646 l 611 646 l 611 444 l 311 444 l 311 201 l 671 201 l 671 0 l 669 0 q 595 -33 612 -16 q 572 -76 574 -51 q 571 -83 571 -79 q 586 -117 571 -103 q 626 -132 602 -132 l 630 -132 q 697 -112 648 -131 l 715 -191 q 621 -223 672 -220 l 610 -223 q 511 -185 550 -223 q 473 -98 473 -150 q 475 -82 473 -90 q 508 0 479 -37 z "},"Ě":{"ha":724,"x_min":57,"x_max":665,"o":"m 285 212 l 665 212 l 665 0 l 57 0 l 57 1147 l 665 1147 l 665 935 l 285 935 l 285 680 l 601 680 l 601 467 l 285 467 l 285 212 m 568 1407 l 496 1207 l 228 1207 l 155 1407 l 298 1407 l 361 1309 l 425 1407 l 568 1407 z "},"ě":{"ha":735,"x_min":94,"x_max":671,"o":"m 311 201 l 671 201 l 671 0 l 94 0 l 94 1090 l 671 1090 l 671 888 l 311 888 l 311 646 l 611 646 l 611 444 l 311 444 l 311 201 m 589 1350 l 517 1149 l 250 1149 l 176 1350 l 320 1350 l 383 1251 l 447 1350 l 589 1350 z "},"Ĝ":{"ha":814,"x_min":46,"x_max":718,"o":"m 490 409 l 382 409 l 382 621 l 718 621 l 718 157 q 667 45 718 92 q 549 0 618 0 l 214 0 q 96 45 146 0 q 46 157 46 92 l 46 991 q 96 1102 46 1056 q 214 1147 146 1147 l 549 1147 q 667 1102 618 1147 q 718 991 718 1056 l 718 760 l 490 760 l 490 935 l 274 935 l 274 212 l 490 212 l 490 409 m 446 1207 l 382 1305 l 319 1207 l 176 1207 l 249 1407 l 517 1407 l 589 1207 l 446 1207 z "},"ĝ":{"ha":820,"x_min":84,"x_max":722,"o":"m 505 389 l 403 389 l 403 590 l 722 590 l 722 149 q 674 43 722 87 q 562 0 627 0 l 244 0 q 132 43 179 0 q 84 149 84 87 l 84 941 q 132 1047 84 1003 q 244 1090 179 1090 l 562 1090 q 674 1047 627 1090 q 722 941 722 1003 l 722 722 l 505 722 l 505 888 l 300 888 l 300 201 l 505 201 l 505 389 m 467 1149 l 404 1248 l 340 1149 l 197 1149 l 270 1350 l 538 1350 l 610 1149 l 467 1149 z "},"Ğ":{"ha":814,"x_min":46,"x_max":718,"o":"m 490 409 l 382 409 l 382 621 l 718 621 l 718 157 q 667 45 718 92 q 549 0 618 0 l 214 0 q 96 45 146 0 q 46 157 46 92 l 46 991 q 96 1102 46 1056 q 214 1147 146 1147 l 549 1147 q 667 1102 618 1147 q 718 991 718 1056 l 718 760 l 490 760 l 490 935 l 274 935 l 274 212 l 490 212 l 490 409 m 589 1407 q 383 1207 517 1207 q 176 1407 249 1207 l 319 1407 q 382 1347 351 1347 q 446 1407 414 1347 l 589 1407 z "},"ğ":{"ha":820,"x_min":84,"x_max":722,"o":"m 505 389 l 403 389 l 403 590 l 722 590 l 722 149 q 674 43 722 87 q 562 0 627 0 l 244 0 q 132 43 179 0 q 84 149 84 87 l 84 941 q 132 1047 84 1003 q 244 1090 179 1090 l 562 1090 q 674 1047 627 1090 q 722 941 722 1003 l 722 722 l 505 722 l 505 888 l 300 888 l 300 201 l 505 201 l 505 389 m 610 1350 q 404 1149 538 1149 q 197 1350 270 1149 l 340 1350 q 404 1289 372 1289 q 467 1350 435 1289 l 610 1350 z "},"Ġ":{"ha":814,"x_min":46,"x_max":718,"o":"m 490 409 l 382 409 l 382 621 l 718 621 l 718 157 q 667 45 718 92 q 549 0 618 0 l 214 0 q 96 45 146 0 q 46 157 46 92 l 46 991 q 96 1102 46 1056 q 214 1147 146 1147 l 549 1147 q 667 1102 618 1147 q 718 991 718 1056 l 718 760 l 490 760 l 490 935 l 274 935 l 274 212 l 490 212 l 490 409 m 477 1379 l 477 1230 l 287 1230 l 287 1379 l 477 1379 z "},"ġ":{"ha":820,"x_min":84,"x_max":722,"o":"m 505 389 l 403 389 l 403 590 l 722 590 l 722 149 q 674 43 722 87 q 562 0 627 0 l 244 0 q 132 43 179 0 q 84 149 84 87 l 84 941 q 132 1047 84 1003 q 244 1090 179 1090 l 562 1090 q 674 1047 627 1090 q 722 941 722 1003 l 722 722 l 505 722 l 505 888 l 300 888 l 300 201 l 505 201 l 505 389 m 498 1322 l 498 1173 l 308 1173 l 308 1322 l 498 1322 z "},"Ģ":{"ha":814,"x_min":46,"x_max":718,"o":"m 490 409 l 382 409 l 382 621 l 718 621 l 718 157 q 667 45 718 92 q 549 0 618 0 l 214 0 q 96 45 146 0 q 46 157 46 92 l 46 991 q 96 1102 46 1056 q 214 1147 146 1147 l 549 1147 q 667 1102 618 1147 q 718 991 718 1056 l 718 760 l 490 760 l 490 935 l 274 935 l 274 212 l 490 212 l 490 409 m 477 -9 l 477 -136 l 342 -280 l 342 -136 l 286 -136 l 286 -9 l 477 -9 z "},"ģ":{"ha":820,"x_min":84,"x_max":722,"o":"m 505 389 l 403 389 l 403 590 l 722 590 l 722 149 q 674 43 722 87 q 562 0 627 0 l 244 0 q 132 43 179 0 q 84 149 84 87 l 84 941 q 132 1047 84 1003 q 244 1090 179 1090 l 562 1090 q 674 1047 627 1090 q 722 941 722 1003 l 722 722 l 505 722 l 505 888 l 300 888 l 300 201 l 505 201 l 505 389 m 319 1232 l 319 1380 l 438 1548 l 438 1380 l 488 1380 l 488 1232 l 319 1232 z "},"Ĥ":{"ha":853,"x_min":57,"x_max":728,"o":"m 285 467 l 285 0 l 57 0 l 57 1147 l 285 1147 l 285 680 l 500 680 l 500 1147 l 728 1147 l 728 0 l 500 0 l 500 467 l 285 467 m 457 1207 l 393 1305 l 330 1207 l 186 1207 l 260 1407 l 528 1407 l 600 1207 l 457 1207 z "},"ĥ":{"ha":853,"x_min":95,"x_max":733,"o":"m 311 444 l 311 0 l 95 0 l 95 1090 l 311 1090 l 311 646 l 516 646 l 516 1090 l 733 1090 l 733 0 l 516 0 l 516 444 l 311 444 m 478 1239 l 414 1337 l 351 1239 l 208 1239 l 281 1439 l 549 1439 l 621 1239 l 478 1239 z "},"Ħ":{"ha":853,"x_min":37,"x_max":808,"o":"m 755 867 l 755 0 l 528 0 l 528 467 l 312 467 l 312 0 l 84 0 l 84 867 l 37 867 l 37 1012 l 84 1012 l 84 1147 l 312 1147 l 312 1012 l 528 1012 l 528 1147 l 755 1147 l 755 1012 l 808 1012 l 808 867 l 755 867 m 312 867 l 312 680 l 528 680 l 528 867 l 312 867 z "},"ħ":{"ha":814,"x_min":37,"x_max":769,"o":"m 720 824 l 720 0 l 503 0 l 503 444 l 298 444 l 298 0 l 82 0 l 82 824 l 37 824 l 37 961 l 82 961 l 82 1090 l 298 1090 l 298 961 l 503 961 l 503 1090 l 720 1090 l 720 961 l 769 961 l 769 824 l 720 824 m 298 824 l 298 646 l 503 646 l 503 824 l 298 824 z "},"Ĩ":{"ha":410,"x_min":-73,"x_max":414,"o":"m 57 0 l 57 1147 l 285 1147 l 285 0 l 57 0 m 89 1254 q 68 1261 79 1261 q 18 1213 42 1261 l 7 1187 l -73 1239 l -62 1265 q 37 1392 -25 1356 q 99 1409 68 1409 q 169 1387 134 1409 l 253 1331 q 273 1324 263 1324 q 324 1373 300 1324 l 335 1398 l 414 1346 l 404 1320 q 305 1194 367 1230 q 243 1176 274 1176 q 173 1200 208 1176 l 89 1254 z "},"ĩ":{"ha":431,"x_min":-40,"x_max":447,"o":"m 95 0 l 95 1090 l 311 1090 l 311 0 l 95 0 m 121 1196 q 101 1203 111 1203 q 50 1156 75 1203 l 39 1129 l -40 1181 l -29 1208 q 69 1334 7 1299 q 132 1352 100 1352 q 201 1329 166 1352 l 286 1274 q 306 1267 296 1267 q 357 1315 332 1267 l 368 1341 l 447 1289 l 436 1263 q 338 1136 399 1172 q 276 1118 307 1118 q 205 1142 241 1118 l 121 1196 z "},"Ī":{"ha":410,"x_min":-4,"x_max":347,"o":"m 57 0 l 57 1147 l 285 1147 l 285 0 l 57 0 m 347 1377 l 347 1231 l -4 1231 l -4 1377 l 347 1377 z "},"ī":{"ha":431,"x_min":28,"x_max":378,"o":"m 95 0 l 95 1090 l 311 1090 l 311 0 l 95 0 m 378 1319 l 378 1173 l 28 1173 l 28 1319 l 378 1319 z "},"Ĭ":{"ha":410,"x_min":-35,"x_max":378,"o":"m 57 0 l 57 1147 l 285 1147 l 285 0 l 57 0 m 378 1407 q 172 1207 306 1207 q -35 1407 38 1207 l 109 1407 q 172 1347 140 1347 q 235 1407 203 1347 l 378 1407 z "},"ĭ":{"ha":431,"x_min":-3,"x_max":410,"o":"m 95 0 l 95 1090 l 311 1090 l 311 0 l 95 0 m 410 1350 q 204 1149 338 1149 q -3 1350 70 1149 l 140 1350 q 203 1289 172 1289 q 267 1350 235 1289 l 410 1350 z "},"Į":{"ha":410,"x_min":57,"x_max":341,"o":"m 193 0 l 57 0 l 57 1147 l 285 1147 l 285 0 l 297 -52 q 221 -85 239 -68 q 198 -128 201 -103 q 197 -135 197 -132 q 212 -170 197 -155 q 252 -184 229 -184 l 256 -184 q 323 -164 275 -183 l 341 -243 q 247 -275 298 -272 l 237 -275 q 137 -237 176 -275 q 100 -151 100 -202 q 101 -134 100 -142 q 159 -25 107 -72 q 193 0 176 -10 z "},"į":{"ha":431,"x_min":95,"x_max":368,"o":"m 220 0 l 95 0 l 95 1090 l 311 1090 l 311 0 l 323 -52 q 248 -85 266 -68 q 224 -128 227 -103 q 224 -135 224 -132 q 239 -170 224 -155 q 279 -184 255 -184 l 283 -184 q 350 -164 301 -183 l 368 -243 q 273 -275 325 -272 l 263 -275 q 163 -237 203 -275 q 126 -151 126 -202 q 127 -134 126 -142 q 186 -25 134 -72 q 220 0 202 -10 z "},"İ":{"ha":410,"x_min":57,"x_max":285,"o":"m 57 0 l 57 1147 l 285 1147 l 285 0 l 57 0 m 267 1379 l 267 1230 l 76 1230 l 76 1379 l 267 1379 z "},"Ĳ":{"ha":966,"x_min":57,"x_max":852,"o":"m 57 0 l 57 1147 l 285 1147 l 285 0 l 57 0 m 515 212 q 624 287 624 212 l 624 1147 l 852 1147 l 852 287 q 751 75 852 155 q 515 0 656 0 l 394 0 l 394 212 l 515 212 z "},"ĳ":{"ha":994,"x_min":95,"x_max":882,"o":"m 95 0 l 95 1090 l 311 1090 l 311 0 l 95 0 m 563 201 q 666 273 666 201 l 666 1090 l 882 1090 l 882 273 q 787 71 882 148 q 563 0 697 0 l 448 0 l 448 201 l 563 201 z "},"Ĵ":{"ha":557,"x_min":-16,"x_max":534,"o":"m 106 212 q 214 287 214 212 l 214 1147 l 442 1147 l 442 287 q 342 75 442 155 q 106 0 247 0 l -16 0 l -16 212 l 106 212 m 391 1207 l 328 1305 l 264 1207 l 121 1207 l 194 1407 l 462 1407 l 534 1207 l 391 1207 z "},"ĵ":{"ha":562,"x_min":16,"x_max":545,"o":"m 132 201 q 235 273 235 201 l 235 1090 l 451 1090 l 451 273 q 356 71 451 148 q 132 0 266 0 l 16 0 l 16 201 l 132 201 m 402 1149 l 338 1248 l 275 1149 l 132 1149 l 205 1350 l 473 1350 l 545 1149 l 402 1149 z "},"Ķ":{"ha":785,"x_min":57,"x_max":745,"o":"m 285 467 l 285 0 l 57 0 l 57 1147 l 285 1147 l 285 680 l 372 680 l 513 1147 l 745 1147 l 572 574 l 745 0 l 513 0 l 372 467 l 285 467 m 496 -9 l 496 -136 l 361 -280 l 361 -136 l 304 -136 l 304 -9 l 496 -9 z "},"ķ":{"ha":801,"x_min":95,"x_max":748,"o":"m 311 444 l 311 0 l 95 0 l 95 1090 l 311 1090 l 311 646 l 395 646 l 528 1090 l 748 1090 l 585 545 l 748 0 l 528 0 l 395 444 l 311 444 m 517 -9 l 517 -136 l 382 -280 l 382 -136 l 326 -136 l 326 -9 l 517 -9 z "},"ĸ":{"ha":801,"x_min":95,"x_max":748,"o":"m 311 355 l 311 0 l 95 0 l 95 872 l 311 872 l 311 517 l 395 517 l 528 872 l 748 872 l 585 436 l 748 0 l 528 0 l 395 355 l 311 355 z "},"Ĺ":{"ha":638,"x_min":57,"x_max":601,"o":"m 57 0 l 57 1147 l 285 1147 l 285 212 l 601 212 l 601 0 l 57 0 m 231 1192 l 307 1402 l 524 1402 l 381 1192 l 231 1192 z "},"ĺ":{"ha":642,"x_min":94,"x_max":611,"o":"m 94 0 l 94 1090 l 311 1090 l 311 201 l 611 201 l 611 0 l 94 0 m 207 1229 l 283 1439 l 499 1439 l 357 1229 l 207 1229 z "},"Ļ":{"ha":638,"x_min":57,"x_max":601,"o":"m 57 0 l 57 1147 l 285 1147 l 285 212 l 601 212 l 601 0 l 57 0 m 425 -9 l 425 -136 l 289 -280 l 289 -136 l 233 -136 l 233 -9 l 425 -9 z "},"ļ":{"ha":642,"x_min":94,"x_max":611,"o":"m 94 0 l 94 1090 l 311 1090 l 311 201 l 611 201 l 611 0 l 94 0 m 448 -9 l 448 -136 l 313 -280 l 313 -136 l 256 -136 l 256 -9 l 448 -9 z "},"Ľ":{"ha":638,"x_min":57,"x_max":601,"o":"m 57 0 l 57 1147 l 285 1147 l 285 212 l 601 212 l 601 0 l 57 0 m 601 1090 l 601 941 l 482 773 l 482 941 l 433 941 l 433 1090 l 601 1090 z "},"ľ":{"ha":1013,"x_min":94,"x_max":844,"o":"m 94 0 l 94 1090 l 311 1090 l 311 201 l 611 201 l 611 0 l 94 0 m 844 1090 l 844 941 l 725 773 l 725 941 l 675 941 l 675 1090 l 844 1090 z "},"Ŀ":{"ha":638,"x_min":57,"x_max":601,"o":"m 57 0 l 57 1147 l 285 1147 l 285 212 l 601 212 l 601 0 l 57 0 m 539 664 l 539 483 l 335 483 l 335 664 l 539 664 z "},"ŀ":{"ha":846,"x_min":94,"x_max":815,"o":"m 94 0 l 94 1090 l 311 1090 l 311 201 l 611 201 l 611 0 l 94 0 m 815 635 l 815 455 l 611 455 l 611 635 l 815 635 z "},"Ł":{"ha":638,"x_min":16,"x_max":601,"o":"m 285 505 l 285 212 l 601 212 l 601 0 l 57 0 l 57 505 l 16 505 l 16 649 l 57 649 l 57 1147 l 285 1147 l 285 649 l 479 649 l 479 505 l 285 505 z "},"ł":{"ha":609,"x_min":16,"x_max":572,"o":"m 271 479 l 271 201 l 572 201 l 572 0 l 55 0 l 55 479 l 16 479 l 16 616 l 55 616 l 55 1090 l 271 1090 l 271 616 l 456 616 l 456 479 l 271 479 z "},"Ń":{"ha":912,"x_min":57,"x_max":787,"o":"m 285 739 l 285 0 l 57 0 l 57 1147 l 373 1147 l 559 405 l 559 1147 l 787 1147 l 787 0 l 472 0 l 285 739 m 325 1192 l 401 1402 l 617 1402 l 475 1192 l 325 1192 z "},"ń":{"ha":909,"x_min":95,"x_max":789,"o":"m 311 702 l 311 0 l 95 0 l 95 1090 l 395 1090 l 572 385 l 572 1090 l 789 1090 l 789 0 l 489 0 l 311 702 m 345 1135 l 420 1345 l 637 1345 l 494 1135 l 345 1135 z "},"Ņ":{"ha":912,"x_min":57,"x_max":787,"o":"m 285 739 l 285 0 l 57 0 l 57 1147 l 373 1147 l 559 405 l 559 1147 l 787 1147 l 787 0 l 472 0 l 285 739 m 518 -9 l 518 -136 l 382 -280 l 382 -136 l 326 -136 l 326 -9 l 518 -9 z "},"ņ":{"ha":909,"x_min":95,"x_max":789,"o":"m 311 702 l 311 0 l 95 0 l 95 1090 l 395 1090 l 572 385 l 572 1090 l 789 1090 l 789 0 l 489 0 l 311 702 m 538 -9 l 538 -136 l 402 -280 l 402 -136 l 346 -136 l 346 -9 l 538 -9 z "},"Ň":{"ha":912,"x_min":57,"x_max":787,"o":"m 285 739 l 285 0 l 57 0 l 57 1147 l 373 1147 l 559 405 l 559 1147 l 787 1147 l 787 0 l 472 0 l 285 739 m 629 1407 l 557 1207 l 289 1207 l 216 1407 l 359 1407 l 422 1309 l 486 1407 l 629 1407 z "},"ň":{"ha":909,"x_min":95,"x_max":789,"o":"m 311 702 l 311 0 l 95 0 l 95 1090 l 395 1090 l 572 385 l 572 1090 l 789 1090 l 789 0 l 489 0 l 311 702 m 648 1350 l 576 1149 l 309 1149 l 235 1350 l 379 1350 l 442 1251 l 506 1350 l 648 1350 z "},"ŉ":{"ha":1000,"x_min":102,"x_max":880,"o":"m 270 1548 l 270 1400 l 151 1232 l 151 1400 l 102 1400 l 102 1548 l 270 1548 m 402 702 l 402 0 l 186 0 l 186 1090 l 486 1090 l 663 385 l 663 1090 l 880 1090 l 880 0 l 580 0 l 402 702 z "},"Ŋ":{"ha":912,"x_min":57,"x_max":787,"o":"m 285 739 l 285 0 l 57 0 l 57 1147 l 373 1147 l 559 405 l 559 1147 l 787 1147 l 787 0 l 472 0 l 285 739 m 787 214 l 787 1 l 618 -239 l 618 1 l 547 1 l 547 214 l 787 214 z "},"ŋ":{"ha":909,"x_min":95,"x_max":789,"o":"m 311 702 l 311 0 l 95 0 l 95 1090 l 395 1090 l 572 385 l 572 1090 l 789 1090 l 789 0 l 489 0 l 311 702 m 789 214 l 789 1 l 619 -239 l 619 1 l 549 1 l 549 214 l 789 214 z "},"Ō":{"ha":838,"x_min":46,"x_max":718,"o":"m 274 935 l 274 212 l 490 212 l 490 935 l 274 935 m 549 1147 q 667 1102 618 1147 q 718 991 718 1056 l 718 157 q 667 45 718 92 q 549 0 618 0 l 214 0 q 96 45 146 0 q 46 157 46 92 l 46 991 q 96 1102 46 1056 q 214 1147 146 1147 l 549 1147 m 557 1377 l 557 1231 l 207 1231 l 207 1377 l 557 1377 z "},"ō":{"ha":836,"x_min":84,"x_max":722,"o":"m 300 888 l 300 201 l 505 201 l 505 888 l 300 888 m 562 1090 q 674 1047 627 1090 q 722 941 722 1003 l 722 149 q 674 43 722 87 q 562 0 627 0 l 244 0 q 132 43 179 0 q 84 149 84 87 l 84 941 q 132 1047 84 1003 q 244 1090 179 1090 l 562 1090 m 578 1319 l 578 1173 l 228 1173 l 228 1319 l 578 1319 z "},"Ŏ":{"ha":838,"x_min":46,"x_max":718,"o":"m 274 935 l 274 212 l 490 212 l 490 935 l 274 935 m 549 1147 q 667 1102 618 1147 q 718 991 718 1056 l 718 157 q 667 45 718 92 q 549 0 618 0 l 214 0 q 96 45 146 0 q 46 157 46 92 l 46 991 q 96 1102 46 1056 q 214 1147 146 1147 l 549 1147 m 589 1407 q 383 1207 517 1207 q 176 1407 249 1207 l 319 1407 q 382 1347 351 1347 q 446 1407 414 1347 l 589 1407 z "},"ŏ":{"ha":836,"x_min":84,"x_max":722,"o":"m 300 888 l 300 201 l 505 201 l 505 888 l 300 888 m 562 1090 q 674 1047 627 1090 q 722 941 722 1003 l 722 149 q 674 43 722 87 q 562 0 627 0 l 244 0 q 132 43 179 0 q 84 149 84 87 l 84 941 q 132 1047 84 1003 q 244 1090 179 1090 l 562 1090 m 610 1350 q 404 1149 538 1149 q 197 1350 270 1149 l 340 1350 q 404 1289 372 1289 q 467 1350 435 1289 l 610 1350 z "},"Ő":{"ha":838,"x_min":46,"x_max":718,"o":"m 274 935 l 274 212 l 490 212 l 490 935 l 274 935 m 549 1147 q 667 1102 618 1147 q 718 991 718 1056 l 718 157 q 667 45 718 92 q 549 0 618 0 l 214 0 q 96 45 146 0 q 46 157 46 92 l 46 991 q 96 1102 46 1056 q 214 1147 146 1147 l 549 1147 m 90 1192 l 165 1402 l 382 1402 l 239 1192 l 90 1192 m 382 1192 l 458 1402 l 674 1402 l 532 1192 l 382 1192 z "},"ő":{"ha":836,"x_min":84,"x_max":722,"o":"m 300 888 l 300 201 l 505 201 l 505 888 l 300 888 m 562 1090 q 674 1047 627 1090 q 722 941 722 1003 l 722 149 q 674 43 722 87 q 562 0 627 0 l 244 0 q 132 43 179 0 q 84 149 84 87 l 84 941 q 132 1047 84 1003 q 244 1090 179 1090 l 562 1090 m 111 1135 l 187 1345 l 404 1345 l 261 1135 l 111 1135 m 404 1135 l 479 1345 l 696 1345 l 553 1135 l 404 1135 z "},"Œ":{"ha":1081,"x_min":46,"x_max":1021,"o":"m 274 935 l 274 212 l 490 212 l 490 935 l 274 935 m 549 1147 q 667 1102 618 1147 q 718 991 718 1056 l 718 157 q 667 45 718 92 q 549 0 618 0 l 214 0 q 96 45 146 0 q 46 157 46 92 l 46 991 q 96 1102 46 1056 q 214 1147 146 1147 l 549 1147 m 642 212 l 1021 212 l 1021 0 l 414 0 l 414 1147 l 1021 1147 l 1021 935 l 642 935 l 642 680 l 958 680 l 958 467 l 642 467 l 642 212 z "},"œ":{"ha":1248,"x_min":84,"x_max":1184,"o":"m 300 888 l 300 201 l 505 201 l 505 888 l 300 888 m 562 1090 q 674 1047 627 1090 q 722 941 722 1003 l 722 149 q 674 43 722 87 q 562 0 627 0 l 244 0 q 132 43 179 0 q 84 149 84 87 l 84 941 q 132 1047 84 1003 q 244 1090 179 1090 l 562 1090 m 823 201 l 1184 201 l 1184 0 l 607 0 l 607 1090 l 1184 1090 l 1184 888 l 823 888 l 823 646 l 1124 646 l 1124 444 l 823 444 l 823 201 z "},"Ŕ":{"ha":835,"x_min":57,"x_max":728,"o":"m 419 621 q 476 643 452 621 q 500 695 500 664 l 500 935 l 285 935 l 285 621 l 419 621 m 285 409 l 285 0 l 57 0 l 57 1147 l 560 1147 q 678 1102 629 1147 q 728 991 728 1056 l 728 695 q 641 515 728 583 q 728 334 728 448 l 728 0 l 500 0 l 500 334 q 476 388 500 366 q 419 409 452 409 l 285 409 m 295 1192 l 371 1402 l 587 1402 l 445 1192 l 295 1192 z "},"ŕ":{"ha":844,"x_min":95,"x_max":733,"o":"m 439 590 q 493 611 470 590 q 516 661 516 631 l 516 888 l 311 888 l 311 590 l 439 590 m 311 389 l 311 0 l 95 0 l 95 1090 l 573 1090 q 685 1047 638 1090 q 733 941 733 1003 l 733 661 q 650 490 733 553 q 733 317 733 426 l 733 0 l 516 0 l 516 317 q 493 368 516 347 q 439 389 470 389 l 311 389 m 317 1135 l 393 1345 l 609 1345 l 467 1135 l 317 1135 z "},"Ŗ":{"ha":835,"x_min":57,"x_max":728,"o":"m 419 621 q 476 643 452 621 q 500 695 500 664 l 500 935 l 285 935 l 285 621 l 419 621 m 285 409 l 285 0 l 57 0 l 57 1147 l 560 1147 q 678 1102 629 1147 q 728 991 728 1056 l 728 695 q 641 515 728 583 q 728 334 728 448 l 728 0 l 500 0 l 500 334 q 476 388 500 366 q 419 409 452 409 l 285 409 m 488 -9 l 488 -136 l 353 -280 l 353 -136 l 296 -136 l 296 -9 l 488 -9 z "},"ŗ":{"ha":844,"x_min":95,"x_max":733,"o":"m 439 590 q 493 611 470 590 q 516 661 516 631 l 516 888 l 311 888 l 311 590 l 439 590 m 311 389 l 311 0 l 95 0 l 95 1090 l 573 1090 q 685 1047 638 1090 q 733 941 733 1003 l 733 661 q 650 490 733 553 q 733 317 733 426 l 733 0 l 516 0 l 516 317 q 493 368 516 347 q 439 389 470 389 l 311 389 m 510 -9 l 510 -136 l 374 -280 l 374 -136 l 318 -136 l 318 -9 l 510 -9 z "},"Ř":{"ha":835,"x_min":57,"x_max":728,"o":"m 419 621 q 476 643 452 621 q 500 695 500 664 l 500 935 l 285 935 l 285 621 l 419 621 m 285 409 l 285 0 l 57 0 l 57 1147 l 560 1147 q 678 1102 629 1147 q 728 991 728 1056 l 728 695 q 641 515 728 583 q 728 334 728 448 l 728 0 l 500 0 l 500 334 q 476 388 500 366 q 419 409 452 409 l 285 409 m 600 1407 l 528 1207 l 260 1207 l 186 1407 l 330 1407 l 393 1309 l 457 1407 l 600 1407 z "},"ř":{"ha":844,"x_min":95,"x_max":733,"o":"m 439 590 q 493 611 470 590 q 516 661 516 631 l 516 888 l 311 888 l 311 590 l 439 590 m 311 389 l 311 0 l 95 0 l 95 1090 l 573 1090 q 685 1047 638 1090 q 733 941 733 1003 l 733 661 q 650 490 733 553 q 733 317 733 426 l 733 0 l 516 0 l 516 317 q 493 368 516 347 q 439 389 470 389 l 311 389 m 621 1350 l 549 1149 l 281 1149 l 208 1350 l 351 1350 l 414 1251 l 478 1350 l 621 1350 z "},"Ś":{"ha":801,"x_min":38,"x_max":709,"o":"m 481 935 l 266 935 l 266 754 q 374 680 266 680 q 609 605 515 680 q 709 393 709 525 l 709 157 q 659 45 709 92 q 541 0 610 0 l 206 0 q 88 45 138 0 q 38 157 38 92 l 38 388 l 266 388 l 266 212 l 481 212 l 481 393 q 374 467 481 467 q 138 543 233 467 q 38 754 38 623 l 38 991 q 88 1102 38 1056 q 206 1147 138 1147 l 541 1147 q 659 1102 610 1147 q 709 991 709 1056 l 709 760 l 481 760 l 481 935 m 276 1192 l 352 1402 l 568 1402 l 426 1192 l 276 1192 z "},"ś":{"ha":810,"x_min":79,"x_max":717,"o":"m 500 888 l 295 888 l 295 716 q 397 646 295 646 q 621 574 532 646 q 717 374 717 498 l 717 149 q 669 43 717 87 q 557 0 622 0 l 239 0 q 126 43 174 0 q 79 149 79 87 l 79 368 l 295 368 l 295 201 l 500 201 l 500 374 q 397 444 500 444 q 174 515 264 444 q 79 716 79 591 l 79 941 q 126 1047 79 1003 q 239 1090 174 1090 l 557 1090 q 669 1047 622 1090 q 717 941 717 1003 l 717 722 l 500 722 l 500 888 m 300 1135 l 376 1345 l 593 1345 l 450 1135 l 300 1135 z "},"Ŝ":{"ha":801,"x_min":38,"x_max":709,"o":"m 481 935 l 266 935 l 266 754 q 374 680 266 680 q 609 605 515 680 q 709 393 709 525 l 709 157 q 659 45 709 92 q 541 0 610 0 l 206 0 q 88 45 138 0 q 38 157 38 92 l 38 388 l 266 388 l 266 212 l 481 212 l 481 393 q 374 467 481 467 q 138 543 233 467 q 38 754 38 623 l 38 991 q 88 1102 38 1056 q 206 1147 138 1147 l 541 1147 q 659 1102 610 1147 q 709 991 709 1056 l 709 760 l 481 760 l 481 935 m 438 1207 l 374 1305 l 311 1207 l 168 1207 l 241 1407 l 509 1407 l 581 1207 l 438 1207 z "},"ŝ":{"ha":810,"x_min":79,"x_max":717,"o":"m 500 888 l 295 888 l 295 716 q 397 646 295 646 q 621 574 532 646 q 717 374 717 498 l 717 149 q 669 43 717 87 q 557 0 622 0 l 239 0 q 126 43 174 0 q 79 149 79 87 l 79 368 l 295 368 l 295 201 l 500 201 l 500 374 q 397 444 500 444 q 174 515 264 444 q 79 716 79 591 l 79 941 q 126 1047 79 1003 q 239 1090 174 1090 l 557 1090 q 669 1047 622 1090 q 717 941 717 1003 l 717 722 l 500 722 l 500 888 m 462 1149 l 398 1248 l 335 1149 l 191 1149 l 264 1350 l 532 1350 l 604 1149 l 462 1149 z "},"Ş":{"ha":801,"x_min":38,"x_max":709,"o":"m 481 935 l 266 935 l 266 754 q 374 680 266 680 q 609 605 515 680 q 709 393 709 525 l 709 157 q 659 45 709 92 q 541 0 610 0 l 206 0 q 88 45 138 0 q 38 157 38 92 l 38 388 l 266 388 l 266 212 l 481 212 l 481 393 q 374 467 481 467 q 138 543 233 467 q 38 754 38 623 l 38 991 q 88 1102 38 1056 q 206 1147 138 1147 l 541 1147 q 659 1102 610 1147 q 709 991 709 1056 l 709 760 l 481 760 l 481 935 m 270 -161 q 349 -188 323 -188 q 398 -171 377 -188 q 418 -129 418 -153 q 398 -86 418 -104 q 334 -56 384 -75 l 381 18 q 473 -23 433 10 q 524 -129 524 -67 q 472 -234 524 -190 q 349 -277 421 -277 q 224 -233 275 -277 l 270 -161 z "},"ş":{"ha":810,"x_min":79,"x_max":717,"o":"m 500 888 l 295 888 l 295 716 q 397 646 295 646 q 621 574 532 646 q 717 374 717 498 l 717 149 q 669 43 717 87 q 557 0 622 0 l 239 0 q 126 43 174 0 q 79 149 79 87 l 79 368 l 295 368 l 295 201 l 500 201 l 500 374 q 397 444 500 444 q 174 515 264 444 q 79 716 79 591 l 79 941 q 126 1047 79 1003 q 239 1090 174 1090 l 557 1090 q 669 1047 622 1090 q 717 941 717 1003 l 717 722 l 500 722 l 500 888 m 294 -161 q 372 -188 347 -188 q 421 -171 401 -188 q 442 -129 442 -153 q 422 -86 442 -104 q 358 -56 408 -75 l 405 18 q 496 -23 456 10 q 547 -129 547 -67 q 496 -234 547 -190 q 372 -277 445 -277 q 248 -233 299 -277 l 294 -161 z "},"Š":{"ha":801,"x_min":38,"x_max":709,"o":"m 481 935 l 266 935 l 266 754 q 374 680 266 680 q 609 605 515 680 q 709 393 709 525 l 709 157 q 659 45 709 92 q 541 0 610 0 l 206 0 q 88 45 138 0 q 38 157 38 92 l 38 388 l 266 388 l 266 212 l 481 212 l 481 393 q 374 467 481 467 q 138 543 233 467 q 38 754 38 623 l 38 991 q 88 1102 38 1056 q 206 1147 138 1147 l 541 1147 q 659 1102 610 1147 q 709 991 709 1056 l 709 760 l 481 760 l 481 935 m 581 1407 l 509 1207 l 241 1207 l 168 1407 l 311 1407 l 374 1309 l 438 1407 l 581 1407 z "},"š":{"ha":810,"x_min":79,"x_max":717,"o":"m 500 888 l 295 888 l 295 716 q 397 646 295 646 q 621 574 532 646 q 717 374 717 498 l 717 149 q 669 43 717 87 q 557 0 622 0 l 239 0 q 126 43 174 0 q 79 149 79 87 l 79 368 l 295 368 l 295 201 l 500 201 l 500 374 q 397 444 500 444 q 174 515 264 444 q 79 716 79 591 l 79 941 q 126 1047 79 1003 q 239 1090 174 1090 l 557 1090 q 669 1047 622 1090 q 717 941 717 1003 l 717 722 l 500 722 l 500 888 m 604 1350 l 532 1149 l 264 1149 l 191 1350 l 335 1350 l 398 1251 l 462 1350 l 604 1350 z "},"Ţ":{"ha":674,"x_min":-15,"x_max":656,"o":"m 289 0 l 208 0 l 208 935 l -15 935 l -15 1147 l 656 1147 l 656 935 l 435 935 l 435 0 l 356 0 q 391 -23 375 -9 q 442 -129 442 -67 q 391 -234 442 -190 q 267 -277 340 -277 q 143 -233 194 -277 l 189 -161 q 267 -188 242 -188 q 316 -171 296 -188 q 337 -129 337 -153 q 317 -86 337 -104 q 253 -56 302 -75 l 289 0 z "},"ţ":{"ha":662,"x_min":15,"x_max":653,"o":"m 290 0 l 227 0 l 227 888 l 15 888 l 15 1090 l 653 1090 l 653 888 l 442 888 l 442 0 l 357 0 q 393 -23 376 -9 q 444 -129 444 -67 q 392 -234 444 -190 q 269 -277 341 -277 q 144 -233 195 -277 l 190 -161 q 269 -188 243 -188 q 318 -171 297 -188 q 338 -129 338 -153 q 318 -86 338 -104 q 254 -56 304 -75 l 290 0 z "},"Ť":{"ha":674,"x_min":-15,"x_max":656,"o":"m 208 935 l -15 935 l -15 1147 l 656 1147 l 656 935 l 435 935 l 435 0 l 208 0 l 208 935 m 528 1407 l 456 1207 l 188 1207 l 115 1407 l 258 1407 l 321 1309 l 385 1407 l 528 1407 z "},"ť":{"ha":1034,"x_min":15,"x_max":864,"o":"m 227 888 l 15 888 l 15 1090 l 653 1090 l 653 888 l 442 888 l 442 0 l 227 0 l 227 888 m 864 1090 l 864 941 l 745 773 l 745 941 l 696 941 l 696 1090 l 864 1090 z "},"Ŧ":{"ha":674,"x_min":-15,"x_max":656,"o":"m 208 646 l 208 935 l -15 935 l -15 1147 l 656 1147 l 656 935 l 435 935 l 435 646 l 629 646 l 629 502 l 435 502 l 435 0 l 208 0 l 208 502 l 13 502 l 13 646 l 208 646 z "},"ŧ":{"ha":640,"x_min":-15,"x_max":623,"o":"m 197 614 l 197 888 l -15 888 l -15 1090 l 623 1090 l 623 888 l 412 888 l 412 614 l 597 614 l 597 477 l 412 477 l 412 0 l 197 0 l 197 477 l 12 477 l 12 614 l 197 614 z "},"Ũ":{"ha":842,"x_min":49,"x_max":720,"o":"m 277 212 l 492 212 l 492 1147 l 720 1147 l 720 157 q 670 45 720 92 q 552 0 621 0 l 217 0 q 99 45 149 0 q 49 157 49 92 l 49 1147 l 277 1147 l 277 212 m 302 1254 q 282 1261 292 1261 q 231 1213 256 1261 l 220 1187 l 141 1239 l 152 1265 q 250 1392 189 1356 q 313 1409 281 1409 q 382 1387 347 1409 l 467 1331 q 487 1324 477 1324 q 538 1373 513 1324 l 549 1398 l 628 1346 l 617 1320 q 519 1194 581 1230 q 457 1176 488 1176 q 387 1200 422 1176 l 302 1254 z "},"ũ":{"ha":845,"x_min":90,"x_max":728,"o":"m 306 201 l 511 201 l 511 1090 l 728 1090 l 728 149 q 680 43 728 87 q 568 0 633 0 l 250 0 q 137 43 184 0 q 90 149 90 87 l 90 1090 l 306 1090 l 306 201 m 327 1196 q 307 1203 317 1203 q 256 1156 280 1203 l 245 1129 l 165 1181 l 176 1208 q 275 1334 213 1299 q 337 1352 306 1352 q 407 1329 372 1352 l 491 1274 q 511 1267 501 1267 q 562 1315 538 1267 l 573 1341 l 652 1289 l 642 1263 q 543 1136 605 1172 q 481 1118 512 1118 q 411 1142 446 1118 l 327 1196 z "},"Ū":{"ha":842,"x_min":49,"x_max":720,"o":"m 277 212 l 492 212 l 492 1147 l 720 1147 l 720 157 q 670 45 720 92 q 552 0 621 0 l 217 0 q 99 45 149 0 q 49 157 49 92 l 49 1147 l 277 1147 l 277 212 m 560 1377 l 560 1231 l 210 1231 l 210 1377 l 560 1377 z "},"ū":{"ha":845,"x_min":90,"x_max":728,"o":"m 306 201 l 511 201 l 511 1090 l 728 1090 l 728 149 q 680 43 728 87 q 568 0 633 0 l 250 0 q 137 43 184 0 q 90 149 90 87 l 90 1090 l 306 1090 l 306 201 m 584 1319 l 584 1173 l 233 1173 l 233 1319 l 584 1319 z "},"Ŭ":{"ha":842,"x_min":49,"x_max":720,"o":"m 277 212 l 492 212 l 492 1147 l 720 1147 l 720 157 q 670 45 720 92 q 552 0 621 0 l 217 0 q 99 45 149 0 q 49 157 49 92 l 49 1147 l 277 1147 l 277 212 m 591 1407 q 386 1207 519 1207 q 178 1407 252 1207 l 322 1407 q 385 1347 354 1347 q 449 1407 417 1347 l 591 1407 z "},"ŭ":{"ha":845,"x_min":90,"x_max":728,"o":"m 306 201 l 511 201 l 511 1090 l 728 1090 l 728 149 q 680 43 728 87 q 568 0 633 0 l 250 0 q 137 43 184 0 q 90 149 90 87 l 90 1090 l 306 1090 l 306 201 m 615 1350 q 410 1149 543 1149 q 202 1350 275 1149 l 346 1350 q 409 1289 378 1289 q 473 1350 441 1289 l 615 1350 z "},"Ů":{"ha":842,"x_min":49,"x_max":720,"o":"m 277 212 l 492 212 l 492 1147 l 720 1147 l 720 157 q 670 45 720 92 q 552 0 621 0 l 217 0 q 99 45 149 0 q 49 157 49 92 l 49 1147 l 277 1147 l 277 212 m 385 1453 q 493 1408 448 1453 q 538 1299 538 1363 q 493 1191 538 1236 q 385 1146 448 1146 q 276 1191 321 1146 q 231 1299 231 1236 q 276 1408 231 1363 q 385 1453 321 1453 m 385 1361 q 341 1343 359 1361 q 323 1299 323 1325 q 341 1256 323 1274 q 385 1238 359 1238 q 428 1256 410 1238 q 446 1299 446 1274 q 428 1343 446 1325 q 385 1361 410 1361 z "},"ů":{"ha":845,"x_min":90,"x_max":728,"o":"m 306 201 l 511 201 l 511 1090 l 728 1090 l 728 149 q 680 43 728 87 q 568 0 633 0 l 250 0 q 137 43 184 0 q 90 149 90 87 l 90 1090 l 306 1090 l 306 201 m 409 1396 q 517 1351 473 1396 q 562 1242 562 1305 q 517 1134 562 1179 q 409 1088 473 1088 q 300 1134 345 1088 q 256 1242 256 1179 q 300 1351 256 1305 q 409 1396 345 1396 m 409 1303 q 365 1285 383 1303 q 347 1242 347 1267 q 365 1199 347 1217 q 409 1181 383 1181 q 452 1199 434 1181 q 470 1242 470 1217 q 452 1285 470 1267 q 409 1303 434 1303 z "},"Ű":{"ha":842,"x_min":49,"x_max":720,"o":"m 277 212 l 492 212 l 492 1147 l 720 1147 l 720 157 q 670 45 720 92 q 552 0 621 0 l 217 0 q 99 45 149 0 q 49 157 49 92 l 49 1147 l 277 1147 l 277 212 m 92 1192 l 168 1402 l 385 1402 l 242 1192 l 92 1192 m 385 1192 l 460 1402 l 677 1402 l 534 1192 l 385 1192 z "},"ű":{"ha":845,"x_min":90,"x_max":728,"o":"m 306 201 l 511 201 l 511 1090 l 728 1090 l 728 149 q 680 43 728 87 q 568 0 633 0 l 250 0 q 137 43 184 0 q 90 149 90 87 l 90 1090 l 306 1090 l 306 201 m 117 1135 l 193 1345 l 409 1345 l 267 1135 l 117 1135 m 409 1135 l 485 1345 l 701 1345 l 559 1135 l 409 1135 z "},"Ų":{"ha":842,"x_min":49,"x_max":720,"o":"m 366 0 l 217 0 q 99 45 149 0 q 49 157 49 92 l 49 1147 l 277 1147 l 277 212 l 492 212 l 492 1147 l 720 1147 l 720 157 q 670 45 720 92 q 552 0 621 0 l 517 0 q 455 -29 471 -15 q 432 -73 435 -47 q 431 -79 431 -76 q 446 -114 431 -100 q 486 -129 463 -129 l 490 -129 q 557 -109 509 -127 l 575 -187 q 481 -220 532 -216 l 471 -220 q 371 -182 410 -220 q 334 -95 334 -146 q 335 -79 334 -87 q 366 0 339 -36 z "},"ų":{"ha":845,"x_min":90,"x_max":728,"o":"m 442 0 l 250 0 q 137 43 184 0 q 90 149 90 87 l 90 1090 l 306 1090 l 306 201 l 511 201 l 511 1090 l 728 1090 l 728 149 q 680 43 728 87 q 602 3 646 12 q 533 -28 550 -13 q 510 -71 513 -46 q 509 -78 509 -75 q 524 -113 509 -98 q 564 -127 541 -127 l 568 -127 q 635 -107 587 -126 l 653 -186 q 559 -218 610 -215 l 549 -218 q 449 -180 488 -218 q 412 -94 412 -145 q 413 -77 412 -85 q 442 0 417 -35 z "},"Ŵ":{"ha":1307,"x_min":-3,"x_max":1270,"o":"m 488 1147 l 778 1147 l 917 214 q 1039 1147 985 833 l 1270 1147 l 1074 0 l 769 0 l 633 826 l 498 0 l 193 0 l -3 1147 l 227 1147 q 349 214 281 833 l 488 1147 m 697 1207 l 633 1305 l 570 1207 l 427 1207 l 500 1407 l 768 1407 l 840 1207 l 697 1207 z "},"ŵ":{"ha":1276,"x_min":30,"x_max":1239,"o":"m 497 1090 l 772 1090 l 904 203 q 1020 1090 969 792 l 1239 1090 l 1053 0 l 764 0 l 635 785 l 506 0 l 217 0 l 30 1090 l 249 1090 q 365 203 300 792 l 497 1090 m 699 1149 l 635 1248 l 572 1149 l 428 1149 l 501 1350 l 769 1350 l 841 1149 l 699 1149 z "},"Ŷ":{"ha":686,"x_min":-27,"x_max":679,"o":"m 440 393 l 440 0 l 212 0 l 212 392 l -27 1147 l 205 1147 q 326 598 256 980 q 446 1147 397 980 l 679 1147 l 440 393 m 390 1207 l 326 1305 l 263 1207 l 119 1207 l 193 1407 l 460 1407 l 532 1207 l 390 1207 z "},"ŷ":{"ha":687,"x_min":5,"x_max":676,"o":"m 450 373 l 450 0 l 233 0 l 233 372 l 5 1090 l 227 1090 q 340 568 274 931 q 455 1090 408 931 l 676 1090 l 450 373 m 405 1149 l 341 1248 l 278 1149 l 134 1149 l 208 1350 l 475 1350 l 547 1149 l 405 1149 z "},"Ÿ":{"ha":686,"x_min":-27,"x_max":679,"o":"m 440 393 l 440 0 l 212 0 l 212 392 l -27 1147 l 205 1147 q 326 598 256 980 q 446 1147 397 980 l 679 1147 l 440 393 m 262 1379 l 262 1211 l 72 1211 l 72 1379 l 262 1379 m 580 1379 l 580 1211 l 389 1211 l 389 1379 l 580 1379 z "},"Ź":{"ha":614,"x_min":-3,"x_max":574,"o":"m 277 935 l 13 935 l 13 1147 l 574 1147 l 292 212 l 557 212 l 557 0 l -3 0 l 277 935 m 188 1192 l 264 1402 l 480 1402 l 338 1192 l 188 1192 z "},"ź":{"ha":640,"x_min":33,"x_max":581,"o":"m 300 888 l 49 888 l 49 1090 l 581 1090 l 314 201 l 566 201 l 566 0 l 33 0 l 300 888 m 210 1135 l 286 1345 l 502 1345 l 359 1135 l 210 1135 z "},"Ż":{"ha":614,"x_min":-3,"x_max":574,"o":"m 277 935 l 13 935 l 13 1147 l 574 1147 l 292 212 l 557 212 l 557 0 l -3 0 l 277 935 m 380 1379 l 380 1230 l 190 1230 l 190 1379 l 380 1379 z "},"ż":{"ha":640,"x_min":33,"x_max":581,"o":"m 300 888 l 49 888 l 49 1090 l 581 1090 l 314 201 l 566 201 l 566 0 l 33 0 l 300 888 m 403 1322 l 403 1173 l 212 1173 l 212 1322 l 403 1322 z "},"Ž":{"ha":614,"x_min":-3,"x_max":574,"o":"m 277 935 l 13 935 l 13 1147 l 574 1147 l 292 212 l 557 212 l 557 0 l -3 0 l 277 935 m 492 1407 l 420 1207 l 152 1207 l 79 1407 l 222 1407 l 286 1309 l 349 1407 l 492 1407 z "},"ž":{"ha":640,"x_min":33,"x_max":581,"o":"m 300 888 l 49 888 l 49 1090 l 581 1090 l 314 201 l 566 201 l 566 0 l 33 0 l 300 888 m 514 1350 l 442 1149 l 174 1149 l 101 1350 l 245 1350 l 308 1251 l 372 1350 l 514 1350 z "},"ſ":{"ha":701,"x_min":95,"x_max":672,"o":"m 95 1090 l 672 1090 l 672 888 l 311 888 l 311 646 l 612 646 l 612 444 l 311 444 l 311 0 l 95 0 l 95 1090 z "},"Ș":{"ha":801,"x_min":38,"x_max":709,"o":"m 481 935 l 266 935 l 266 754 q 374 680 266 680 q 609 605 515 680 q 709 393 709 525 l 709 157 q 659 45 709 92 q 541 0 610 0 l 206 0 q 88 45 138 0 q 38 157 38 92 l 38 388 l 266 388 l 266 212 l 481 212 l 481 393 q 374 467 481 467 q 138 543 233 467 q 38 754 38 623 l 38 991 q 88 1102 38 1056 q 206 1147 138 1147 l 541 1147 q 659 1102 610 1147 q 709 991 709 1056 l 709 760 l 481 760 l 481 935 m 469 -9 l 469 -136 l 334 -280 l 334 -136 l 277 -136 l 277 -9 l 469 -9 z "},"ș":{"ha":810,"x_min":79,"x_max":717,"o":"m 500 888 l 295 888 l 295 716 q 397 646 295 646 q 621 574 532 646 q 717 374 717 498 l 717 149 q 669 43 717 87 q 557 0 622 0 l 239 0 q 126 43 174 0 q 79 149 79 87 l 79 368 l 295 368 l 295 201 l 500 201 l 500 374 q 397 444 500 444 q 174 515 264 444 q 79 716 79 591 l 79 941 q 126 1047 79 1003 q 239 1090 174 1090 l 557 1090 q 669 1047 622 1090 q 717 941 717 1003 l 717 722 l 500 722 l 500 888 m 494 -9 l 494 -136 l 358 -280 l 358 -136 l 302 -136 l 302 -9 l 494 -9 z "},"Ț":{"ha":674,"x_min":-15,"x_max":656,"o":"m 208 935 l -15 935 l -15 1147 l 656 1147 l 656 935 l 435 935 l 435 0 l 208 0 l 208 935 m 416 -9 l 416 -136 l 281 -280 l 281 -136 l 224 -136 l 224 -9 l 416 -9 z "},"ț":{"ha":662,"x_min":15,"x_max":653,"o":"m 227 888 l 15 888 l 15 1090 l 653 1090 l 653 888 l 442 888 l 442 0 l 227 0 l 227 888 m 430 -9 l 430 -136 l 294 -280 l 294 -136 l 238 -136 l 238 -9 l 430 -9 z "},"Ȳ":{"ha":686,"x_min":-27,"x_max":679,"o":"m 440 393 l 440 0 l 212 0 l 212 392 l -27 1147 l 205 1147 q 326 598 256 980 q 446 1147 397 980 l 679 1147 l 440 393 m 501 1377 l 501 1231 l 151 1231 l 151 1377 l 501 1377 z "},"ȳ":{"ha":687,"x_min":5,"x_max":676,"o":"m 450 373 l 450 0 l 233 0 l 233 372 l 5 1090 l 227 1090 q 340 568 274 931 q 455 1090 408 931 l 676 1090 l 450 373 m 516 1319 l 516 1173 l 165 1173 l 165 1319 l 516 1319 z "},"Ḍ":{"ha":841,"x_min":57,"x_max":728,"o":"m 285 935 l 285 212 l 393 212 q 500 287 500 212 l 500 935 l 285 935 m 57 1147 l 560 1147 q 678 1102 629 1147 q 728 991 728 1056 l 728 287 q 628 75 728 155 q 393 0 534 0 l 57 0 l 57 1147 m 495 -35 l 495 -215 l 291 -215 l 291 -35 l 495 -35 z "},"ḍ":{"ha":840,"x_min":94,"x_max":732,"o":"m 311 888 l 311 201 l 413 201 q 515 273 515 201 l 515 888 l 311 888 m 94 1090 l 572 1090 q 684 1047 637 1090 q 732 941 732 1003 l 732 273 q 637 71 732 148 q 413 0 547 0 l 94 0 l 94 1090 m 515 -35 l 515 -215 l 311 -215 l 311 -35 l 515 -35 z "},"Ḥ":{"ha":853,"x_min":57,"x_max":728,"o":"m 285 467 l 285 0 l 57 0 l 57 1147 l 285 1147 l 285 680 l 500 680 l 500 1147 l 728 1147 l 728 0 l 500 0 l 500 467 l 285 467 m 495 -35 l 495 -215 l 291 -215 l 291 -35 l 495 -35 z "},"ḥ":{"ha":853,"x_min":95,"x_max":733,"o":"m 311 444 l 311 0 l 95 0 l 95 1090 l 311 1090 l 311 646 l 516 646 l 516 1090 l 733 1090 l 733 0 l 516 0 l 516 444 l 311 444 m 516 -35 l 516 -215 l 312 -215 l 312 -35 l 516 -35 z "},"Ḳ":{"ha":785,"x_min":57,"x_max":745,"o":"m 285 467 l 285 0 l 57 0 l 57 1147 l 285 1147 l 285 680 l 372 680 l 513 1147 l 745 1147 l 572 574 l 745 0 l 513 0 l 372 467 l 285 467 m 503 -35 l 503 -215 l 299 -215 l 299 -35 l 503 -35 z "},"ḳ":{"ha":801,"x_min":95,"x_max":748,"o":"m 311 444 l 311 0 l 95 0 l 95 1090 l 311 1090 l 311 646 l 395 646 l 528 1090 l 748 1090 l 585 545 l 748 0 l 528 0 l 395 444 l 311 444 m 524 -35 l 524 -215 l 319 -215 l 319 -35 l 524 -35 z "},"Ḷ":{"ha":638,"x_min":57,"x_max":601,"o":"m 57 0 l 57 1147 l 285 1147 l 285 212 l 601 212 l 601 0 l 57 0 m 431 -35 l 431 -215 l 227 -215 l 227 -35 l 431 -35 z "},"ḷ":{"ha":642,"x_min":94,"x_max":611,"o":"m 94 0 l 94 1090 l 311 1090 l 311 201 l 611 201 l 611 0 l 94 0 m 455 -35 l 455 -215 l 251 -215 l 251 -35 l 455 -35 z "},"Ḹ":{"ha":638,"x_min":57,"x_max":601,"o":"m 57 0 l 57 1147 l 285 1147 l 285 212 l 601 212 l 601 0 l 57 0 m 505 1377 l 505 1231 l 154 1231 l 154 1377 l 505 1377 m 431 -35 l 431 -215 l 227 -215 l 227 -35 l 431 -35 z "},"ḹ":{"ha":642,"x_min":94,"x_max":611,"o":"m 94 0 l 94 1090 l 311 1090 l 311 201 l 611 201 l 611 0 l 94 0 m 528 1377 l 528 1231 l 178 1231 l 178 1377 l 528 1377 m 455 -35 l 455 -215 l 251 -215 l 251 -35 l 455 -35 z "},"Ḻ":{"ha":638,"x_min":9,"x_max":649,"o":"m 57 0 l 57 1147 l 285 1147 l 285 212 l 601 212 l 601 0 l 57 0 m 649 -44 l 649 -190 l 9 -190 l 9 -44 l 649 -44 z "},"ḻ":{"ha":642,"x_min":33,"x_max":673,"o":"m 94 0 l 94 1090 l 311 1090 l 311 201 l 611 201 l 611 0 l 94 0 m 673 -44 l 673 -190 l 33 -190 l 33 -44 l 673 -44 z "},"Ṁ":{"ha":1233,"x_min":57,"x_max":1108,"o":"m 1108 1147 l 1108 0 l 880 0 l 880 756 l 722 0 l 445 0 l 285 756 l 285 0 l 57 0 l 57 1147 l 373 1147 l 583 215 l 792 1147 l 1108 1147 m 678 1379 l 678 1230 l 488 1230 l 488 1379 l 678 1379 z "},"ṁ":{"ha":1213,"x_min":95,"x_max":1094,"o":"m 1094 1090 l 1094 0 l 877 0 l 877 718 l 726 0 l 463 0 l 311 718 l 311 0 l 95 0 l 95 1090 l 395 1090 l 595 204 l 793 1090 l 1094 1090 m 690 1322 l 690 1173 l 499 1173 l 499 1322 l 690 1322 z "},"Ṃ":{"ha":1233,"x_min":57,"x_max":1108,"o":"m 1108 1147 l 1108 0 l 880 0 l 880 756 l 722 0 l 445 0 l 285 756 l 285 0 l 57 0 l 57 1147 l 373 1147 l 583 215 l 792 1147 l 1108 1147 m 685 -35 l 685 -215 l 481 -215 l 481 -35 l 685 -35 z "},"ṃ":{"ha":1213,"x_min":95,"x_max":1094,"o":"m 1094 1090 l 1094 0 l 877 0 l 877 718 l 726 0 l 463 0 l 311 718 l 311 0 l 95 0 l 95 1090 l 395 1090 l 595 204 l 793 1090 l 1094 1090 m 696 -35 l 696 -215 l 492 -215 l 492 -35 l 696 -35 z "},"Ṅ":{"ha":912,"x_min":57,"x_max":787,"o":"m 285 739 l 285 0 l 57 0 l 57 1147 l 373 1147 l 559 405 l 559 1147 l 787 1147 l 787 0 l 472 0 l 285 739 m 517 1379 l 517 1230 l 327 1230 l 327 1379 l 517 1379 z "},"ṅ":{"ha":909,"x_min":95,"x_max":789,"o":"m 311 702 l 311 0 l 95 0 l 95 1090 l 395 1090 l 572 385 l 572 1090 l 789 1090 l 789 0 l 489 0 l 311 702 m 537 1322 l 537 1173 l 347 1173 l 347 1322 l 537 1322 z "},"Ṇ":{"ha":912,"x_min":57,"x_max":787,"o":"m 285 739 l 285 0 l 57 0 l 57 1147 l 373 1147 l 559 405 l 559 1147 l 787 1147 l 787 0 l 472 0 l 285 739 m 524 -35 l 524 -215 l 320 -215 l 320 -35 l 524 -35 z "},"ṇ":{"ha":909,"x_min":95,"x_max":789,"o":"m 311 702 l 311 0 l 95 0 l 95 1090 l 395 1090 l 572 385 l 572 1090 l 789 1090 l 789 0 l 489 0 l 311 702 m 544 -35 l 544 -215 l 340 -215 l 340 -35 l 544 -35 z "},"Ṉ":{"ha":912,"x_min":57,"x_max":787,"o":"m 285 739 l 285 0 l 57 0 l 57 1147 l 373 1147 l 559 405 l 559 1147 l 787 1147 l 787 0 l 472 0 l 285 739 m 743 -44 l 743 -190 l 102 -190 l 102 -44 l 743 -44 z "},"ṉ":{"ha":909,"x_min":95,"x_max":789,"o":"m 311 702 l 311 0 l 95 0 l 95 1090 l 395 1090 l 572 385 l 572 1090 l 789 1090 l 789 0 l 489 0 l 311 702 m 762 -44 l 762 -190 l 122 -190 l 122 -44 l 762 -44 z "},"Ṙ":{"ha":835,"x_min":57,"x_max":728,"o":"m 419 621 q 476 643 452 621 q 500 695 500 664 l 500 935 l 285 935 l 285 621 l 419 621 m 285 409 l 285 0 l 57 0 l 57 1147 l 560 1147 q 678 1102 629 1147 q 728 991 728 1056 l 728 695 q 641 515 728 583 q 728 334 728 448 l 728 0 l 500 0 l 500 334 q 476 388 500 366 q 419 409 452 409 l 285 409 m 488 1379 l 488 1230 l 298 1230 l 298 1379 l 488 1379 z "},"ṙ":{"ha":844,"x_min":95,"x_max":733,"o":"m 439 590 q 493 611 470 590 q 516 661 516 631 l 516 888 l 311 888 l 311 590 l 439 590 m 311 389 l 311 0 l 95 0 l 95 1090 l 573 1090 q 685 1047 638 1090 q 733 941 733 1003 l 733 661 q 650 490 733 553 q 733 317 733 426 l 733 0 l 516 0 l 516 317 q 493 368 516 347 q 439 389 470 389 l 311 389 m 509 1322 l 509 1173 l 319 1173 l 319 1322 l 509 1322 z "},"Ṛ":{"ha":835,"x_min":57,"x_max":728,"o":"m 419 621 q 476 643 452 621 q 500 695 500 664 l 500 935 l 285 935 l 285 621 l 419 621 m 285 409 l 285 0 l 57 0 l 57 1147 l 560 1147 q 678 1102 629 1147 q 728 991 728 1056 l 728 695 q 641 515 728 583 q 728 334 728 448 l 728 0 l 500 0 l 500 334 q 476 388 500 366 q 419 409 452 409 l 285 409 m 495 -35 l 495 -215 l 291 -215 l 291 -35 l 495 -35 z "},"ṛ":{"ha":844,"x_min":95,"x_max":733,"o":"m 439 590 q 493 611 470 590 q 516 661 516 631 l 516 888 l 311 888 l 311 590 l 439 590 m 311 389 l 311 0 l 95 0 l 95 1090 l 573 1090 q 685 1047 638 1090 q 733 941 733 1003 l 733 661 q 650 490 733 553 q 733 317 733 426 l 733 0 l 516 0 l 516 317 q 493 368 516 347 q 439 389 470 389 l 311 389 m 408 -35 l 408 -215 l 203 -215 l 203 -35 l 408 -35 z "},"Ṝ":{"ha":835,"x_min":57,"x_max":728,"o":"m 419 621 q 476 643 452 621 q 500 695 500 664 l 500 935 l 285 935 l 285 621 l 419 621 m 285 409 l 285 0 l 57 0 l 57 1147 l 560 1147 q 678 1102 629 1147 q 728 991 728 1056 l 728 695 q 641 515 728 583 q 728 334 728 448 l 728 0 l 500 0 l 500 334 q 476 388 500 366 q 419 409 452 409 l 285 409 m 568 1377 l 568 1231 l 218 1231 l 218 1377 l 568 1377 m 495 -35 l 495 -215 l 291 -215 l 291 -35 l 495 -35 z "},"ṝ":{"ha":844,"x_min":95,"x_max":733,"o":"m 439 590 q 493 611 470 590 q 516 661 516 631 l 516 888 l 311 888 l 311 590 l 439 590 m 311 389 l 311 0 l 95 0 l 95 1090 l 573 1090 q 685 1047 638 1090 q 733 941 733 1003 l 733 661 q 650 490 733 553 q 733 317 733 426 l 733 0 l 516 0 l 516 317 q 493 368 516 347 q 439 389 470 389 l 311 389 m 589 1319 l 589 1173 l 239 1173 l 239 1319 l 589 1319 m 408 -35 l 408 -215 l 203 -215 l 203 -35 l 408 -35 z "},"Ṟ":{"ha":835,"x_min":57,"x_max":728,"o":"m 419 621 q 476 643 452 621 q 500 695 500 664 l 500 935 l 285 935 l 285 621 l 419 621 m 285 409 l 285 0 l 57 0 l 57 1147 l 560 1147 q 678 1102 629 1147 q 728 991 728 1056 l 728 695 q 641 515 728 583 q 728 334 728 448 l 728 0 l 500 0 l 500 334 q 476 388 500 366 q 419 409 452 409 l 285 409 m 713 -44 l 713 -190 l 73 -190 l 73 -44 l 713 -44 z "},"ṟ":{"ha":801,"x_min":57,"x_max":695,"o":"m 401 581 q 455 602 432 581 q 478 651 478 621 l 478 879 l 273 879 l 273 581 l 401 581 m 273 379 l 273 -9 l 57 -9 l 57 1080 l 535 1080 q 647 1038 600 1080 q 695 932 695 994 l 695 651 q 612 480 695 544 q 695 308 695 416 l 695 -9 l 478 -9 l 478 308 q 455 359 478 338 q 401 379 432 379 l 273 379 m 680 -52 l 680 -190 l 72 -190 l 72 -52 l 680 -52 z "},"Ṣ":{"ha":801,"x_min":38,"x_max":709,"o":"m 481 935 l 266 935 l 266 754 q 374 680 266 680 q 609 605 515 680 q 709 393 709 525 l 709 157 q 659 45 709 92 q 541 0 610 0 l 206 0 q 88 45 138 0 q 38 157 38 92 l 38 388 l 266 388 l 266 212 l 481 212 l 481 393 q 374 467 481 467 q 138 543 233 467 q 38 754 38 623 l 38 991 q 88 1102 38 1056 q 206 1147 138 1147 l 541 1147 q 659 1102 610 1147 q 709 991 709 1056 l 709 760 l 481 760 l 481 935 m 476 -35 l 476 -215 l 272 -215 l 272 -35 l 476 -35 z "},"ṣ":{"ha":810,"x_min":79,"x_max":717,"o":"m 500 888 l 295 888 l 295 716 q 397 646 295 646 q 621 574 532 646 q 717 374 717 498 l 717 149 q 669 43 717 87 q 557 0 622 0 l 239 0 q 126 43 174 0 q 79 149 79 87 l 79 368 l 295 368 l 295 201 l 500 201 l 500 374 q 397 444 500 444 q 174 515 264 444 q 79 716 79 591 l 79 941 q 126 1047 79 1003 q 239 1090 174 1090 l 557 1090 q 669 1047 622 1090 q 717 941 717 1003 l 717 722 l 500 722 l 500 888 m 500 -35 l 500 -215 l 296 -215 l 296 -35 l 500 -35 z "},"Ṭ":{"ha":674,"x_min":-15,"x_max":656,"o":"m 208 935 l -15 935 l -15 1147 l 656 1147 l 656 935 l 435 935 l 435 0 l 208 0 l 208 935 m 423 -35 l 423 -215 l 219 -215 l 219 -35 l 423 -35 z "},"ṭ":{"ha":662,"x_min":15,"x_max":653,"o":"m 227 888 l 15 888 l 15 1090 l 653 1090 l 653 888 l 442 888 l 442 0 l 227 0 l 227 888 m 436 -35 l 436 -215 l 232 -215 l 232 -35 l 436 -35 z "},"Ẁ":{"ha":1307,"x_min":-3,"x_max":1270,"o":"m 488 1147 l 778 1147 l 917 214 q 1039 1147 985 833 l 1270 1147 l 1074 0 l 769 0 l 633 826 l 498 0 l 193 0 l -3 1147 l 227 1147 q 349 214 281 833 l 488 1147 m 581 1192 l 438 1402 l 654 1402 l 730 1192 l 581 1192 z "},"ẁ":{"ha":1276,"x_min":30,"x_max":1239,"o":"m 497 1090 l 772 1090 l 904 203 q 1020 1090 969 792 l 1239 1090 l 1053 0 l 764 0 l 635 785 l 506 0 l 217 0 l 30 1090 l 249 1090 q 365 203 300 792 l 497 1090 m 582 1135 l 439 1345 l 656 1345 l 732 1135 l 582 1135 z "},"Ẃ":{"ha":1307,"x_min":-3,"x_max":1270,"o":"m 488 1147 l 778 1147 l 917 214 q 1039 1147 985 833 l 1270 1147 l 1074 0 l 769 0 l 633 826 l 498 0 l 193 0 l -3 1147 l 227 1147 q 349 214 281 833 l 488 1147 m 536 1192 l 612 1402 l 828 1402 l 686 1192 l 536 1192 z "},"ẃ":{"ha":1276,"x_min":30,"x_max":1239,"o":"m 497 1090 l 772 1090 l 904 203 q 1020 1090 969 792 l 1239 1090 l 1053 0 l 764 0 l 635 785 l 506 0 l 217 0 l 30 1090 l 249 1090 q 365 203 300 792 l 497 1090 m 537 1135 l 613 1345 l 829 1345 l 687 1135 l 537 1135 z "},"Ẅ":{"ha":1307,"x_min":-3,"x_max":1270,"o":"m 488 1147 l 778 1147 l 917 214 q 1039 1147 985 833 l 1270 1147 l 1074 0 l 769 0 l 633 826 l 498 0 l 193 0 l -3 1147 l 227 1147 q 349 214 281 833 l 488 1147 m 570 1379 l 570 1211 l 379 1211 l 379 1379 l 570 1379 m 887 1379 l 887 1211 l 696 1211 l 696 1379 l 887 1379 z "},"ẅ":{"ha":1276,"x_min":30,"x_max":1239,"o":"m 497 1090 l 772 1090 l 904 203 q 1020 1090 969 792 l 1239 1090 l 1053 0 l 764 0 l 635 785 l 506 0 l 217 0 l 30 1090 l 249 1090 q 365 203 300 792 l 497 1090 m 571 1322 l 571 1154 l 380 1154 l 380 1322 l 571 1322 m 888 1322 l 888 1154 l 698 1154 l 698 1322 l 888 1322 z "},"Ẉ":{"ha":1307,"x_min":-3,"x_max":1270,"o":"m 488 1147 l 778 1147 l 917 214 q 1039 1147 985 833 l 1270 1147 l 1074 0 l 769 0 l 633 826 l 498 0 l 193 0 l -3 1147 l 227 1147 q 349 214 281 833 l 488 1147 m 735 -35 l 735 -215 l 531 -215 l 531 -35 l 735 -35 z "},"ẉ":{"ha":1276,"x_min":30,"x_max":1239,"o":"m 497 1090 l 772 1090 l 904 203 q 1020 1090 969 792 l 1239 1090 l 1053 0 l 764 0 l 635 785 l 506 0 l 217 0 l 30 1090 l 249 1090 q 365 203 300 792 l 497 1090 m 736 -35 l 736 -215 l 532 -215 l 532 -35 l 736 -35 z "},"Ẓ":{"ha":614,"x_min":-3,"x_max":574,"o":"m 277 935 l 13 935 l 13 1147 l 574 1147 l 292 212 l 557 212 l 557 0 l -3 0 l 277 935 m 387 -35 l 387 -215 l 183 -215 l 183 -35 l 387 -35 z "},"ẓ":{"ha":640,"x_min":33,"x_max":581,"o":"m 300 888 l 49 888 l 49 1090 l 581 1090 l 314 201 l 566 201 l 566 0 l 33 0 l 300 888 m 410 -35 l 410 -215 l 205 -215 l 205 -35 l 410 -35 z "},"Ẽ":{"ha":724,"x_min":57,"x_max":665,"o":"m 285 212 l 665 212 l 665 0 l 57 0 l 57 1147 l 665 1147 l 665 935 l 285 935 l 285 680 l 601 680 l 601 467 l 285 467 l 285 212 m 279 1254 q 258 1261 269 1261 q 208 1213 232 1261 l 197 1187 l 117 1239 l 128 1265 q 227 1392 165 1356 q 289 1409 258 1409 q 359 1387 323 1409 l 443 1331 q 463 1324 453 1324 q 514 1373 490 1324 l 525 1398 l 604 1346 l 593 1320 q 495 1194 557 1230 q 433 1176 464 1176 q 363 1200 398 1176 l 279 1254 z "},"ẽ":{"ha":735,"x_min":94,"x_max":671,"o":"m 311 201 l 671 201 l 671 0 l 94 0 l 94 1090 l 671 1090 l 671 888 l 311 888 l 311 646 l 611 646 l 611 444 l 311 444 l 311 201 m 301 1196 q 281 1203 291 1203 q 230 1156 254 1203 l 219 1129 l 140 1181 l 151 1208 q 249 1334 187 1299 q 311 1352 280 1352 q 381 1329 346 1352 l 465 1274 q 486 1267 475 1267 q 536 1315 512 1267 l 547 1341 l 627 1289 l 616 1263 q 517 1136 579 1172 q 456 1118 486 1118 q 385 1142 420 1118 l 301 1196 z "},"Ỳ":{"ha":686,"x_min":-27,"x_max":679,"o":"m 440 393 l 440 0 l 212 0 l 212 392 l -27 1147 l 205 1147 q 326 598 256 980 q 446 1147 397 980 l 679 1147 l 440 393 m 273 1192 l 131 1402 l 347 1402 l 423 1192 l 273 1192 z "},"ỳ":{"ha":687,"x_min":5,"x_max":676,"o":"m 450 373 l 450 0 l 233 0 l 233 372 l 5 1090 l 227 1090 q 340 568 274 931 q 455 1090 408 931 l 676 1090 l 450 373 m 288 1135 l 146 1345 l 362 1345 l 438 1135 l 288 1135 z "},"Ỵ":{"ha":686,"x_min":-27,"x_max":679,"o":"m 440 393 l 440 0 l 212 0 l 212 392 l -27 1147 l 205 1147 q 326 598 256 980 q 446 1147 397 980 l 679 1147 l 440 393 m 428 -35 l 428 -215 l 224 -215 l 224 -35 l 428 -35 z "},"ỵ":{"ha":687,"x_min":5,"x_max":676,"o":"m 450 373 l 450 0 l 233 0 l 233 372 l 5 1090 l 227 1090 q 340 568 274 931 q 455 1090 408 931 l 676 1090 l 450 373 m 578 -35 l 578 -215 l 374 -215 l 374 -35 l 578 -35 z "},"‐":{"ha":705,"x_min":75,"x_max":585,"o":"m 585 449 l 75 449 l 75 641 l 585 641 l 585 449 z "},"‑":{"ha":705,"x_min":75,"x_max":585,"o":"m 585 449 l 75 449 l 75 641 l 585 641 l 585 449 z "},"‒":{"ha":883,"x_min":7,"x_max":939,"o":"m 939 478 l 7 478 l 7 670 l 939 670 l 939 478 z "},"‥":{"ha":926,"x_min":88,"x_max":791,"o":"m 328 213 l 328 1 l 88 1 l 88 213 l 328 213 m 791 213 l 791 1 l 551 1 l 551 213 l 791 213 z "},"⁄":{"ha":438,"x_min":-81,"x_max":519,"o":"m -81 0 l 342 1147 l 519 1147 l 96 0 l -81 0 z "},"⁌":{"ha":537,"x_min":36,"x_max":491,"o":"m 263 772 q 424 705 357 772 q 491 544 491 638 q 424 383 491 450 q 263 316 357 316 q 102 383 169 316 q 36 544 36 450 q 102 705 36 638 q 263 772 169 772 z "},"⁍":{"ha":537,"x_min":203,"x_max":659,"o":"m 431 772 q 270 705 337 772 q 203 544 203 638 q 270 383 203 450 q 431 316 337 316 q 592 383 526 316 q 659 544 659 450 q 592 705 659 638 q 431 772 526 772 z "},"₣":{"ha":741,"x_min":6,"x_max":665,"o":"m 57 1147 l 665 1147 l 665 935 l 285 935 l 285 680 l 601 680 l 601 467 l 285 467 l 285 0 l 57 0 l 57 1147 m 392 214 l 6 214 l 6 359 l 392 359 l 392 214 z "},"⁓":{"ha":1231,"x_min":102,"x_max":1129,"o":"m 443 584 q 400 591 421 591 q 292 539 344 591 l 270 510 l 102 568 l 124 597 q 333 736 201 697 q 464 755 398 755 q 611 730 537 755 l 788 669 q 831 662 810 662 q 939 715 887 662 l 961 743 l 1129 686 l 1107 657 q 898 517 1029 557 q 768 498 833 498 q 620 524 694 498 l 443 584 z "},"₯":{"ha":1629,"x_min":57,"x_max":1574,"o":"m 285 935 l 285 212 l 393 212 q 500 287 500 212 l 500 935 l 285 935 m 57 1147 l 560 1147 q 678 1102 629 1147 q 728 991 728 1056 l 728 287 q 628 75 728 155 q 393 0 534 0 l 57 0 l 57 1147 m 1152 888 l 1152 590 l 1255 590 q 1357 661 1357 590 l 1357 888 l 1152 888 m 936 1090 l 1414 1090 q 1526 1047 1479 1090 q 1574 941 1574 1003 l 1574 661 q 1478 460 1574 536 q 1255 389 1389 389 l 1152 389 l 1152 0 l 936 0 l 936 1090 z "},"℀":{"ha":1640,"x_min":26,"x_max":1563,"o":"m 253 647 l 332 647 l 293 996 l 253 647 m 224 496 l 191 330 l 27 330 l 185 1148 l 401 1148 l 559 330 l 394 330 l 362 496 l 224 496 m 501 0 l 924 1147 l 1102 1147 l 678 0 l 501 0 m 1400 666 l 1246 666 l 1246 151 l 1400 151 l 1400 276 l 1562 276 l 1562 111 q 1526 33 1562 65 q 1442 0 1491 0 l 1204 0 q 1119 33 1155 0 q 1084 111 1084 65 l 1084 706 q 1119 785 1084 752 q 1204 817 1155 817 l 1442 817 q 1526 785 1491 817 q 1562 706 1562 752 l 1562 542 l 1400 542 l 1400 666 z "},"℅":{"ha":1714,"x_min":84,"x_max":1600,"o":"m 400 997 l 246 997 l 246 481 l 400 481 l 400 606 l 563 606 l 563 442 q 527 363 563 395 q 443 330 492 330 l 204 330 q 120 363 155 330 q 84 442 84 395 l 84 1036 q 120 1116 84 1083 q 204 1148 155 1148 l 443 1148 q 527 1116 492 1148 q 563 1036 563 1083 l 563 872 l 400 872 l 400 997 m 539 0 l 962 1147 l 1140 1147 l 716 0 l 539 0 m 1284 666 l 1284 151 l 1438 151 l 1438 666 l 1284 666 m 1480 817 q 1564 785 1529 817 q 1600 706 1600 752 l 1600 111 q 1564 33 1600 65 q 1480 0 1529 0 l 1242 0 q 1157 33 1193 0 q 1122 111 1122 65 l 1122 706 q 1157 785 1122 752 q 1242 817 1193 817 l 1480 817 z "},"℆":{"ha":1722,"x_min":84,"x_max":1605,"o":"m 400 997 l 246 997 l 246 481 l 400 481 l 400 606 l 563 606 l 563 442 q 527 363 563 395 q 443 330 492 330 l 204 330 q 120 363 155 330 q 84 442 84 395 l 84 1036 q 120 1116 84 1083 q 204 1148 155 1148 l 443 1148 q 527 1116 492 1148 q 563 1036 563 1083 l 563 872 l 400 872 l 400 997 m 539 0 l 962 1147 l 1140 1147 l 716 0 l 539 0 m 1288 151 l 1442 151 l 1442 817 l 1604 817 l 1604 111 q 1568 33 1604 65 q 1484 0 1533 0 l 1246 0 q 1161 33 1197 0 q 1126 111 1126 65 l 1126 817 l 1288 817 l 1288 151 z "},"№":{"ha":1531,"x_min":57,"x_max":1417,"o":"m 285 739 l 285 0 l 57 0 l 57 1147 l 373 1147 l 559 405 l 559 1147 l 787 1147 l 787 0 l 472 0 l 285 739 m 1139 1027 l 1139 615 l 1274 615 l 1274 1027 l 1139 1027 m 1312 1148 q 1386 1122 1355 1148 q 1417 1058 1417 1095 l 1417 583 q 1386 520 1417 546 q 1312 494 1355 494 l 1102 494 q 1027 520 1059 494 q 996 583 996 546 l 996 1058 q 1027 1122 996 1095 q 1102 1148 1059 1148 l 1312 1148 m 1399 205 l 1014 205 l 1014 349 l 1399 349 l 1399 205 z "},"℮":{"ha":800,"x_min":84,"x_max":723,"o":"m 300 838 l 300 650 l 505 650 l 505 838 l 300 838 m 300 448 l 300 201 l 505 201 l 505 368 l 722 368 l 722 149 q 674 43 722 87 q 562 0 627 0 l 244 0 q 132 43 179 0 q 84 149 84 87 l 84 891 q 132 997 84 953 q 244 1040 179 1040 l 562 1040 q 674 997 627 1040 q 722 891 722 953 l 722 650 l 723 650 l 723 448 l 300 448 z "},"⅓":{"ha":1830,"x_min":146,"x_max":1689,"o":"m 445 493 l 584 493 l 584 345 l 146 345 l 146 493 l 286 493 l 286 999 l 146 999 l 146 1147 l 327 1147 q 410 1116 375 1147 q 445 1038 445 1084 l 445 493 m 614 0 l 1038 1147 l 1215 1147 l 791 0 l 614 0 m 1530 634 l 1411 634 l 1411 511 l 1252 511 l 1252 673 q 1287 751 1252 719 q 1370 783 1322 783 l 1571 783 q 1654 751 1619 783 q 1689 673 1689 719 l 1689 507 q 1643 381 1689 429 q 1689 255 1689 333 l 1689 89 q 1654 12 1689 43 q 1571 -20 1619 -20 l 1370 -20 q 1287 12 1322 -20 q 1252 89 1252 43 l 1252 251 l 1411 251 l 1411 128 l 1530 128 l 1530 255 q 1516 296 1530 285 q 1471 307 1503 307 l 1392 307 l 1392 456 l 1471 456 q 1516 466 1503 456 q 1530 507 1530 477 l 1530 634 z "},"⅔":{"ha":1830,"x_min":130,"x_max":1689,"o":"m 289 493 l 567 493 l 567 345 l 130 345 l 130 620 q 191 767 130 712 q 349 821 251 821 q 393 831 380 821 q 408 872 408 842 l 408 999 l 289 999 l 289 876 l 130 876 l 130 1038 q 165 1116 130 1084 q 248 1147 199 1147 l 448 1147 q 532 1116 497 1147 q 567 1038 567 1084 l 567 872 q 506 725 567 780 q 349 671 446 671 q 303 661 316 671 q 289 620 289 650 l 289 493 m 614 0 l 1038 1147 l 1215 1147 l 791 0 l 614 0 m 1530 634 l 1411 634 l 1411 511 l 1252 511 l 1252 673 q 1287 751 1252 719 q 1370 783 1322 783 l 1571 783 q 1654 751 1619 783 q 1689 673 1689 719 l 1689 507 q 1643 381 1689 429 q 1689 255 1689 333 l 1689 89 q 1654 12 1689 43 q 1571 -20 1619 -20 l 1370 -20 q 1287 12 1322 -20 q 1252 89 1252 43 l 1252 251 l 1411 251 l 1411 128 l 1530 128 l 1530 255 q 1516 296 1530 285 q 1471 307 1503 307 l 1392 307 l 1392 456 l 1471 456 q 1516 466 1503 456 q 1530 507 1530 477 l 1530 634 z "},"≡":{"ha":776,"x_min":71,"x_max":705,"o":"m 705 531 l 71 531 l 71 723 l 705 723 l 705 531 m 705 147 l 71 147 l 71 339 l 705 339 l 705 147 m 705 915 l 71 915 l 71 1107 l 705 1107 l 705 915 z "},"ﬀ":{"ha":1401,"x_min":95,"x_max":1373,"o":"m 95 1090 l 672 1090 l 672 888 l 311 888 l 311 646 l 612 646 l 612 444 l 311 444 l 311 0 l 95 0 l 95 1090 m 795 1090 l 1373 1090 l 1373 888 l 1012 888 l 1012 646 l 1312 646 l 1312 444 l 1012 444 l 1012 0 l 795 0 l 795 1090 z "},"ﬁ":{"ha":1132,"x_min":95,"x_max":1012,"o":"m 95 1090 l 672 1090 l 672 888 l 311 888 l 311 646 l 612 646 l 612 444 l 311 444 l 311 0 l 95 0 l 95 1090 m 795 0 l 795 1090 l 1012 1090 l 1012 0 l 795 0 z "},"ﬂ":{"ha":1342,"x_min":95,"x_max":1312,"o":"m 95 1090 l 672 1090 l 672 888 l 311 888 l 311 646 l 612 646 l 612 444 l 311 444 l 311 0 l 95 0 l 95 1090 m 795 0 l 795 1090 l 1011 1090 l 1011 201 l 1312 201 l 1312 0 l 795 0 z "},"ﬃ":{"ha":1832,"x_min":95,"x_max":1712,"o":"m 95 1090 l 672 1090 l 672 888 l 311 888 l 311 646 l 612 646 l 612 444 l 311 444 l 311 0 l 95 0 l 95 1090 m 795 1090 l 1373 1090 l 1373 888 l 1012 888 l 1012 646 l 1312 646 l 1312 444 l 1012 444 l 1012 0 l 795 0 l 795 1090 m 1496 0 l 1496 1090 l 1712 1090 l 1712 0 l 1496 0 z "},"ﬄ":{"ha":2043,"x_min":95,"x_max":2012,"o":"m 95 1090 l 672 1090 l 672 888 l 311 888 l 311 646 l 612 646 l 612 444 l 311 444 l 311 0 l 95 0 l 95 1090 m 795 1090 l 1373 1090 l 1373 888 l 1012 888 l 1012 646 l 1312 646 l 1312 444 l 1012 444 l 1012 0 l 795 0 l 795 1090 m 1495 0 l 1495 1090 l 1712 1090 l 1712 201 l 2012 201 l 2012 0 l 1495 0 z "},"ﬅ":{"ha":1281,"x_min":95,"x_max":1272,"o":"m 311 888 l 311 646 l 612 646 l 612 444 l 311 444 l 311 0 l 95 0 l 95 1090 l 1272 1090 l 1272 888 l 1061 888 l 1061 0 l 846 0 l 846 888 l 311 888 z "},"ﬆ":{"ha":1326,"x_min":79,"x_max":1317,"o":"m 295 888 l 295 716 q 397 646 295 646 q 621 574 532 646 q 717 374 717 498 l 717 149 q 669 43 717 87 q 557 0 622 0 l 239 0 q 126 43 174 0 q 79 149 79 87 l 79 368 l 295 368 l 295 201 l 500 201 l 500 374 q 397 444 500 444 q 174 515 264 444 q 79 716 79 591 l 79 941 q 126 1047 79 1003 q 239 1090 174 1090 l 1317 1090 l 1317 888 l 1106 888 l 1106 0 l 890 0 l 890 888 l 295 888 z "},"¤":{"ha":866,"x_min":47,"x_max":819,"o":"m 250 865 q 298 873 273 873 l 581 873 q 618 868 601 873 l 711 957 l 819 854 l 722 761 q 724 740 724 751 l 724 411 l 819 319 l 711 216 l 627 296 q 581 290 606 290 l 298 290 q 243 300 268 290 l 155 216 l 47 319 l 155 422 l 155 740 q 155 750 155 745 l 47 854 l 155 957 l 250 865 m 335 709 l 335 454 l 544 454 l 544 709 l 335 709 z "},"⁰":{"ha":696,"x_min":138,"x_max":575,"o":"m 297 999 l 297 493 l 416 493 l 416 999 l 297 999 m 456 1147 q 540 1116 505 1147 q 575 1038 575 1084 l 575 454 q 540 376 575 408 q 456 345 505 345 l 256 345 q 173 376 208 345 q 138 454 138 408 l 138 1038 q 173 1116 138 1084 q 256 1147 208 1147 l 456 1147 z "},"⁴":{"ha":663,"x_min":71,"x_max":585,"o":"m 363 675 l 363 1147 l 522 1147 l 522 675 l 585 675 l 585 526 l 522 526 l 522 345 l 363 345 l 363 526 l 189 526 q 106 557 141 526 q 71 635 71 590 l 144 1147 l 292 1147 l 232 675 l 363 675 z "},"⁵":{"ha":696,"x_min":142,"x_max":580,"o":"m 302 999 l 302 850 q 440 890 380 890 q 511 873 479 890 q 580 718 580 832 l 580 454 q 545 376 580 408 q 461 345 510 345 l 260 345 q 178 376 212 345 q 142 454 142 408 l 142 616 l 302 616 l 302 493 l 420 493 l 420 718 q 410 759 420 748 q 368 770 399 770 q 320 760 336 770 q 302 718 302 747 l 302 662 l 142 662 l 142 1147 l 580 1147 l 580 999 l 302 999 z "},"⁶":{"ha":696,"x_min":138,"x_max":575,"o":"m 297 493 l 416 493 l 416 637 q 401 679 416 667 q 357 690 389 690 q 311 679 324 690 q 297 637 297 667 l 297 493 m 297 791 q 411 824 359 824 q 496 799 457 824 q 575 637 575 748 l 575 454 q 540 376 575 408 q 456 345 505 345 l 256 345 q 173 376 208 345 q 138 454 138 408 l 138 1038 q 173 1116 138 1084 q 256 1147 208 1147 l 456 1147 q 540 1116 505 1147 q 575 1038 575 1084 l 575 876 l 416 876 l 416 999 l 297 999 l 297 791 z "},"⁷":{"ha":696,"x_min":113,"x_max":550,"o":"m 272 999 l 272 876 l 113 876 l 113 1038 q 148 1116 113 1084 q 231 1147 182 1147 l 431 1147 q 515 1116 480 1147 q 550 1038 550 1084 q 519 837 550 928 q 436 651 498 773 q 361 378 361 505 l 361 345 l 202 345 l 202 378 q 231 565 202 477 q 307 739 251 629 q 389 999 383 887 l 272 999 z "},"⁸":{"ha":696,"x_min":130,"x_max":567,"o":"m 408 999 l 289 999 l 289 872 q 303 831 289 842 q 349 821 316 821 q 393 831 380 821 q 408 872 408 842 l 408 999 m 289 493 l 408 493 l 408 620 q 393 661 408 650 q 349 671 380 671 q 303 661 316 671 q 289 620 289 650 l 289 493 m 175 746 q 130 872 130 794 l 130 1038 q 165 1116 130 1084 q 248 1147 199 1147 l 448 1147 q 532 1116 497 1147 q 567 1038 567 1084 l 567 872 q 521 746 567 794 q 567 620 567 698 l 567 454 q 532 376 567 408 q 448 345 497 345 l 248 345 q 165 376 199 345 q 130 454 130 408 l 130 620 q 175 746 130 698 z "},"⁹":{"ha":696,"x_min":129,"x_max":566,"o":"m 407 999 l 288 999 l 288 854 q 302 813 288 825 q 347 802 315 802 q 393 813 379 802 q 407 854 407 825 l 407 999 m 407 701 q 293 668 345 668 q 208 693 247 668 q 129 854 129 744 l 129 1038 q 164 1116 129 1084 q 247 1147 199 1147 l 448 1147 q 531 1116 496 1147 q 566 1038 566 1084 l 566 454 q 531 376 566 408 q 448 345 496 345 l 247 345 q 164 376 199 345 q 129 454 129 408 l 129 616 l 288 616 l 288 493 l 407 493 l 407 701 z "},"⁺":{"ha":619,"x_min":63,"x_max":507,"o":"m 352 789 l 507 789 l 507 655 l 352 655 l 352 500 l 218 500 l 218 655 l 63 655 l 63 789 l 218 789 l 218 944 l 352 944 l 352 789 z "},"⁻":{"ha":585,"x_min":71,"x_max":515,"o":"m 515 589 l 71 589 l 71 723 l 515 723 l 515 589 z "},"⁼":{"ha":591,"x_min":73,"x_max":517,"o":"m 517 494 l 73 494 l 73 629 l 517 629 l 517 494 m 517 754 l 73 754 l 73 888 l 517 888 l 517 754 z "},"⁽":{"ha":532,"x_min":168,"x_max":412,"o":"m 168 1109 q 233 1246 168 1194 q 386 1295 294 1295 l 412 1295 l 412 1192 l 386 1192 q 316 1136 316 1185 l 316 414 q 386 357 316 365 l 412 357 l 412 255 l 386 255 q 233 304 294 255 q 168 441 168 355 l 168 1109 z "},"⁾":{"ha":534,"x_min":62,"x_max":306,"o":"m 306 441 q 241 304 306 355 q 88 255 180 255 l 62 255 l 62 357 l 88 357 q 158 414 158 365 l 158 1136 q 88 1192 158 1185 l 62 1192 l 62 1295 l 88 1295 q 241 1246 180 1295 q 306 1109 306 1194 l 306 441 z "},"ⁿ":{"ha":701,"x_min":95,"x_max":581,"o":"m 246 876 l 246 385 l 95 385 l 95 1147 l 305 1147 l 429 654 l 429 1147 l 581 1147 l 581 385 l 371 385 l 246 876 z "},"₀":{"ha":696,"x_min":138,"x_max":575,"o":"m 297 253 l 297 -253 l 416 -253 l 416 253 l 297 253 m 456 401 q 540 370 505 401 q 575 292 575 338 l 575 -292 q 540 -370 575 -338 q 456 -401 505 -401 l 256 -401 q 173 -370 208 -401 q 138 -292 138 -338 l 138 292 q 173 370 138 338 q 256 401 208 401 l 456 401 z "},"₁":{"ha":696,"x_min":146,"x_max":584,"o":"m 445 -253 l 584 -253 l 584 -401 l 146 -401 l 146 -253 l 286 -253 l 286 253 l 146 253 l 146 401 l 327 401 q 410 370 375 401 q 445 292 445 338 l 445 -253 z "},"₂":{"ha":696,"x_min":130,"x_max":567,"o":"m 289 -253 l 567 -253 l 567 -401 l 130 -401 l 130 -126 q 191 21 130 -34 q 349 75 251 75 q 393 85 380 75 q 408 126 408 96 l 408 253 l 289 253 l 289 130 l 130 130 l 130 292 q 165 370 130 338 q 248 401 199 401 l 448 401 q 532 370 497 401 q 567 292 567 338 l 567 126 q 506 -21 567 34 q 349 -75 446 -75 q 303 -85 316 -75 q 289 -126 289 -96 l 289 -253 z "},"₃":{"ha":696,"x_min":118,"x_max":555,"o":"m 396 253 l 277 253 l 277 130 l 118 130 l 118 292 q 153 370 118 338 q 236 401 188 401 l 437 401 q 520 370 486 401 q 555 292 555 338 l 555 126 q 509 0 555 48 q 555 -126 555 -48 l 555 -292 q 520 -370 555 -338 q 437 -401 486 -401 l 236 -401 q 153 -370 188 -401 q 118 -292 118 -338 l 118 -130 l 277 -130 l 277 -253 l 396 -253 l 396 -126 q 382 -85 396 -96 q 337 -75 369 -75 l 258 -75 l 258 75 l 337 75 q 382 85 369 75 q 396 126 396 96 l 396 253 z "},"₄":{"ha":663,"x_min":71,"x_max":585,"o":"m 363 -71 l 363 401 l 522 401 l 522 -71 l 585 -71 l 585 -220 l 522 -220 l 522 -401 l 363 -401 l 363 -220 l 189 -220 q 106 -189 141 -220 q 71 -111 71 -156 l 144 401 l 292 401 l 232 -71 l 363 -71 z "},"₅":{"ha":696,"x_min":142,"x_max":580,"o":"m 302 253 l 302 104 q 440 144 380 144 q 511 127 479 144 q 580 -28 580 86 l 580 -292 q 545 -370 580 -338 q 461 -401 510 -401 l 260 -401 q 178 -370 212 -401 q 142 -292 142 -338 l 142 -130 l 302 -130 l 302 -253 l 420 -253 l 420 -28 q 410 13 420 2 q 368 24 399 24 q 320 14 336 24 q 302 -28 302 1 l 302 -84 l 142 -84 l 142 401 l 580 401 l 580 253 l 302 253 z "},"₆":{"ha":696,"x_min":138,"x_max":575,"o":"m 297 -253 l 416 -253 l 416 -109 q 401 -67 416 -79 q 357 -56 389 -56 q 311 -67 324 -56 q 297 -109 297 -79 l 297 -253 m 297 45 q 411 78 359 78 q 496 53 457 78 q 575 -109 575 2 l 575 -292 q 540 -370 575 -338 q 456 -401 505 -401 l 256 -401 q 173 -370 208 -401 q 138 -292 138 -338 l 138 292 q 173 370 138 338 q 256 401 208 401 l 456 401 q 540 370 505 401 q 575 292 575 338 l 575 130 l 416 130 l 416 253 l 297 253 l 297 45 z "},"₇":{"ha":696,"x_min":113,"x_max":550,"o":"m 272 253 l 272 130 l 113 130 l 113 292 q 148 370 113 338 q 231 401 182 401 l 431 401 q 515 370 480 401 q 550 292 550 338 q 519 91 550 182 q 436 -95 498 27 q 361 -368 361 -241 l 361 -401 l 202 -401 l 202 -368 q 231 -181 202 -269 q 307 -7 251 -117 q 389 253 383 141 l 272 253 z "},"₈":{"ha":696,"x_min":130,"x_max":567,"o":"m 408 253 l 289 253 l 289 126 q 303 85 289 96 q 349 75 316 75 q 393 85 380 75 q 408 126 408 96 l 408 253 m 289 -253 l 408 -253 l 408 -126 q 393 -85 408 -96 q 349 -75 380 -75 q 303 -85 316 -75 q 289 -126 289 -96 l 289 -253 m 175 0 q 130 126 130 48 l 130 292 q 165 370 130 338 q 248 401 199 401 l 448 401 q 532 370 497 401 q 567 292 567 338 l 567 126 q 521 0 567 48 q 567 -126 567 -48 l 567 -292 q 532 -370 567 -338 q 448 -401 497 -401 l 248 -401 q 165 -370 199 -401 q 130 -292 130 -338 l 130 -126 q 175 0 130 -48 z "},"₉":{"ha":696,"x_min":129,"x_max":566,"o":"m 407 253 l 288 253 l 288 108 q 302 67 288 79 q 347 56 315 56 q 393 67 379 56 q 407 108 407 79 l 407 253 m 407 -45 q 293 -78 345 -78 q 208 -53 247 -78 q 129 108 129 -2 l 129 292 q 164 370 129 338 q 247 401 199 401 l 448 401 q 531 370 496 401 q 566 292 566 338 l 566 -292 q 531 -370 566 -338 q 448 -401 496 -401 l 247 -401 q 164 -370 199 -401 q 129 -292 129 -338 l 129 -130 l 288 -130 l 288 -253 l 407 -253 l 407 -45 z "},"₊":{"ha":619,"x_min":63,"x_max":507,"o":"m 352 68 l 507 68 l 507 -66 l 352 -66 l 352 -222 l 218 -222 l 218 -66 l 63 -66 l 63 68 l 218 68 l 218 222 l 352 222 l 352 68 z "},"₋":{"ha":585,"x_min":71,"x_max":515,"o":"m 515 -67 l 71 -67 l 71 67 l 515 67 l 515 -67 z "},"₌":{"ha":591,"x_min":73,"x_max":517,"o":"m 517 -197 l 73 -197 l 73 -62 l 517 -62 l 517 -197 m 517 63 l 73 63 l 73 197 l 517 197 l 517 63 z "},"₍":{"ha":532,"x_min":168,"x_max":412,"o":"m 168 576 q 233 713 168 662 q 386 762 294 762 l 412 762 l 412 660 l 386 660 q 316 604 316 652 l 316 -119 q 386 -175 316 -168 l 412 -175 l 412 -277 l 386 -277 q 233 -229 294 -277 q 168 -92 168 -177 l 168 576 z "},"₎":{"ha":534,"x_min":62,"x_max":306,"o":"m 306 -92 q 241 -229 306 -177 q 88 -277 180 -277 l 62 -277 l 62 -175 l 88 -175 q 158 -119 158 -168 l 158 604 q 88 660 158 652 l 62 660 l 62 762 l 88 762 q 241 713 180 762 q 306 576 306 662 l 306 -92 z "},"‣":{"ha":784,"x_min":75,"x_max":709,"o":"m 75 929 l 709 610 l 75 285 l 75 929 z "},"․":{"ha":463,"x_min":88,"x_max":328,"o":"m 328 213 l 328 1 l 88 1 l 88 213 l 328 213 z "},"‧":{"ha":345,"x_min":88,"x_max":292,"o":"m 293 664 l 293 483 l 88 483 l 88 664 l 293 664 z "},"―":{"ha":2083,"x_min":0,"x_max":2154,"o":"m 2154 449 l 0 449 l 0 641 l 2154 641 l 2154 449 z "},"‖":{"ha":808,"x_min":102,"x_max":706,"o":"m 102 -280 l 102 1303 l 303 1303 l 303 -280 l 102 -280 m 505 -280 l 505 1303 l 706 1303 l 706 -280 l 505 -280 z "},"‗":{"ha":975,"x_min":102,"x_max":873,"o":"m 873 -174 l 102 -174 l 102 -29 l 873 -29 l 873 -174 m 873 0 l 102 0 l 102 144 l 873 144 l 873 0 z "},"‛":{"ha":444,"x_min":102,"x_max":342,"o":"m 102 1154 l 102 942 l 271 702 l 271 942 l 342 942 l 342 1154 l 102 1154 z "},"‟":{"ha":780,"x_min":102,"x_max":678,"o":"m 438 1154 l 438 942 l 608 702 l 608 942 l 678 942 l 678 1154 l 438 1154 m 102 1154 l 102 942 l 271 702 l 271 942 l 342 942 l 342 1154 l 102 1154 z "},"‰":{"ha":1933,"x_min":138,"x_max":1813,"o":"m 297 1057 l 297 677 l 416 677 l 416 1057 l 297 1057 m 456 1168 q 540 1144 505 1168 q 575 1086 575 1120 l 575 648 q 540 589 575 614 q 456 566 505 566 l 256 566 q 173 589 208 566 q 138 648 138 614 l 138 1086 q 173 1144 138 1120 q 256 1168 208 1168 l 456 1168 m 418 0 l 841 1147 l 1019 1147 l 595 0 l 418 0 m 1010 471 l 1010 91 l 1128 91 l 1128 471 l 1010 471 m 1170 582 q 1253 558 1218 582 q 1288 500 1288 534 l 1288 62 q 1253 3 1288 28 q 1170 -20 1218 -20 l 968 -20 q 886 3 920 -20 q 850 62 850 28 l 850 500 q 886 558 850 534 q 968 582 920 582 l 1170 582 m 1535 471 l 1535 91 l 1653 91 l 1653 471 l 1535 471 m 1695 582 q 1777 558 1743 582 q 1813 500 1813 534 l 1813 62 q 1777 3 1813 28 q 1695 -20 1743 -20 l 1493 -20 q 1411 3 1445 -20 q 1375 62 1375 28 l 1375 500 q 1411 558 1375 534 q 1493 582 1445 582 l 1695 582 z "},"‱":{"ha":2500,"x_min":138,"x_max":2380,"o":"m 297 1057 l 297 677 l 416 677 l 416 1057 l 297 1057 m 456 1168 q 540 1144 505 1168 q 575 1086 575 1120 l 575 648 q 540 589 575 614 q 456 566 505 566 l 256 566 q 173 589 208 566 q 138 648 138 614 l 138 1086 q 173 1144 138 1120 q 256 1168 208 1168 l 456 1168 m 435 0 l 859 1147 l 1036 1147 l 612 0 l 435 0 m 1050 471 l 1050 91 l 1168 91 l 1168 471 l 1050 471 m 1209 582 q 1292 558 1257 582 q 1327 500 1327 534 l 1327 62 q 1292 3 1327 28 q 1209 -20 1257 -20 l 1008 -20 q 925 3 960 -20 q 890 62 890 28 l 890 500 q 925 558 890 534 q 1008 582 960 582 l 1209 582 m 1576 471 l 1576 91 l 1694 91 l 1694 471 l 1576 471 m 1735 582 q 1818 558 1784 582 q 1853 500 1853 534 l 1853 62 q 1818 3 1853 28 q 1735 -20 1784 -20 l 1534 -20 q 1451 3 1486 -20 q 1416 62 1416 28 l 1416 500 q 1451 558 1416 534 q 1534 582 1486 582 l 1735 582 m 2102 471 l 2102 91 l 2220 91 l 2220 471 l 2102 471 m 2262 582 q 2344 558 2310 582 q 2380 500 2380 534 l 2380 62 q 2344 3 2380 28 q 2262 -20 2310 -20 l 2060 -20 q 1978 3 2012 -20 q 1942 62 1942 28 l 1942 500 q 1978 558 1942 534 q 2060 582 2012 582 l 2262 582 z "},"′":{"ha":444,"x_min":87,"x_max":315,"o":"m 138 774 l 87 1225 l 315 1225 l 263 774 l 138 774 z "},"″":{"ha":671,"x_min":87,"x_max":543,"o":"m 138 774 l 87 1225 l 315 1225 l 263 774 l 138 774 m 366 774 l 315 1225 l 543 1225 l 491 774 l 366 774 z "},"‴":{"ha":899,"x_min":87,"x_max":771,"o":"m 138 774 l 87 1225 l 315 1225 l 263 774 l 138 774 m 366 774 l 315 1225 l 543 1225 l 491 774 l 366 774 m 593 774 l 543 1225 l 771 1225 l 719 774 l 593 774 z "},"‵":{"ha":444,"x_min":87,"x_max":315,"o":"m 265 774 l 315 1225 l 87 1225 l 140 774 l 265 774 z "},"‶":{"ha":899,"x_min":87,"x_max":771,"o":"m 265 774 l 315 1225 l 87 1225 l 140 774 l 265 774 m 721 774 l 771 1225 l 543 1225 l 595 774 l 721 774 z "},"‷":{"ha":1355,"x_min":87,"x_max":1227,"o":"m 265 774 l 315 1225 l 87 1225 l 140 774 l 265 774 m 721 774 l 771 1225 l 543 1225 l 595 774 l 721 774 m 1177 774 l 1227 1225 l 999 1225 l 1051 774 l 1177 774 z "},"‸":{"ha":848,"x_min":102,"x_max":746,"o":"m 424 -169 l 294 -555 l 102 -555 l 326 0 l 522 0 l 746 -555 l 554 -555 l 424 -169 z "}}}
